<?xml version="1.0" encoding="UTF-8"?>
<svg version="1.1" xmlns="http://www.w3.org/2000/svg" width="500" height="500">
<path d="M0 0 C1.21045962 -0.00507454 2.42091925 -0.01014909 3.66805947 -0.0153774 C5.0079842 -0.01597902 6.34790898 -0.01647812 7.68783379 -0.01688576 C9.11403964 -0.02090265 10.54024436 -0.02534125 11.96644771 -0.03016531 C15.88621618 -0.04211227 19.80597235 -0.04777495 23.72575545 -0.05234647 C27.95375418 -0.05831003 32.18173826 -0.06991832 36.4097271 -0.08063698 C46.62361634 -0.10514889 56.83751043 -0.11978904 67.05142003 -0.13269705 C69.93866607 -0.13641072 72.82591162 -0.14038383 75.71315718 -0.14444971 C93.65873707 -0.1696947 111.60431777 -0.19173878 129.5499115 -0.20417786 C133.70598287 -0.20710737 137.86205422 -0.21006905 142.01812553 -0.21308327 C143.05104807 -0.21382932 144.0839706 -0.21457537 145.14819382 -0.21534403 C161.85752985 -0.22798065 178.56675905 -0.26118105 195.27604522 -0.3028851 C212.4490944 -0.34539339 229.62208906 -0.36888339 246.79519069 -0.37409842 C256.42978766 -0.37750312 266.0642179 -0.38914634 275.69876289 -0.42220116 C283.90959942 -0.45032569 292.12023504 -0.4611471 300.33111598 -0.4500057 C304.51381555 -0.44485 308.69609525 -0.44750193 312.87873268 -0.47247124 C344.642448 -0.65160065 369.95316908 4.08496899 393.55767632 26.57060814 C410.81978273 44.75853687 418.52145681 67.05848954 418.36375237 91.89880943 C418.36506339 93.45270609 418.36769526 95.0066021 418.37151986 96.5604946 C418.37817844 100.79539831 418.3662966 105.03007127 418.35118568 109.26494563 C418.33816218 113.84485486 418.34261922 118.42475235 418.3448925 123.00467491 C418.34646126 130.92807442 418.33709371 138.85139949 418.32017899 146.77478027 C418.29573952 158.2304761 418.28797866 169.68613614 418.28421501 181.1418552 C418.27765828 199.73051262 418.25771825 218.31913042 418.22930717 236.90776634 C418.20174645 254.95887114 418.18055715 273.00996509 418.16778374 291.06108665 C418.16697975 292.18614882 418.16617575 293.31121098 418.1653474 294.47036594 C418.15910869 303.26982654 418.15323807 312.06928738 418.14748371 320.86874831 C418.11921143 363.95820671 418.05884972 407.04756586 418.00298882 450.13701439 C325.93298882 450.13701439 233.86298882 450.13701439 139.00298882 450.13701439 C139.00298882 452.77701439 139.00298882 455.41701439 139.00298882 458.13701439 C137.07588835 467.34145475 132.05038577 475.28441188 124.57720757 480.98857689 C122.10750971 482.54798176 119.63969909 483.88281782 117.00298882 485.13701439 C116.2952935 485.47603783 115.58759819 485.81506126 114.85845757 486.16435814 C105.16166792 490.06826046 94.27931153 489.03828039 84.68658257 485.39482689 C74.99401692 480.85187764 67.80181009 473.05938233 63.72955132 463.21513939 C62.15359622 458.70756889 61.96741686 454.94271619 62.00298882 450.13701439 C61.18660942 450.14589684 60.37023003 450.15477928 59.52911186 450.16393089 C51.7640048 450.24471066 43.99910686 450.30529625 36.23368645 450.34426308 C32.24319063 450.36497107 28.25304741 450.39297316 24.26275444 450.4387722 C20.3982691 450.4828401 16.53411875 450.50627697 12.66940117 450.51652336 C11.20887808 450.52380728 9.74836936 450.53802368 8.28799248 450.55993462 C-16.74562389 450.91994055 -39.17741314 441.49052328 -57.18060493 424.03935814 C-71.00041696 410.09778565 -82.09122531 388.92483112 -82.13123226 368.9124918 C-82.13569011 367.87435186 -82.14014795 366.83621191 -82.14474088 365.76661319 C-82.14455652 364.63258872 -82.14437215 363.49856425 -82.14418221 362.3301754 C-82.14785889 361.12029373 -82.15153558 359.91041205 -82.15532368 358.66386729 C-82.16443365 355.30837118 -82.16905653 351.95292391 -82.17171299 348.5974201 C-82.17562352 344.97684687 -82.18520154 341.35628771 -82.19392586 337.7357235 C-82.21367237 328.9916419 -82.22375559 320.24755917 -82.23265365 311.50346085 C-82.23704078 307.38077531 -82.2424066 303.25809103 -82.24764252 299.13540649 C-82.26465535 285.42101591 -82.27914696 271.70662611 -82.28639126 257.9922266 C-82.28830101 254.43461354 -82.29022136 250.87700048 -82.2921772 247.31938744 C-82.29266094 246.43520871 -82.29314468 245.55102998 -82.29364308 244.64005796 C-82.30193376 230.33425515 -82.32725414 216.02853622 -82.35975788 201.72277 C-82.39289246 187.01881142 -82.41084591 172.31489536 -82.4140355 157.61089927 C-82.41619502 149.36196461 -82.4248612 141.11315215 -82.45049667 132.864254 C-82.47229154 125.83508624 -82.48021131 118.80607037 -82.47052989 111.77687266 C-82.46601003 108.19609079 -82.46773452 104.61562169 -82.48729134 101.0348835 C-82.64015736 71.37410027 -77.23564501 46.96463417 -55.89935493 24.95342064 C-41.62562616 10.80435325 -20.4027186 0.04550625 0 0 Z " fill="#A5286B" transform="translate(81.99701118469238,-0.13701438903808594)"/>
<path d="M0 0 C4.26387392 0.51483307 7.58817042 1.80704701 11.34765625 3.76953125 C12.03802979 4.12418457 12.72840332 4.47883789 13.43969727 4.84423828 C33.95890135 15.80439876 49.71815383 34.19368888 57.12674493 56.27838165 C60.26131215 66.65050526 61.21430504 76.44733998 61.1459198 87.21882629 C61.14723083 88.77272295 61.1498627 90.32661896 61.1536873 91.88051146 C61.16034587 96.11541517 61.14846404 100.35008813 61.13335311 104.58496249 C61.12032961 109.16487172 61.12478665 113.74476921 61.12705994 118.32469177 C61.1286287 126.24809128 61.11926114 134.17141635 61.10234642 142.09479713 C61.07790695 153.55049296 61.0701461 165.006153 61.06638245 176.46187206 C61.05982571 195.05052948 61.03988569 213.63914728 61.01147461 232.2277832 C60.98391388 250.278888 60.96272458 268.32998195 60.94995117 286.38110352 C60.94914718 287.50616568 60.94834319 288.63122784 60.94751483 289.7903828 C60.94127612 298.5898434 60.9354055 307.38930424 60.92965114 316.18876517 C60.90137886 359.27822357 60.84101716 402.36758272 60.78515625 445.45703125 C-31.28484375 445.45703125 -123.35484375 445.45703125 -218.21484375 445.45703125 C-218.87484375 441.49703125 -219.53484375 437.53703125 -220.21484375 433.45703125 C-223.39401376 424.51007912 -228.33124458 417.71276403 -236.21484375 412.45703125 C-234.79658021 408.69187414 -233.08159476 405.24434147 -231.125 401.73046875 C-230.20279663 400.07108276 -230.20279663 400.07108276 -229.26196289 398.37817383 C-228.6005958 397.19602971 -227.93905274 396.01398402 -227.27734375 394.83203125 C-226.6033584 393.6233333 -225.92944944 392.41459276 -225.25561523 391.20581055 C-219.68341417 381.22679847 -213.99238338 371.31848662 -208.21484375 361.45703125 C-207.65434326 361.64821533 -207.09384277 361.83939941 -206.51635742 362.03637695 C-186.08509339 368.93705948 -167.32479598 371.672019 -147.08984375 361.95703125 C-130.02084139 353.23305657 -120.75150786 339.14424622 -114.46484375 321.33203125 C-110.1401831 305.95546005 -113.36486351 288.76065712 -120.27734375 274.76953125 C-126.09470691 264.65454435 -133.99648194 256.20959049 -144.21484375 250.45703125 C-142.62578229 244.69315744 -139.77043859 239.89066189 -136.77734375 234.76953125 C-136.25108398 233.85921143 -135.72482422 232.9488916 -135.18261719 232.01098633 C-134.08458751 230.11303384 -132.98412999 228.21648403 -131.88134766 226.32128906 C-130.24120255 223.50233471 -128.6077822 220.67959568 -126.9765625 217.85546875 C-124.39444383 213.38633825 -121.80633982 208.92073019 -119.21484375 204.45703125 C-119.90964844 204.22242188 -120.60445313 203.9878125 -121.3203125 203.74609375 C-124.76606662 202.21154738 -127.58093512 200.14610561 -130.52734375 197.83203125 C-131.10202393 197.38182617 -131.6767041 196.93162109 -132.26879883 196.46777344 C-149.8728268 182.4875942 -160.6254376 164.11246916 -166.21484375 142.45703125 C-166.44042969 141.63847656 -166.66601562 140.81992188 -166.8984375 139.9765625 C-172.51736096 115.60206005 -166.72763331 88.91567558 -153.88867188 67.83764648 C-149.7242362 61.35359251 -144.61174078 55.9202496 -139.21484375 50.45703125 C-138.63347656 49.80347656 -138.05210937 49.14992187 -137.453125 48.4765625 C-123.424219 33.03416471 -98.96665636 23.67412068 -78.4296875 22.515625 C-77.69878906 22.49628906 -76.96789062 22.47695313 -76.21484375 22.45703125 C-75.04115234 22.38162109 -75.04115234 22.38162109 -73.84375 22.3046875 C-57.75262494 21.69239203 -41.45456119 25.75065037 -27.0546875 32.72265625 C-25.08063497 33.64238656 -25.08063497 33.64238656 -22.21484375 33.45703125 C-21.7458667 32.59948242 -21.27688965 31.74193359 -20.79370117 30.85839844 C-19.04682221 27.6660892 -17.29586971 24.47602963 -15.54370117 21.28662109 C-14.78705995 19.90799651 -14.03151305 18.52877072 -13.27709961 17.14892578 C-12.1902373 15.16147948 -11.09941023 13.17625471 -10.0078125 11.19140625 C-9.67331589 10.57771179 -9.33881927 9.96401733 -8.9941864 9.33172607 C-4.17393077 0.59337776 -4.17393077 0.59337776 0 0 Z " fill="#6C2548" transform="translate(439.21484375,4.54296875)"/>
<path d="M0 0 C26.84073925 -1.02133711 51.3026296 9.97485181 71.1171875 27.33203125 C89.5698844 44.73302003 99.17282405 69.25510757 100.83203125 94.20703125 C101.25820055 119.84821749 92.78870493 143.9864535 75.62890625 163.15234375 C74.8296875 164.04566406 74.03046875 164.93898437 73.20703125 165.859375 C55.54782506 184.53738155 31.35056622 194.85830938 5.7277832 195.62255859 C-10.26631016 195.77628737 -24.93157925 193.226876 -39.37109375 186.15234375 C-40.26828125 185.72308594 -41.16546875 185.29382813 -42.08984375 184.8515625 C-64.9646077 173.18411824 -80.97353497 153.62897199 -89.6171875 129.703125 C-90.63972422 126.53813039 -91.53996478 123.37244646 -92.37109375 120.15234375 C-92.59667969 119.33378906 -92.82226562 118.51523438 -93.0546875 117.671875 C-98.67361096 93.29737255 -92.88388331 66.61098808 -80.04492188 45.53295898 C-75.8804862 39.04890501 -70.76799078 33.6155621 -65.37109375 28.15234375 C-64.78972656 27.49878906 -64.20835937 26.84523438 -63.609375 26.171875 C-49.580469 10.72947721 -25.12290636 1.36943318 -4.5859375 0.2109375 C-3.05621066 0.17046854 -1.52711324 0.09811765 0 0 Z " fill="#9ED94E" transform="translate(365.37109375,26.84765625)"/>
<path d="M0 0 C14.85 0 29.7 0 45 0 C43.8765593 6.7406442 43.8765593 6.7406442 42.6171875 9.8203125 C42.33617187 10.52285156 42.05515625 11.22539063 41.765625 11.94921875 C41.47171875 12.66722656 41.1778125 13.38523437 40.875 14.125 C38.34998009 20.31731074 36.09359249 26.57829309 33.9140625 32.8984375 C28.99935891 47.09413218 23.51797202 61.07594914 18.11572266 75.09130859 C11.60084194 91.96954734 11.60084194 91.96954734 5.5 109 C0.74497584 122.8349984 -4.62345978 136.44287362 -9.88427734 150.09130859 C-14.5200415 162.12851968 -19.11773238 174.15899191 -23.31065369 186.35823059 C-27.42688517 198.24471806 -32.0422627 209.95042358 -36.5625 221.6875 C-38.3998697 226.46119387 -40.23493638 231.23575809 -42.06640625 236.01171875 C-42.72042923 237.7168161 -42.72042923 237.7168161 -43.38766479 239.45635986 C-46.30711704 247.10043627 -49.09522679 254.77703636 -51.73706055 262.52124023 C-53.5435404 267.49717904 -55.6663656 272.31100893 -58.02734375 277.05078125 C-58.34171387 277.68193848 -58.65608398 278.3130957 -58.97998047 278.96337891 C-59.31658691 279.63546387 -59.65319336 280.30754883 -60 281 C-60.5571167 282.12607666 -60.5571167 282.12607666 -61.12548828 283.27490234 C-73.62650485 308.39482125 -89.40470644 330.56358158 -117 340 C-124.99904501 342.30064652 -131.57883205 343 -140 343 C-140 331.45 -140 319.9 -140 308 C-133.565 306.02 -133.565 306.02 -127 304 C-112.08062326 296.61883467 -104.18389902 287.3750366 -98 272 C-97.47148438 270.81277344 -96.94296875 269.62554687 -96.3984375 268.40234375 C-90.97759987 253.69555594 -94.68137126 236.59331635 -100.79296875 222.80712891 C-103.02060078 217.62644261 -104.97399664 212.33568876 -106.98284912 207.06729126 C-108.26988496 203.70388744 -109.57586494 200.34789445 -110.8828125 196.9921875 C-111.14337433 196.32296768 -111.40393616 195.65374786 -111.6723938 194.96424866 C-114.7609827 187.03845417 -117.87756151 179.12366467 -120.99511719 171.20922852 C-124.45054491 162.42699401 -127.84591417 153.62274063 -131.22216797 144.80981445 C-134.78237697 135.53081673 -138.41284072 126.28013026 -142.0703125 117.0390625 C-145.48323527 108.39299148 -148.73458806 99.70776516 -152 91 C-138.14 91 -124.28 91 -110 91 C-94.25 140.5 -94.25 140.5 -93.37524414 143.24926758 C-92.79112387 145.08505087 -92.20697668 146.92082559 -91.62280273 148.7565918 C-90.17629013 153.30237144 -88.73022542 157.84829253 -87.28515625 162.39453125 C-82.87430457 176.26864198 -78.44114437 190.13555791 -74 204 C-72.60046912 201.28733376 -71.39213605 198.56876483 -70.30078125 195.71875 C-69.98254395 194.88786865 -69.66430664 194.0569873 -69.33642578 193.20092773 C-68.99853027 192.30962158 -68.66063477 191.41831543 -68.3125 190.5 C-67.77858643 189.09439819 -67.77858643 189.09439819 -67.23388672 187.66040039 C-64.33149669 179.97171474 -61.5936036 172.23326679 -58.90234375 164.46875 C-53.39110933 148.57944627 -47.68048707 132.76076113 -41.8125 117 C-38.38217958 107.78623699 -35.0562455 98.54537703 -31.83203125 89.2578125 C-25.94190584 72.30606437 -19.81718476 55.44073688 -13.55517578 38.62329102 C-8.80114833 25.82638744 -4.3169905 12.95097149 0 0 Z " fill="#FEFDFE" transform="translate(214,31)"/>
<path d="M0 0 C4.32748868 1.46653783 7.68854072 3.77092888 11.25 6.5625 C12.10706543 7.23285278 12.10706543 7.23285278 12.98144531 7.91674805 C33.43145069 24.16237486 46.56878712 47.70434018 49.61328125 73.69921875 C52.13184245 99.61204071 45.0669155 124.56699111 29.1875 145.1875 C27.81549965 146.81209731 26.41841402 148.4157642 25 150 C24.20078125 150.89332031 23.4015625 151.78664062 22.578125 152.70703125 C4.91891881 171.3850378 -19.27834003 181.70596563 -44.90112305 182.47021484 C-63.7089521 182.65098812 -79.24911793 178.44890981 -96 170 C-86.61710786 152.0792588 -76.6033372 134.49973137 -66.54003906 116.95458984 C-62.64884248 110.16106984 -58.81768981 103.33505594 -55 96.5 C-50.20113892 87.90938954 -45.35899811 79.34572715 -40.46655273 70.80810547 C-36.81042188 64.42576874 -33.17973328 58.02945904 -29.5625 51.625 C-29.02447754 50.67270508 -28.48645508 49.72041016 -27.93212891 48.73925781 C-25.16451694 43.8387087 -22.40075768 38.93601539 -19.640625 34.03125 C-13.21118387 22.61603711 -6.69614412 11.26100987 0 0 Z " fill="#77B127" transform="translate(416,40)"/>
<path d="M0 0 C1.02222656 0.40089844 2.04445313 0.80179688 3.09765625 1.21484375 C17.90510521 7.80654684 28.68506756 20.38966481 34.93359375 35.17578125 C41.38835786 52.27026642 40.66151347 69.6154437 33.5625 86.3984375 C25.78094361 102.14860692 12.57432876 114.05415013 -4 120 C-20.79845099 124.92675418 -37.5355504 124.133064 -53.4375 116.6875 C-58.37765427 113.97331139 -62.74483396 110.68369184 -67 107 C-67.67933594 106.41605469 -68.35867187 105.83210938 -69.05859375 105.23046875 C-80.69793393 94.45330192 -87.55897206 79.54157627 -88.37109375 63.75 C-88.79333193 45.06425812 -83.37642786 27.86452456 -70.4375 13.875 C-51.57361008 -3.99411447 -24.2606439 -9.66185444 0 0 Z " fill="#FCC127" transform="translate(288,251)"/>
<path d="M0 0 C15.48339478 7.74169739 25.29117952 21.74694882 30.96875 37.7265625 C35.86872096 54.19590932 33.47013872 71.44114952 25.9375 86.6875 C17.2024002 101.86193619 3.54878234 113.02632885 -13.31640625 117.97265625 C-30.74404659 122.15918438 -47.03792186 119.98103907 -63 112 C-62.505 111.01 -62.505 111.01 -62 110 C-61.34 110 -60.68 110 -60 110 C-59.77570313 109.19820313 -59.55140625 108.39640625 -59.3203125 107.5703125 C-57.63865556 103.02287333 -55.32007774 99.05037909 -52.875 94.875 C-51.78621413 92.99232871 -50.69768604 91.10950832 -49.609375 89.2265625 C-49.02607422 88.22141602 -48.44277344 87.21626953 -47.84179688 86.18066406 C-44.92296082 81.14002301 -42.03072574 76.08418978 -39.140625 71.02703857 C-38.46056649 69.83714053 -37.78022547 68.6474039 -37.09960938 67.45782471 C-31.72943057 58.07115721 -26.4331705 48.64520074 -21.17529297 39.19506836 C-16.401646 30.64462827 -11.46784635 22.19207903 -6.44091797 13.78808594 C-3.77600262 9.28468192 -1.33935185 5.10842531 0 0 Z " fill="#F39900" transform="translate(294,254)"/>
<path d="M0 0 C7.64005244 6.31852986 13.28405856 13.91988387 15.16796875 23.79296875 C16.09061544 37.36041277 14.59054939 47.86803683 5.4375 58.56640625 C1.76067561 62.17361778 -2.19918254 64.58927462 -6.83203125 66.79296875 C-7.53972656 67.13199219 -8.24742187 67.47101563 -8.9765625 67.8203125 C-18.67335214 71.72421482 -29.55570853 70.69423475 -39.1484375 67.05078125 C-48.84100314 62.507832 -56.03320998 54.71533669 -60.10546875 44.87109375 C-63.81683568 34.25578618 -62.30934837 22.94594375 -57.83203125 12.79296875 C-51.95866936 3.09610641 -43.54906552 -4.05273964 -32.4453125 -6.796875 C-20.59516882 -8.65676302 -9.80084857 -7.02538703 0 0 Z " fill="#FE4D46" transform="translate(205.83203125,418.20703125)"/>
<path d="M0 0 C9.1672332 5.06987853 14.41494716 13.00030944 17.578125 22.7890625 C19.70586249 33.93998303 18.38299241 45.06194519 12.3046875 54.68359375 C7.79357171 60.82930412 2.86113978 64.73638092 -4 68 C-4.70769531 68.33902344 -5.41539062 68.67804688 -6.14453125 69.02734375 C-16.06890005 73.02286885 -27.22691862 71.78312828 -37 68 C-36.40018514 63.91512607 -35.06268516 60.93144723 -33.04296875 57.34375 C-32.4308252 56.24901367 -31.81868164 55.15427734 -31.18798828 54.02636719 C-30.52139321 52.85077854 -29.85455835 51.67532584 -29.1875 50.5 C-28.5045473 49.28576189 -27.82209792 48.07124056 -27.14013672 46.85644531 C-25.42406944 43.80420814 -23.6993599 40.75696489 -21.9710083 37.71166992 C-21.06615905 36.11662358 -20.16360388 34.52027644 -19.26123047 32.92382812 C-13.00107259 21.85123325 -6.61047187 10.86721513 0 0 Z " fill="#EC2720" transform="translate(203,417)"/>
</svg>
