<?xml version="1.0" encoding="UTF-8"?>
<svg version="1.1" xmlns="http://www.w3.org/2000/svg" width="500" height="500">
<path d="M0 0 C1.10263463 -0.00297112 2.20526926 -0.00594224 3.34131706 -0.0090034 C7.00228202 -0.01761113 10.66321398 -0.0191919 14.32418823 -0.02069092 C16.96354319 -0.02532487 19.60289527 -0.0303307 22.24224854 -0.03573608 C29.39181432 -0.04924903 36.54137445 -0.05533368 43.69095087 -0.05974674 C48.16908923 -0.06252233 52.64722547 -0.0667621 57.1253624 -0.07125092 C69.56270016 -0.08343665 82.00003624 -0.09373586 94.43737984 -0.09712601 C95.62872213 -0.09745536 95.62872213 -0.09745536 96.84413194 -0.09779136 C97.64009865 -0.09800964 98.43606536 -0.09822791 99.25615227 -0.09845281 C100.86867468 -0.09889625 102.48119708 -0.09934281 104.09371948 -0.09979248 C104.89356061 -0.10001391 105.69340174 -0.10023534 106.51748048 -0.10046348 C119.44516502 -0.10440204 132.37279288 -0.12183033 145.30045559 -0.145152 C158.62380946 -0.16899016 171.94713505 -0.18133356 185.27051055 -0.18249393 C192.73045245 -0.18340397 200.19032055 -0.1889843 207.65024185 -0.20731354 C214.00920059 -0.22288424 220.36806274 -0.22773711 226.72703697 -0.21957543 C229.95869882 -0.21572719 233.19013101 -0.21801223 236.42177582 -0.23063278 C268.21754462 -0.34737308 300.51463504 1.35466828 327.4057312 20.14044189 C328.21655151 20.70376221 329.02737183 21.26708252 329.86276245 21.84747314 C333.93184173 24.77635508 333.93184173 24.77635508 335.4057312 26.14044189 C335.4057312 26.80044189 335.4057312 27.46044189 335.4057312 28.14044189 C335.98838745 28.39825439 336.5710437 28.65606689 337.1713562 28.92169189 C339.58602151 30.23878206 341.22313298 31.69132574 343.1557312 33.64044189 C343.76932495 34.24887939 344.3829187 34.85731689 345.0151062 35.48419189 C346.4057312 37.14044189 346.4057312 37.14044189 346.4057312 39.14044189 C347.0657312 39.14044189 347.7257312 39.14044189 348.4057312 39.14044189 C369.42129384 63.68275413 374.57321804 94.34604975 374.5461731 125.73471069 C374.55062978 127.38866264 374.55062978 127.38866264 374.5551765 129.07602775 C374.56378423 132.73699272 374.565365 136.39792468 374.56686401 140.05889893 C374.57149797 142.69825388 374.57650379 145.33760597 374.58190918 147.97695923 C374.59542213 155.12652501 374.60150678 162.27608514 374.60591984 169.42566156 C374.60869543 173.90379992 374.61293519 178.38193617 374.61742401 182.86007309 C374.62960974 195.29741085 374.63990896 207.73474693 374.6432991 220.17209053 C374.64351867 220.96631872 374.64373823 221.76054692 374.64396445 222.57884263 C374.64418273 223.37480934 374.64440101 224.17077605 374.6446259 224.99086297 C374.64506934 226.60338537 374.64551591 228.21590777 374.64596558 229.82843018 C374.64618701 230.6282713 374.64640844 231.42811243 374.64663658 232.25219117 C374.65057514 245.17987572 374.66800343 258.10750358 374.6913251 271.03516628 C374.71516325 284.35852015 374.72750665 297.68184574 374.72866702 311.00522125 C374.72957707 318.46516315 374.7351574 325.92503124 374.75348663 333.38495255 C374.76905734 339.74391128 374.77391021 346.10277343 374.76574853 352.46174766 C374.76190029 355.69340952 374.76418532 358.9248417 374.77680588 362.15648651 C374.89354617 393.95225531 373.19150481 426.24934574 354.4057312 453.14044189 C353.84241089 453.95126221 353.27909058 454.76208252 352.69869995 455.59747314 C349.76981802 459.66655242 349.76981802 459.66655242 348.4057312 461.14044189 C347.7457312 461.14044189 347.0857312 461.14044189 346.4057312 461.14044189 C346.1479187 461.72309814 345.8901062 462.30575439 345.6244812 462.90606689 C344.30739104 465.3207322 342.85484736 466.95784367 340.9057312 468.89044189 C340.2972937 469.50403564 339.6888562 470.11762939 339.0619812 470.74981689 C337.4057312 472.14044189 337.4057312 472.14044189 335.4057312 472.14044189 C335.4057312 472.80044189 335.4057312 473.46044189 335.4057312 474.14044189 C322.34198644 485.32691624 307.04503737 492.65316373 290.3432312 496.32794189 C289.65543579 496.48287109 288.96764038 496.63780029 288.25900269 496.79742432 C270.24895449 500.46735871 251.8720017 500.43525413 233.57907104 500.4151001 C230.93853249 500.41945736 228.29800503 500.42458124 225.6574707 500.43058777 C219.27733135 500.44322502 212.89723429 500.44514226 206.51708452 500.44278751 C201.32041232 500.44099143 196.12375277 500.44278132 190.92708206 500.44701195 C190.1824004 500.44760714 189.43771873 500.44820233 188.67047096 500.44881555 C187.15674665 500.45002753 185.64302235 500.45124167 184.12929805 500.45245793 C169.98758296 500.46329162 155.84589183 500.4611911 141.70417543 500.45507308 C128.82872761 500.44991007 115.95335559 500.46115057 103.07792275 500.4801713 C89.7904711 500.49964696 76.50305514 500.50778862 63.21558917 500.50404805 C55.78260019 500.50215035 48.34967562 500.50448159 40.91669846 500.51876259 C34.58720483 500.53080251 28.25781524 500.53194288 21.92831986 500.51997242 C18.71280989 500.51416994 15.49752377 500.51443248 12.28202057 500.52497482 C-19.47729938 500.62147121 -51.73630482 498.90306979 -78.5942688 480.14044189 C-79.40508911 479.57712158 -80.21590942 479.01380127 -81.05130005 478.43341064 C-85.12037933 475.50452871 -85.12037933 475.50452871 -86.5942688 474.14044189 C-86.5942688 473.48044189 -86.5942688 472.82044189 -86.5942688 472.14044189 C-87.17692505 471.88262939 -87.7595813 471.62481689 -88.3598938 471.35919189 C-90.7745591 470.04210173 -92.41167057 468.58955805 -94.3442688 466.64044189 C-94.95786255 466.03200439 -95.5714563 465.42356689 -96.2036438 464.79669189 C-97.5942688 463.14044189 -97.5942688 463.14044189 -97.5942688 461.14044189 C-98.2542688 461.14044189 -98.9142688 461.14044189 -99.5942688 461.14044189 C-120.60983144 436.59812966 -125.76175564 405.93483404 -125.73471069 374.5461731 C-125.73768182 373.44353847 -125.74065294 372.34090384 -125.74371409 371.20485604 C-125.75232182 367.54389107 -125.75390259 363.88295911 -125.75540161 360.22198486 C-125.76003556 357.58262991 -125.76504139 354.94327782 -125.77044678 352.30392456 C-125.78395973 345.15435878 -125.79004438 338.00479865 -125.79445744 330.85522223 C-125.79723302 326.37708387 -125.80147279 321.89894762 -125.80596161 317.4208107 C-125.81814734 304.98347294 -125.82844655 292.54613686 -125.8318367 280.10879326 C-125.83205627 279.31456506 -125.83227583 278.52033687 -125.83250205 277.70204116 C-125.83272033 276.90607445 -125.83293861 276.11010774 -125.8331635 275.29002082 C-125.83360694 273.67749842 -125.8340535 272.06497602 -125.83450317 270.45245361 C-125.8347246 269.65261248 -125.83494603 268.85277136 -125.83517417 268.02869262 C-125.83911273 255.10100807 -125.85654103 242.17338021 -125.8798627 229.24571751 C-125.90370085 215.92236364 -125.91604425 202.59903805 -125.91720462 189.27566254 C-125.91811466 181.81572064 -125.92369499 174.35585255 -125.94202423 166.89593124 C-125.95759493 160.5369725 -125.96244781 154.17811036 -125.95428613 147.81913613 C-125.95043789 144.58747427 -125.95272292 141.35604208 -125.96534348 138.12439728 C-126.08208377 106.32862848 -124.38004241 74.03153805 -105.5942688 47.14044189 C-104.74928833 45.92421143 -104.74928833 45.92421143 -103.88723755 44.68341064 C-100.95835562 40.61433137 -100.95835562 40.61433137 -99.5942688 39.14044189 C-98.9342688 39.14044189 -98.2742688 39.14044189 -97.5942688 39.14044189 C-97.20755005 38.26645752 -97.20755005 38.26645752 -96.8130188 37.37481689 C-95.49592863 34.96015159 -94.04338496 33.32304012 -92.0942688 31.39044189 C-91.18161255 30.47005127 -91.18161255 30.47005127 -90.2505188 29.53106689 C-88.5942688 28.14044189 -88.5942688 28.14044189 -86.5942688 28.14044189 C-86.5942688 27.48044189 -86.5942688 26.82044189 -86.5942688 26.14044189 C-62.05195656 5.12487925 -31.38866095 -0.02704495 0 0 Z " fill="#470137" transform="translate(125.59426879882813,-0.14044189453125)"/>
<path d="M0 0 C15.18 0 30.36 0 46 0 C46.02505615 6.45949219 46.0501123 12.91898438 46.07592773 19.57421875 C46.15947059 40.93606871 46.24810036 62.29789534 46.33933926 83.65971375 C46.39452373 96.60907117 46.44798072 109.55843135 46.49731445 122.5078125 C46.54033806 133.79971315 46.5866605 145.09159473 46.63687855 156.38346577 C46.66333387 162.35763748 46.68818187 168.33180578 46.70907402 174.30599976 C46.72882832 179.9398777 46.7530247 185.57371984 46.78049088 191.20756531 C46.78976285 193.26491131 46.79747228 195.32226511 46.80341911 197.37962341 C46.8378981 208.96063293 47.10802077 220.45002976 48 232 C41.64423303 236.42769857 35.56536588 238.64859824 28.125 240.6875 C26.58779297 241.12932617 26.58779297 241.12932617 25.01953125 241.58007812 C0.6558375 248.46816181 -28.59298575 251.06103223 -53 243 C-53.64775391 242.79632813 -54.29550781 242.59265625 -54.96289062 242.3828125 C-75.15519689 235.86007349 -89.70683174 221.91035752 -99.80029297 203.515625 C-101.87961174 199.15557197 -103.05693162 194.60393682 -104.25 189.9375 C-104.50523437 188.99583984 -104.76046875 188.05417969 -105.0234375 187.08398438 C-111.74700964 161.65826553 -108.29016614 134.24607393 -95.18359375 111.421875 C-92.09256829 106.37174889 -88.18943923 102.15696296 -84 98 C-83.195625 97.13375 -82.39125 96.2675 -81.5625 95.375 C-57.62212878 73.18636326 -32.81380308 70 0 70 C0 46.9 0 23.8 0 0 Z " fill="#FD60F4" transform="translate(378,125)"/>
<path d="M0 0 C7.35060015 -0.0759439 14.70109947 -0.12855502 22.05200195 -0.16479492 C24.55366802 -0.17989944 27.05530753 -0.20038429 29.55688477 -0.22631836 C33.14866684 -0.26262775 36.74009941 -0.27970975 40.33203125 -0.29296875 C41.45398392 -0.30845261 42.57593658 -0.32393646 43.73188782 -0.33988953 C44.77274033 -0.34011612 45.81359283 -0.34034271 46.88598633 -0.34057617 C47.80309891 -0.34723801 48.72021149 -0.35389984 49.66511536 -0.36076355 C52.46076139 0.07119235 53.28586672 0.79997974 55 3 C56.11230469 5.00756836 56.11230469 5.00756836 57.171875 7.33984375 C57.58107178 8.22357666 57.99026855 9.10730957 58.41186523 10.01782227 C58.85344971 10.98131592 59.29503418 11.94480957 59.75 12.9375 C64.05129734 22.12380555 68.62240313 31.1366814 73.4375 40.0625 C73.75372314 40.64895294 74.06994629 41.23540588 74.39575195 41.83963013 C76.58722907 45.89851334 78.7918046 49.95018479 81 54 C81.59119629 55.08490723 82.18239258 56.16981445 82.79150391 57.28759766 C86.00602498 63.18421086 86.00602498 63.18421086 89.23217773 69.07446289 C91.57401605 73.3450693 93.86172545 77.62366476 96 82 C96.39155273 81.25447876 96.39155273 81.25447876 96.79101562 80.49389648 C98.02686321 78.14151146 99.26334824 75.78946237 100.5 73.4375 C100.95487793 72.57213623 101.40975586 71.70677246 101.87841797 70.81518555 C104.28649416 66.23882934 106.70747481 61.67017626 109.15625 57.11547852 C112.02120187 51.78340454 114.81300856 46.4245038 117.5 41 C121.36483825 33.19873348 125.34057264 25.45511029 129.328125 17.71606445 C130.06727071 16.28120435 130.80571573 14.84598308 131.54345703 13.41040039 C132.58818732 11.37804046 133.6354992 9.34703285 134.68359375 7.31640625 C135.00303452 6.69423721 135.32247528 6.07206818 135.65159607 5.43104553 C137.88541315 1.11458685 137.88541315 1.11458685 139 0 C140.50418739 -0.09311889 142.01271356 -0.11746028 143.51977539 -0.11352539 C144.96115623 -0.11341209 144.96115623 -0.11341209 146.43165588 -0.11329651 C147.99882607 -0.10555458 147.99882607 -0.10555458 149.59765625 -0.09765625 C150.66165146 -0.0962413 151.72564667 -0.09482635 152.82188416 -0.09336853 C156.23545083 -0.08775064 159.648953 -0.07519511 163.0625 -0.0625 C165.37044176 -0.05748731 167.67838455 -0.052924 169.98632812 -0.04882812 C175.65757426 -0.0377754 181.32878253 -0.02101987 187 0 C187.33 0.99 187.66 1.98 188 3 C186.71622085 5.54605961 185.37495034 7.89702441 183.875 10.3125 C182.94497314 11.8500552 182.01530342 13.38782646 181.0859375 14.92578125 C180.58545898 15.74643066 180.08498047 16.56708008 179.56933594 17.41259766 C176.83742773 21.9167612 174.17365407 26.46110691 171.5 31 C170.38566394 32.88556283 169.27108317 34.77098105 168.15625 36.65625 C165.43152085 41.2673301 162.71365504 45.88239612 160 50.5 C154.58834207 59.70764868 149.15274938 68.9011175 143.71728516 78.09472656 C141.93980148 81.10184282 140.16314934 84.10944903 138.38671875 87.1171875 C137.79866455 88.11274658 137.21061035 89.10830566 136.60473633 90.1340332 C135.47815359 92.04135289 134.35168304 93.94873886 133.2253418 95.85620117 C132.71527588 96.71963135 132.20520996 97.58306152 131.6796875 98.47265625 C131.21272461 99.27203613 130.74576172 100.07141602 130.26464844 100.89501953 C129.24373966 102.5943005 128.1379279 104.24239803 127.0078125 105.87109375 C126.67523438 106.57363281 126.34265625 107.27617187 126 108 C126.78454473 109.95609285 126.78454473 109.95609285 128 112 C128.53983521 112.98262817 128.53983521 112.98262817 129.09057617 113.98510742 C136.91790123 127.7882177 144.99651759 141.42778715 153.19677734 155.01220703 C155.90802914 159.50453027 158.61154189 164.00148191 161.3125 168.5 C161.79887939 169.30985352 162.28525879 170.11970703 162.78637695 170.95410156 C166.36301914 176.91779923 169.89662076 182.90592403 173.41430664 188.90454102 C176.16817596 193.59720565 178.94887489 198.27289952 181.75 202.9375 C182.30324951 203.86199951 182.30324951 203.86199951 182.86767578 204.80517578 C184.51824344 207.5586058 186.18673791 210.29724055 187.89453125 213.015625 C188.44496094 213.89734375 188.99539063 214.7790625 189.5625 215.6875 C190.03816406 216.43386719 190.51382813 217.18023437 191.00390625 217.94921875 C192 220 192 220 192 224 C184.36453069 224.05062418 176.7291045 224.08570152 169.09350586 224.10986328 C166.49485659 224.11993368 163.89621869 224.13359071 161.29760742 224.15087891 C157.56686603 224.17508139 153.83627419 224.18647266 150.10546875 224.1953125 C148.35691841 224.21079636 148.35691841 224.21079636 146.57304382 224.22659302 C145.49214981 224.22674408 144.4112558 224.22689514 143.29760742 224.22705078 C142.34496506 224.231492 141.39232269 224.23593323 140.41081238 224.24050903 C138 224 138 224 135 222 C133.75339694 219.80718017 132.64136111 217.64867457 131.5625 215.375 C130.85062065 213.91649079 130.13835655 212.45816932 129.42578125 211 C128.84497803 209.80117188 128.84497803 209.80117188 128.25244141 208.578125 C120.26765675 192.14160921 111.87230666 175.97371754 103 160 C102.00774338 158.20837161 101.01555507 156.41670539 100.0234375 154.625 C97.68867145 150.41309169 95.34665761 146.2052935 93 142 C90.35097472 145.28523427 88.47610218 148.75019071 86.55859375 152.50390625 C86.23477219 153.13496277 85.91095062 153.76601929 85.57731628 154.41619873 C84.88573627 155.76481434 84.19580472 157.11427636 83.50738525 158.46450806 C82.06605476 161.2908857 80.61607499 164.11279329 79.16656494 166.9349823 C78.44492472 168.34021916 77.723691 169.74566484 77.00286865 171.15132141 C69.97080679 184.86380122 62.73142286 198.4432788 55.18505859 211.87988281 C54.32831767 213.41262657 53.47786716 214.94889214 52.63134766 216.48730469 C52.18194824 217.30360352 51.73254883 218.11990234 51.26953125 218.9609375 C50.85936768 219.70907715 50.4492041 220.4572168 50.02661133 221.22802734 C49 223 49 223 48 224 C46.43452952 224.09326716 44.86487228 224.11745582 43.29663086 224.11352539 C42.29566879 224.11344986 41.29470673 224.11337433 40.26341248 224.11329651 C39.1748848 224.10813522 38.08635712 224.10297394 36.96484375 224.09765625 C35.85645645 224.0962413 34.74806915 224.09482635 33.60609436 224.09336853 C30.04986931 224.08775033 26.49370617 224.07519475 22.9375 224.0625 C20.53320403 224.05748734 18.12890708 224.05292403 15.72460938 224.04882812 C9.81638496 224.03777499 3.9081969 224.02101917 -2 224 C-1.19287467 219.26378245 0.67021557 215.61937754 3.0625 211.5 C3.42021484 210.86835938 3.77792969 210.23671875 4.14648438 209.5859375 C7.27499887 204.11237868 10.60152273 198.76316187 13.91430664 193.39990234 C17.23298976 187.99009535 20.4606755 182.52743289 23.6875 177.0625 C24.38279032 175.88698301 25.07818616 174.71152843 25.77368164 173.53613281 C29.05560501 167.9883122 32.33234853 162.43743294 35.609375 156.88671875 C36.71873396 155.00780303 37.82810841 153.12889646 38.9375 151.25 C39.46770752 150.35176514 39.99791504 149.45353027 40.54418945 148.52807617 C43.26205565 143.92739461 45.99032366 139.33346052 48.74487305 134.75463867 C49.48149142 133.52948749 50.21612855 132.30314224 50.94848633 131.07543945 C52.6436738 128.23521137 54.36742833 125.42136743 56.140625 122.62890625 C56.79546875 121.57574219 57.4503125 120.52257812 58.125 119.4375 C58.70507812 118.52871094 59.28515625 117.61992187 59.8828125 116.68359375 C61.30361868 113.27067821 60.83093515 111.57271617 60 108 C58.88373674 105.43999597 58.88373674 105.43999597 57.41015625 102.98046875 C56.87865967 102.05016846 56.34716309 101.11986816 55.79956055 100.16137695 C55.22633057 99.17999756 54.65310059 98.19861816 54.0625 97.1875 C53.47057861 96.15778076 52.87865723 95.12806152 52.26879883 94.06713867 C48.56397705 87.63760934 44.80963447 81.23655955 41.02612305 74.85302734 C35.55159913 65.59683887 30.25589147 56.23651865 24.9296875 46.89453125 C24.28354492 45.76144531 23.63740234 44.62835938 22.97167969 43.4609375 C21.6370653 41.11825627 20.30426304 38.77462572 18.97363281 36.4296875 C15.83332224 30.90364845 12.66316714 25.40100628 9.375 19.9609375 C8.53388672 18.56681641 8.53388672 18.56681641 7.67578125 17.14453125 C6.53291234 15.25573392 5.38422069 13.37045052 4.23046875 11.48828125 C3.68003906 10.57175781 3.12960938 9.65523437 2.5625 8.7109375 C2.06878906 7.89931152 1.57507813 7.08768555 1.06640625 6.25146484 C0 4 0 4 0 0 Z " fill="#FD60F4" transform="translate(74,144)"/>
<path d="M0 0 C0 31.02 0 62.04 0 94 C-13.46520047 97.36630012 -25.69962437 97.42521912 -37.90625 90.3046875 C-49.10480438 82.70566846 -56.12827312 72.80579281 -59.609375 59.70703125 C-61.72875076 45.01975725 -60.48521705 30.14273303 -51.48046875 17.9140625 C-50.99191406 17.28242188 -50.50335938 16.65078125 -50 16 C-49.29875 14.989375 -48.5975 13.97875 -47.875 12.9375 C-37.33715828 0.88945804 -15.21212533 -7.60606266 0 0 Z " fill="#480138" transform="translate(378,236)"/>
<path d="M0 0 C0.33 0.66 0.66 1.32 1 2 C1.66 2.33 2.32 2.66 3 3 C2.01 4.485 2.01 4.485 1 6 C0.34 6 -0.32 6 -1 6 C-1 6.66 -1 7.32 -1 8 C-1.70125 8.37125 -2.4025 8.7425 -3.125 9.125 C-7.10286718 11.71926121 -9.27972616 15.16925822 -12 19 C-13.32481269 20.67344761 -14.65407903 22.34348188 -16 24 C-16.66 23.34 -17.32 22.68 -18 22 C-16.6776206 19.99194239 -15.34460752 17.99313205 -14 16 C-13.56816406 15.35417969 -13.13632812 14.70835938 -12.69140625 14.04296875 C-11.51254215 12.32539524 -10.26051775 10.65857599 -9 9 C-8.34 9 -7.68 9 -7 9 C-6.773125 8.443125 -6.54625 7.88625 -6.3125 7.3125 C-4.64103234 4.36753316 -2.44723648 2.31843456 0 0 Z " fill="#5B2650" transform="translate(35,30)"/>
<path d="M0 0 C6.92334988 -0.07595711 13.84659263 -0.12856051 20.77026367 -0.16479492 C23.12642431 -0.17989747 25.48255677 -0.20038091 27.83862305 -0.22631836 C31.22191312 -0.26263656 34.60483208 -0.27971167 37.98828125 -0.29296875 C39.57277824 -0.31619453 39.57277824 -0.31619453 41.18928528 -0.33988953 C42.66047066 -0.34022942 42.66047066 -0.34022942 44.16137695 -0.34057617 C45.45710381 -0.35056892 45.45710381 -0.35056892 46.77900696 -0.36076355 C49.49078879 0.07972051 50.3466164 0.84698751 52 3 C52.6875 5.1875 52.6875 5.1875 53 7 C52.34 7 51.68 7 51 7 C50.505 6.01 50.505 6.01 50 5 C48.68 5 47.36 5 46 5 C45.505 3.02 45.505 3.02 45 1 C30.15 1 15.3 1 0 1 C0 0.67 0 0.34 0 0 Z " fill="#F368E9" transform="translate(77,144)"/>
<path d="M0 0 C0.66 0.33 1.32 0.66 2 1 C2.30535107 13.1461869 1.38403895 24.93908911 0 37 C-0.33 37 -0.66 37 -1 37 C-1.02921779 32.97918212 -1.04687188 28.95839186 -1.0625 24.9375 C-1.07087891 23.80376953 -1.07925781 22.67003906 -1.08789062 21.50195312 C-1.10424847 15.89121133 -1.01812097 10.52350669 0 5 C-0.66 4.67 -1.32 4.34 -2 4 C-1.34 2.68 -0.68 1.36 0 0 Z " fill="#6B3D5F" transform="translate(498,369)"/>
<path d="M0 0 C3 1 3 1 4.75 3.6875 C6.14124787 7.37430684 5.98410592 9.24250465 5 13 C4.67 12.01 4.34 11.02 4 10 C3.38125 10.185625 2.7625 10.37125 2.125 10.5625 C0 11 0 11 -2 10 C-1.67 9.34 -1.34 8.68 -1 8 C-1 6.47902398 -1.02541405 4.95802382 -1.0625 3.4375 C-1 1 -1 1 0 0 Z " fill="#500540" transform="translate(130,247)"/>
<path d="M0 0 C1.98 0.66 3.96 1.32 6 2 C5.67 2.66 5.34 3.32 5 4 C-9.85 3.67 -24.7 3.34 -40 3 C-40 2.67 -40 2.34 -40 2 C-38.82381104 1.97494385 -37.64762207 1.9498877 -36.43579102 1.92407227 C-32.08785378 1.83017194 -27.74008284 1.72990952 -23.39233398 1.62768555 C-21.50760782 1.58427067 -19.62284064 1.54260057 -17.73803711 1.50268555 C-15.03486751 1.44514107 -12.33190564 1.38140196 -9.62890625 1.31640625 C-8.78099014 1.29969376 -7.93307404 1.28298126 -7.0594635 1.26576233 C-3.21707924 1.53590805 -3.21707924 1.53590805 0 0 Z " fill="#570049" transform="translate(419,122)"/>
<path d="M0 0 C0 0.99 0 1.98 0 3 C-5.61 3 -11.22 3 -17 3 C-17.33 3.66 -17.66 4.32 -18 5 C-19.32 5 -20.64 5 -22 5 C-22 4.34 -22 3.68 -22 3 C-23.32 2.67 -24.64 2.34 -26 2 C-17.26047454 0.55203128 -8.86088167 -0.29211698 0 0 Z " fill="#5F3052" transform="translate(114,1)"/>
<path d="M0 0 C9 10.66666667 9 10.66666667 9 15 C8.236875 14.835 7.47375 14.67 6.6875 14.5 C3.96403764 13.90854604 3.96403764 13.90854604 1 14 C1.020625 12.989375 1.04125 11.97875 1.0625 10.9375 C1.00312266 7.19672743 0.60204915 3.68755102 0 0 Z " fill="#EB5EE1" transform="translate(224,295)"/>
<path d="M0 0 C14.52 0 29.04 0 44 0 C43.67 0.66 43.34 1.32 43 2 C41.8039917 1.98952637 40.6079834 1.97905273 39.37573242 1.96826172 C34.94216907 1.93208595 30.50861879 1.90910834 26.07495117 1.89013672 C24.15533251 1.88007361 22.23572919 1.86642184 20.31616211 1.84912109 C17.55839248 1.82488636 14.80082536 1.81352008 12.04296875 1.8046875 C11.18350143 1.79436493 10.32403412 1.78404236 9.43852234 1.77340698 C8.63791885 1.77325592 7.83731537 1.77310486 7.01245117 1.77294922 C6.3085173 1.768508 5.60458344 1.76406677 4.87931824 1.75949097 C2.6666762 1.90112227 2.6666762 1.90112227 0 4 C0 2.68 0 1.36 0 0 Z " fill="#F666EC" transform="translate(379,126)"/>
<path d="M0 0 C1.175625 0.33 2.35125 0.66 3.5625 1 C12.78495038 3.05754035 22.71736163 2.5155328 32 1 C31.67 1.99 31.34 2.98 31 4 C27.33340185 4.05864392 23.66692636 4.09381108 20 4.125 C18.45505859 4.15013672 18.45505859 4.15013672 16.87890625 4.17578125 C10.87544845 4.21401983 5.7484493 3.75493524 0 2 C0 1.34 0 0.68 0 0 Z " fill="#E760DC" transform="translate(346,329)"/>
<path d="M0 0 C1.18751276 4.03927698 0.78932202 6.11016953 -1 10 C-2.4721059 11.65211886 -4.00557419 13.1369766 -5.66015625 14.60546875 C-7.26322689 16.074282 -7.26322689 16.074282 -8 19 C-8.66 19 -9.32 19 -10 19 C-8.40376856 14.60616294 -6.21975667 10.71004193 -3.875 6.6875 C-3.50246094 6.04232422 -3.12992187 5.39714844 -2.74609375 4.73242188 C-1.83367787 3.15324055 -0.91724491 1.57638136 0 0 Z " fill="#ED5FE3" transform="translate(100,317)"/>
<path d="M0 0 C0.66 0 1.32 0 2 0 C0.2657267 4.97357688 -2.43327957 9.31498953 -5.125 13.8125 C-5.59292969 14.60076172 -6.06085938 15.38902344 -6.54296875 16.20117188 C-7.69215397 18.13602454 -8.84457003 20.06887228 -10 22 C-11 19 -11 19 -9.5625 15.8125 C-9.046875 14.884375 -8.53125 13.95625 -8 13 C-7.34 13 -6.68 13 -6 13 C-5.8453125 11.6696875 -5.8453125 11.6696875 -5.6875 10.3125 C-4.98284093 6.9173245 -4.0445434 4.78057902 -2 2 C-1.34 2 -0.68 2 0 2 C0 1.34 0 0.68 0 0 Z " fill="#600653" transform="translate(113,292)"/>
<path d="M0 0 C0.33 0 0.66 0 1 0 C1.02698189 1.62490954 1.04638757 3.24994633 1.0625 4.875 C1.07410156 5.77992188 1.08570313 6.68484375 1.09765625 7.6171875 C1 10 1 10 0 12 C-0.08372659 13.52148326 -0.10730027 15.04655778 -0.09765625 16.5703125 C-0.09443359 17.46621094 -0.09121094 18.36210937 -0.08789062 19.28515625 C-0.07951172 20.22230469 -0.07113281 21.15945313 -0.0625 22.125 C-0.05798828 23.06988281 -0.05347656 24.01476562 -0.04882812 24.98828125 C-0.03702357 27.32558387 -0.02055759 29.66276061 0 32 C-0.33 32 -0.66 32 -1 32 C-2.21298921 27.23537838 -2.18370055 22.56979127 -2.1875 17.6875 C-2.19974609 16.87087891 -2.21199219 16.05425781 -2.22460938 15.21289062 C-2.23753496 9.80568635 -1.51209673 5.19372356 0 0 Z " fill="#6C0D5D" transform="translate(320,266)"/>
<path d="M0 0 C1.14864928 3.95935925 0.88397934 6.94842803 0 11 C-1.4375 12.9375 -1.4375 12.9375 -3 14 C-3.66 14 -4.32 14 -5 14 C-5 14.66 -5 15.32 -5 16 C-5.66 16 -6.32 16 -7 16 C-5.35433477 10.31497465 -2.70967216 5.23318364 0 0 Z " fill="#E85EDD" transform="translate(181,205)"/>
<path d="M0 0 C1.32 0.33 2.64 0.66 4 1 C4 1.66 4 2.32 4 3 C4.66 3 5.32 3 6 3 C8.5393228 6.41831915 9.3636198 8.75776898 9 13 C8.01 13.495 8.01 13.495 7 14 C5.82807953 12.04480616 4.6626071 10.0857461 3.5 8.125 C2.8503125 7.03445313 2.200625 5.94390625 1.53125 4.8203125 C0 2 0 2 0 0 Z " fill="#58044A" transform="translate(222,290)"/>
<path d="M0 0 C5.58333333 1.45652174 5.58333333 1.45652174 7.4375 3.875 C8.08353007 6.31555804 7.84051229 7.64656559 7 10 C5.02 6.535 5.02 6.535 3 3 C2.3503125 3.86625 2.3503125 3.86625 1.6875 4.75 C0.125 6.83333333 -1.4375 8.91666667 -3 11 C-2.88590407 9.54077307 -2.75834456 8.08259402 -2.625 6.625 C-2.55539063 5.81289063 -2.48578125 5.00078125 -2.4140625 4.1640625 C-2 2 -2 2 0 0 Z " fill="#E75DDB" transform="translate(164,283)"/>
<path d="M0 0 C0.66 0 1.32 0 2 0 C2.268125 0.804375 2.53625 1.60875 2.8125 2.4375 C3.204375 3.283125 3.59625 4.12875 4 5 C4.99 5.33 5.98 5.66 7 6 C7.33 6.99 7.66 7.98 8 9 C8.969375 9.474375 9.93875 9.94875 10.9375 10.4375 C14.10211637 12.05210019 14.87470028 12.73663082 16 16 C11.17170572 14.51299286 8.2512231 11.78716744 4.6875 8.375 C4.13771484 7.859375 3.58792969 7.34375 3.02148438 6.8125 C1.67501946 5.54799382 0.33667465 4.27485078 -1 3 C-0.67 2.01 -0.34 1.02 0 0 Z " fill="#DF5BD4" transform="translate(290,342)"/>
<path d="M0 0 C0.33 0 0.66 0 1 0 C1.40579271 5.68109793 0.09152613 9.49016864 -3.5625 13.875 C-5 15 -5 15 -7 15 C-5.45454854 9.52067211 -2.84456788 4.88570819 0 0 Z " fill="#550647" transform="translate(159,298)"/>
<path d="M0 0 C1.32 1.32 2.64 2.64 4 4 C3.67 4.66 3.34 5.32 3 6 C2.01 5.34 1.02 4.68 0 4 C0.33 4.99 0.66 5.98 1 7 C0.01 8.485 0.01 8.485 -1 10 C-1.66 10 -2.32 10 -3 10 C-3.33 10.99 -3.66 11.98 -4 13 C-4.66 13 -5.32 13 -6 13 C-4.58707905 8.1725201 -2.57025846 4.2837641 0 0 Z " fill="#5F0650" transform="translate(166,285)"/>
<path d="M0 0 C0.99 0 1.98 0 3 0 C1.59718164 4.46351295 -0.64085042 6.8088079 -4 10 C-4.99 11.485 -4.99 11.485 -6 13 C-6.66 12.34 -7.32 11.68 -8 11 C-2.92913386 3.21259843 -2.92913386 3.21259843 0 0 Z " fill="#552147" transform="translate(25,41)"/>
<path d="M0 0 C0.33 0.66 0.66 1.32 1 2 C3.02463255 2.65213292 3.02463255 2.65213292 5 3 C5 3.66 5 4.32 5 5 C9.455 4.505 9.455 4.505 14 4 C14.33 4.99 14.66 5.98 15 7 C7.88486245 7.53699151 2.55004254 5.69707634 -4 3 C-2.68 2.01 -1.36 1.02 0 0 Z " fill="#5E3052" transform="translate(71,488)"/>
<path d="M0 0 C1.5778125 0.23009766 1.5778125 0.23009766 3.1875 0.46484375 C9.10455276 1.20447535 15.04502033 1.35445088 21 1.5625 C22.15628906 1.60568359 23.31257813 1.64886719 24.50390625 1.69335938 C27.33583854 1.79867917 30.16784747 1.90081087 33 2 C33 2.33 33 2.66 33 3 C28.78250781 3.07419134 24.56536189 3.1286204 20.34741211 3.16479492 C18.91277448 3.17987589 17.47818292 3.2003438 16.04370117 3.22631836 C13.98084141 3.26273437 11.91859142 3.27973243 9.85546875 3.29296875 C8.61434326 3.3086792 7.37321777 3.32438965 6.09448242 3.34057617 C3 3 3 3 1.0715332 1.48168945 C0.71792725 0.99273193 0.36432129 0.50377441 0 0 Z " fill="#7F1C75" transform="translate(335,370)"/>
<path d="M0 0 C-4.78023587 4.15672685 -10.68147308 7 -17 7 C-17 6.34 -17 5.68 -17 5 C-15.35 5 -13.7 5 -12 5 C-12 4.34 -12 3.68 -12 3 C-11.34 3 -10.68 3 -10 3 C-10 2.34 -10 1.68 -10 1 C-6.1496895 -1.56687367 -4.41430237 -0.83288724 0 0 Z " fill="#693A5B" transform="translate(442,486)"/>
<path d="M0 0 C3.28465896 2.79196011 5.01321958 6.23196817 7 10 C7 10.66 7 11.32 7 12 C5.02 11.34 3.04 10.68 1 10 C0.37542727 6.56484998 0 3.50935186 0 0 Z " fill="#5C054D" transform="translate(105,202)"/>
<path d="M0 0 C0.66 0 1.32 0 2 0 C2 0.66 2 1.32 2 2 C2.66 2 3.32 2 4 2 C4 2.99 4 3.98 4 5 C4.99 5 5.98 5 7 5 C7.33 7.31 7.66 9.62 8 12 C8.66 12 9.32 12 10 12 C9.67 13.32 9.34 14.64 9 16 C7.49734474 13.5224077 5.99777081 11.04304235 4.5 8.5625 C4.07074219 7.85544922 3.64148438 7.14839844 3.19921875 6.41992188 C0 1.11328125 0 1.11328125 0 0 Z " fill="#E560DA" transform="translate(93,180)"/>
<path d="M0 0 C0.84119973 2.39957614 1.11193544 3.64922558 0.328125 6.10546875 C-0.02765625 6.79253906 -0.3834375 7.47960937 -0.75 8.1875 C-1.26820312 9.22970703 -1.26820312 9.22970703 -1.796875 10.29296875 C-3 12 -3 12 -6 13 C-6 13.66 -6 14.32 -6 15 C-6.66 15 -7.32 15 -8 15 C-6.62712658 11.30123909 -4.93644547 8.0485524 -2.875 4.6875 C-2.33617188 3.80449219 -1.79734375 2.92148437 -1.2421875 2.01171875 C-0.83226563 1.34785156 -0.42234375 0.68398438 0 0 Z " fill="#E75ED9" transform="translate(112,297)"/>
<path d="M0 0 C0.66 0.66 1.32 1.32 2 2 C1.60467975 4.45098556 0.78698574 6.63904279 0 9 C-0.66 9 -1.32 9 -2 9 C-1.95875 9.886875 -1.9175 10.77375 -1.875 11.6875 C-1.99897246 14.97277013 -2.61387904 17.05449295 -4 20 C-4.97812873 16.94371936 -5.00835683 15.14722553 -4.00390625 12.109375 C-3.77509766 11.40039062 -3.54628906 10.69140625 -3.31054688 9.9609375 C-3.06369141 9.23132813 -2.81683594 8.50171875 -2.5625 7.75 C-2.19801758 6.63238281 -2.19801758 6.63238281 -1.82617188 5.4921875 C-1.22667019 3.65841765 -0.61455513 1.82877996 0 0 Z " fill="#DE59D3" transform="translate(277,248)"/>
<path d="M0 0 C1 3 1 3 -0.07421875 5.5234375 C-5.47294017 15.06597173 -5.47294017 15.06597173 -9 19 C-9.66 18.67 -10.32 18.34 -11 18 C-10.70230713 17.52578613 -10.40461426 17.05157227 -10.09790039 16.56298828 C-8.75182845 14.41757934 -7.40714859 12.2713013 -6.0625 10.125 C-5.59392578 9.37863281 -5.12535156 8.63226563 -4.64257812 7.86328125 C-4.19462891 7.14785156 -3.74667969 6.43242187 -3.28515625 5.6953125 C-2.66459351 4.7055542 -2.66459351 4.7055542 -2.03149414 3.69580078 C-0.95427126 1.97748532 -0.95427126 1.97748532 0 0 Z " fill="#68095A" transform="translate(261,147)"/>
<path d="M0 0 C0.33 0.66 0.66 1.32 1 2 C0.07421875 3.8046875 0.07421875 3.8046875 -1.3125 5.875 C-3.0682105 8.52114248 -4.630563 11.13254037 -6 14 C-6.66 14 -7.32 14 -8 14 C-8.33 15.32 -8.66 16.64 -9 18 C-9.33 17.34 -9.66 16.68 -10 16 C-7.45213641 10.24646076 -4.20782635 4.69334478 0 0 Z " fill="#690A5C" transform="translate(331,248)"/>
<path d="M0 0 C-0.185625 1.03125 -0.37125 2.0625 -0.5625 3.125 C-0.97307082 6.76148442 -0.778309 9.45437009 0 13 C-2.86453858 9.58983503 -4.34703566 6.09305456 -6 2 C-2.25 0 -2.25 0 0 0 Z " fill="#EC5FE2" transform="translate(206,345)"/>
<path d="M0 0 C2.81256281 -0.02684312 5.62487241 -0.04676188 8.4375 -0.0625 C9.23994141 -0.07087891 10.04238281 -0.07925781 10.86914062 -0.08789062 C12.91295221 -0.0965143 14.95683902 -0.0522815 17 0 C18 1 18 1 18.0625 4.5625 C18.041875 5.696875 18.02125 6.83125 18 8 C17.67 8 17.34 8 17 8 C17 6.35 17 4.7 17 3 C11.39 2.34 5.78 1.68 0 1 C0 0.67 0 0.34 0 0 Z " fill="#E860DD" transform="translate(362,233)"/>
<path d="M0 0 C5.34844008 0.53484401 9.35796103 2.46690767 14 5 C14 5.33 14 5.66 14 6 C10.625 6.1875 10.625 6.1875 7 6 C6.34 5.01 5.68 4.02 5 3 C2.43717258 2.27034634 2.43717258 2.27034634 0 2 C0 1.34 0 0.68 0 0 Z " fill="#612E53" transform="translate(425,7)"/>
<path d="M0 0 C0.66 0.33 1.32 0.66 2 1 C-0.64 5.62 -3.28 10.24 -6 15 C-6.33 14.01 -6.66 13.02 -7 12 C-6.04504326 10.30712215 -5.0409066 8.64142963 -4 7 C-3.30420546 4.80869466 -3.30420546 4.80869466 -3 3 C-2.34 3 -1.68 3 -1 3 C-0.67 2.01 -0.34 1.02 0 0 Z " fill="#E961DF" transform="translate(242,176)"/>
<path d="M0 0 C0.66 0.66 1.32 1.32 2 2 C1.625 4.625 1.625 4.625 1 7 C0.01 7.33 -0.98 7.66 -2 8 C-2 8.66 -2 9.32 -2 10 C-2.99 10.33 -3.98 10.66 -5 11 C-3.55049545 7.2089881 -1.84827434 3.6125362 0 0 Z " fill="#660958" transform="translate(132,349)"/>
<path d="M0 0 C5.47112462 -0.36474164 5.47112462 -0.36474164 7.8125 1.25 C9.11258722 3.16591802 9.60856977 4.72970466 10 7 C9.34 7 8.68 7 8 7 C7.67 6.34 7.34 5.68 7 5 C5.68 5 4.36 5 3 5 C2.87625 4.360625 2.7525 3.72125 2.625 3.0625 C2.315625 2.0415625 2.315625 2.0415625 2 1 C1.34 0.67 0.68 0.34 0 0 Z " fill="#EB60E1" transform="translate(120,144)"/>
<path d="M0 0 C0.33 0 0.66 0 1 0 C1.19294408 4.82360189 0.75747614 8.49646738 -1 13 C-1.99 11.68 -2.98 10.36 -4 9 C-2.68 6.03 -1.36 3.06 0 0 Z " fill="#633656" transform="translate(494,415)"/>
<path d="M0 0 C0.99 0.33 1.98 0.66 3 1 C0.69 4.96 -1.62 8.92 -4 13 C-4.66 11.68 -5.32 10.36 -6 9 C-4.68 8.34 -3.36 7.68 -2 7 C-2 6.01 -2 5.02 -2 4 C-1.34 4 -0.68 4 0 4 C0 2.68 0 1.36 0 0 Z " fill="#5B0550" transform="translate(98,316)"/>
<path d="M0 0 C0.33 1.32 0.66 2.64 1 4 C0.34 4 -0.32 4 -1 4 C-1 5.65 -1 7.3 -1 9 C-2.98 9.99 -2.98 9.99 -5 11 C-5 11.99 -5 12.98 -5 14 C-5.66 14 -6.32 14 -7 14 C-5.23570801 9.02790438 -2.6060834 4.56561939 0 0 Z " fill="#DE57D1" transform="translate(123,278)"/>
<path d="M0 0 C0.66 0 1.32 0 2 0 C4.29648649 2.5614657 5 3.47967572 5 7 C5.99 7.33 6.98 7.66 8 8 C8.33 10.31 8.66 12.62 9 15 C5.96343083 12.4011345 4.53836261 9.37928272 2.8125 5.8125 C2.28269531 4.72582031 1.75289063 3.63914063 1.20703125 2.51953125 C0.80871094 1.68808594 0.41039063 0.85664063 0 0 Z " fill="#E660DB" transform="translate(84,164)"/>
<path d="M0 0 C1.60495567 0.11442461 3.20898119 0.24194694 4.8125 0.375 C5.70582031 0.44460938 6.59914063 0.51421875 7.51953125 0.5859375 C10 1 10 1 13 3 C13 3.66 13 4.32 13 5 C8.39146203 4.27991594 4.32762591 2.68704061 0 1 C0 0.67 0 0.34 0 0 Z " fill="#DE5AD3" transform="translate(312,362)"/>
<path d="M0 0 C2.77398263 3.46747828 4.95912413 7.06402511 7 11 C6.67 11.66 6.34 12.32 6 13 C4 12 4 12 2.875 8.9375 C2.441875 7.4834375 2.441875 7.4834375 2 6 C1.34 6 0.68 6 0 6 C0 4.02 0 2.04 0 0 Z " fill="#630756" transform="translate(185,319)"/>
<path d="M0 0 C0.99 0.33 1.98 0.66 3 1 C1.625 2.5 1.625 2.5 0 4 C-0.66 4 -1.32 4 -2 4 C-2.268125 4.61875 -2.53625 5.2375 -2.8125 5.875 C-4 8 -4 8 -7 10 C-7 9.01 -7 8.02 -7 7 C-6.34 7 -5.68 7 -5 7 C-4.731875 6.21625 -4.46375 5.4325 -4.1875 4.625 C-3 2 -3 2 0 0 Z " fill="#640B56" transform="translate(297,217)"/>
<path d="M0 0 C1.32 0.66 2.64 1.32 4 2 C0.04 3.98 -3.92 5.96 -8 8 C-8 7.34 -8 6.68 -8 6 C-7.34 6 -6.68 6 -6 6 C-5.67 5.01 -5.34 4.02 -5 3 C-4.01 3 -3.02 3 -2 3 C-2 2.34 -2 1.68 -2 1 C-1.34 0.67 -0.68 0.34 0 0 Z " fill="#5F0552" transform="translate(318,202)"/>
<path d="M0 0 C0.93065133 2.60582371 1.14917407 3.64198224 0.0625 6.25 C-0.4634375 7.11625 -0.4634375 7.11625 -1 8 C-1.66 8 -2.32 8 -3 8 C-3 9.65 -3 11.3 -3 13 C-3.99 13 -4.98 13 -6 13 C-4.58707905 8.1725201 -2.57025846 4.2837641 0 0 Z " fill="#DB59D1" transform="translate(195,178)"/>
<path d="M0 0 C0.66 0 1.32 0 2 0 C0.58707905 4.8274799 -1.42974154 8.7162359 -4 13 C-4.66 12.67 -5.32 12.34 -6 12 C-4.43358249 7.69235185 -2.31663844 3.93828536 0 0 Z " fill="#5D044D" transform="translate(202,161)"/>
<path d="M0 0 C0.64453125 1.765625 0.64453125 1.765625 1 4 C0.07421875 5.921875 0.07421875 5.921875 -1.3125 7.75 C-1.98732422 8.67039062 -1.98732422 8.67039062 -2.67578125 9.609375 C-3.11277344 10.06828125 -3.54976563 10.5271875 -4 11 C-4.66 11 -5.32 11 -6 11 C-4.54955729 6.89041233 -2.48889248 3.56741255 0 0 Z " fill="#E15BD6" transform="translate(85,343)"/>
<path d="M0 0 C-1.09898702 3.29696105 -1.94597387 4.04670589 -4.5625 6.1875 C-5.20316406 6.71730469 -5.84382812 7.24710938 -6.50390625 7.79296875 C-6.99761719 8.19128906 -7.49132812 8.58960938 -8 9 C-8 5.37546731 -7.07530387 3.92079805 -5 1 C-2 0 -2 0 0 0 Z " fill="#580447" transform="translate(255,165)"/>
<path d="M0 0 C4.29 0 8.58 0 13 0 C12.67 0.99 12.34 1.98 12 3 C8.20731707 4.26422764 6.70731707 3.23577236 3 2 C2.01 1.34 1.02 0.68 0 0 Z " fill="#3F022F" transform="translate(387,2)"/>
<path d="M0 0 C3.46566434 5.19849651 5.46188968 9.68750771 5 16 C2.70311431 13.70311431 2.28148697 12.21071829 1.375 9.125 C1.11460937 8.26132812 0.85421875 7.39765625 0.5859375 6.5078125 C0 4 0 4 0 0 Z " fill="#E65FD9" transform="translate(274,312)"/>
<path d="M0 0 C0.99 0.33 1.98 0.66 3 1 C4.62323754 4.75907641 5.23994929 7.92086213 5 12 C1.66226291 8.35883227 1.02135098 4.71392758 0 0 Z " fill="#5F064F" transform="translate(320,298)"/>
<path d="M0 0 C0.33 0.99 0.66 1.98 1 3 C0.071875 3.763125 -0.85625 4.52625 -1.8125 5.3125 C-3.98276101 7.11848552 -6.05568065 8.9476629 -8 11 C-8.66 10.67 -9.32 10.34 -10 10 C-3.84965831 2.51708428 -3.84965831 2.51708428 0 0 Z " fill="#E75FDA" transform="translate(299,218)"/>
<path d="M0 0 C0.33 0.99 0.66 1.98 1 3 C1.66 3.33 2.32 3.66 3 4 C1.68 7.63 0.36 11.26 -1 15 C-1.33 15 -1.66 15 -2 15 C-1.03644647 4.44191344 -1.03644647 4.44191344 0 0 Z " fill="#6C3F5F" transform="translate(5,78)"/>
<path d="M0 0 C0.9435441 2.53899138 1.16906025 3.60909275 0.07421875 6.140625 C-0.61220703 7.18476563 -0.61220703 7.18476563 -1.3125 8.25 C-1.76238281 8.95640625 -2.21226563 9.6628125 -2.67578125 10.390625 C-3.11277344 10.92171875 -3.54976563 11.4528125 -4 12 C-4.66 12 -5.32 12 -6 12 C-4.43358249 7.69235185 -2.31663844 3.93828536 0 0 Z " fill="#DD5CD3" transform="translate(100,317)"/>
<path d="M0 0 C0.66 0.33 1.32 0.66 2 1 C0.02 4.63 -1.96 8.26 -4 12 C-5 8 -5 8 -4.00390625 5.859375 C-3.52824219 5.16328125 -3.05257812 4.4671875 -2.5625 3.75 C-2.08941406 3.04359375 -1.61632812 2.3371875 -1.12890625 1.609375 C-0.75636719 1.07828125 -0.38382812 0.5471875 0 0 Z " fill="#5E044D" transform="translate(120,280)"/>
<path d="M0 0 C-8.261959 4.59225513 -8.261959 4.59225513 -13 4 C-11.72807637 1.45615274 -10.80051531 1.30631844 -8.1875 0.3125 C-7.50042969 0.04050781 -6.81335938 -0.23148438 -6.10546875 -0.51171875 C-3.70623504 -1.06812731 -2.3105636 -0.77364938 0 0 Z " fill="#67095A" transform="translate(357,236)"/>
<path d="M0 0 C0.33 0 0.66 0 1 0 C1.25 2.75 1.25 2.75 1 6 C-1 8.375 -1 8.375 -3 10 C-3.66 9.67 -4.32 9.34 -5 9 C-3.35 6.03 -1.7 3.06 0 0 Z " fill="#600951" transform="translate(219,218)"/>
<path d="M0 0 C2.61885488 2.36944013 4.41866551 4.83733102 6 8 C5.67 8.99 5.34 9.98 5 11 C1.87729874 8.48169253 1.05476902 7.2738451 0.25 3.25 C0.1675 2.1775 0.085 1.105 0 0 Z " fill="#610953" transform="translate(97,188)"/>
<path d="M0 0 C2.5 1.375 2.5 1.375 5 3 C5 3.66 5 4.32 5 5 C5.66 5.33 6.32 5.66 7 6 C5.68 6.99 4.36 7.98 3 9 C0 3.375 0 3.375 0 0 Z " fill="#653158" transform="translate(456,23)"/>
<path d="M0 0 C-1.33333333 0.66666667 -2.66666667 1.33333333 -4 2 C-4.928125 2.556875 -4.928125 2.556875 -5.875 3.125 C-8.65367042 4.26915841 -11.02626695 4.13516968 -14 4 C-8.94212432 0.62808288 -6.22090367 -0.23926553 0 0 Z " fill="#613153" transform="translate(76,8)"/>
<path d="M0 0 C2 1 4 2 6 3 C6 4.65 6 6.3 6 8 C5.01 8.495 5.01 8.495 4 9 C0 2.25 0 2.25 0 0 Z " fill="#5A034C" transform="translate(255,345)"/>
<path d="M0 0 C0.33 0 0.66 0 1 0 C1 1.65 1 3.3 1 5 C0.34 5 -0.32 5 -1 5 C-1.2165625 6.175625 -1.2165625 6.175625 -1.4375 7.375 C-2 10 -2 10 -3 12 C-3.66 12 -4.32 12 -5 12 C-3.68938409 7.76570244 -2.05643741 3.92592596 0 0 Z " fill="#630956" transform="translate(141,332)"/>
<path d="M0 0 C0.99 0.33 1.98 0.66 3 1 C3.6875 3.0625 3.6875 3.0625 4 5 C4.66 5 5.32 5 6 5 C6 6.98 6 8.96 6 11 C0 3.28571429 0 3.28571429 0 0 Z " fill="#E65DDB" transform="translate(181,310)"/>
<path d="M0 0 C0 0.99 0 1.98 0 3 C-0.99 3 -1.98 3 -3 3 C-3.33 3.99 -3.66 4.98 -4 6 C-5.65 6 -7.3 6 -9 6 C-3.15384615 0 -3.15384615 0 0 0 Z " fill="#E95FDB" transform="translate(313,209)"/>
<path d="M0 0 C0.66 0 1.32 0 2 0 C0.41037341 4.03520597 -1.28232318 8.01811282 -3 12 C-3.33 12 -3.66 12 -4 12 C-4.50130606 6.73628638 -3.31168629 4.0909066 0 0 Z " fill="#5F0452" transform="translate(192,180)"/>
<path d="M0 0 C0.99 0.33 1.98 0.66 3 1 C1.35 4.3 -0.3 7.6 -2 11 C-2.33 11 -2.66 11 -3 11 C-2.53199289 6.94393835 -2.12046792 3.53411321 0 0 Z " fill="#5E044F" transform="translate(210,144)"/>
<path d="M0 0 C0.33 1.32 0.66 2.64 1 4 C0.34 4 -0.32 4 -1 4 C-1.33 4.99 -1.66 5.98 -2 7 C-2.33 6.01 -2.66 5.02 -3 4 C-3.99 3.67 -4.98 3.34 -6 3 C-6 2.67 -6 2.34 -6 2 C-4.02 1.34 -2.04 0.68 0 0 Z " fill="#5F2A53" transform="translate(473,457)"/>
<path d="M0 0 C0.99 0 1.98 0 3 0 C2.67 1.65 2.34 3.3 2 5 C3.32 5.66 4.64 6.32 6 7 C5.01 7.99 4.02 8.98 3 10 C0 3.375 0 3.375 0 0 Z " fill="#734366" transform="translate(8,428)"/>
<path d="M0 0 C1.65 1.65 3.3 3.3 5 5 C4.34 6.32 3.68 7.64 3 9 C2.01 9 1.02 9 0 9 C0.185625 8.071875 0.37125 7.14375 0.5625 6.1875 C1.24123881 2.98656229 1.24123881 2.98656229 0 0 Z " fill="#E45ADA" transform="translate(324,310)"/>
<path d="M0 0 C1.32 0.33 2.64 0.66 4 1 C4.77321882 3.98241547 5.41196203 6.97580475 6 10 C3.38275905 7.63202009 1.67138271 5.10399646 0 2 C0 1.34 0 0.68 0 0 Z " fill="#5F0450" transform="translate(203,258)"/>
<path d="M0 0 C4.37934119 0.51958285 8.68803391 1.05675742 13 2 C13 2.33 13 2.66 13 3 C11.39667209 3.08121924 9.79215974 3.13929134 8.1875 3.1875 C7.29417969 3.22230469 6.40085937 3.25710938 5.48046875 3.29296875 C2.58352485 2.95081002 1.77444972 2.24606427 0 0 Z " fill="#6E0D64" transform="translate(335,370)"/>
<path d="M0 0 C0.66 1.32 1.32 2.64 2 4 C0.71937515 5.7074998 -0.61767557 7.37373596 -2 9 C-2.66 9 -3.32 9 -4 9 C-2.80100302 5.9168649 -1.52299523 2.93720508 0 0 Z " fill="#620852" transform="translate(213,228)"/>
<path d="M0 0 C5.09659478 2.54829739 5.10871914 3.89354167 7 9 C6.01 9.495 6.01 9.495 5 10 C3.35 6.7 1.7 3.4 0 0 Z " fill="#5D044D" transform="translate(142,175)"/>
<path d="M0 0 C0.33 0.66 0.66 1.32 1 2 C0.06421005 4.35981813 -0.93347808 6.69631264 -2 9 C-2.99 8.34 -3.98 7.68 -5 7 C-1.125 1.125 -1.125 1.125 0 0 Z " fill="#704667" transform="translate(22,45)"/>
<path d="M0 0 C3 1 3 1 4.6875 4.0625 C5.120625 5.031875 5.55375 6.00125 6 7 C5.34 7.66 4.68 8.32 4 9 C0 2.25 0 2.25 0 0 Z " fill="#E560D9" transform="translate(206,358)"/>
<path d="M0 0 C0.33 0 0.66 0 1 0 C1.25532751 3.06393013 1.21861333 4.63233212 -0.375 7.3125 C-1.179375 8.1478125 -1.179375 8.1478125 -2 9 C-2.66 9 -3.32 9 -4 9 C-2.94124926 5.59687262 -1.99097846 2.98646769 0 0 Z " fill="#6C0D5D" transform="translate(148,319)"/>
<path d="M0 0 C0.66 0.33 1.32 0.66 2 1 C-0.475 5.455 -0.475 5.455 -3 10 C-4.2077558 6.37673261 -3.54311128 5.35853631 -2 2 C-1.34 2 -0.68 2 0 2 C0 1.34 0 0.68 0 0 Z " fill="#E661DB" transform="translate(159,295)"/>
<path d="M0 0 C2.99324263 1.0975223 3.84610901 1.67682892 5.25 4.625 C5.4975 5.40875 5.745 6.1925 6 7 C5.01 7 4.02 7 3 7 C2.01 4.69 1.02 2.38 0 0 Z " fill="#610754" transform="translate(217,282)"/>
<path d="M0 0 C2.25245881 2.68841859 3.88213958 4.64641875 5 8 C3.68 7.67 2.36 7.34 1 7 C0.67 4.69 0.34 2.38 0 0 Z " fill="#E55EDA" transform="translate(215,280)"/>
<path d="M0 0 C1.32 0.33 2.64 0.66 4 1 C2.35 3.64 0.7 6.28 -1 9 C-1.33 7.68 -1.66 6.36 -2 5 C-1.34 5 -0.68 5 0 5 C0 3.35 0 1.7 0 0 Z " fill="#630655" transform="translate(124,271)"/>
<path d="M0 0 C0.66 1.32 1.32 2.64 2 4 C1.525625 4.45375 1.05125 4.9075 0.5625 5.375 C-1.09027808 6.93258204 -1.09027808 6.93258204 -2 9 C-2.66 9 -3.32 9 -4 9 C-2.94124926 5.59687262 -1.99097846 2.98646769 0 0 Z " fill="#690A5B" transform="translate(242,179)"/>
<path d="M0 0 C0.96706319 3.00864103 1.27677226 5.05360248 0 8 C-2.0625 9.25 -2.0625 9.25 -4 10 C-2.8905928 6.51329166 -1.73662334 3.22515763 0 0 Z " fill="#DD5BD3" transform="translate(212,145)"/>
<path d="M0 0 C2 1 2 1 3.125 4.0625 C3.41375 5.031875 3.7025 6.00125 4 7 C2.35 6.67 0.7 6.34 -1 6 C-1 3 -1 3 0 0 Z " fill="#6E3A60" transform="translate(485,57)"/>
<path d="M0 0 C2.625 0.9375 2.625 0.9375 5 2 C5 2.99 5 3.98 5 5 C2.08482708 3.92598892 0.22189824 3.22189824 -2 1 C-1.34 0.67 -0.68 0.34 0 0 Z " fill="#6C3E63" transform="translate(55,482)"/>
<path d="M0 0 C2.01822917 0.06510417 4.03645833 0.13020833 6.0546875 0.1953125 C4.9921875 1.7578125 4.9921875 1.7578125 3.0546875 3.1953125 C-0.6328125 2.8828125 -0.6328125 2.8828125 -3.9453125 2.1953125 C-1.9453125 0.1953125 -1.9453125 0.1953125 0 0 Z " fill="#6A0B5D" transform="translate(387.9453125,368.8046875)"/>
<path d="M0 0 C5.94 1.485 5.94 1.485 12 3 C12 3.33 12 3.66 12 4 C8.7 4 5.4 4 2 4 C1.34 2.68 0.68 1.36 0 0 Z " fill="#670758" transform="translate(321,366)"/>
<path d="M0 0 C0.33 0 0.66 0 1 0 C1.3125 2.25 1.3125 2.25 1 5 C-1.5 7.3125 -1.5 7.3125 -4 9 C-2.94124926 5.59687262 -1.99097846 2.98646769 0 0 Z " fill="#6D0F5F" transform="translate(159,298)"/>
<path d="M0 0 C0.99 0.66 1.98 1.32 3 2 C3 2.66 3 3.32 3 4 C-0.46153846 7 -0.46153846 7 -3 7 C-1.125 2.25 -1.125 2.25 0 0 Z " fill="#E95BDF" transform="translate(131,265)"/>
<path d="M0 0 C0.33 0 0.66 0 1 0 C1.1875 2.875 1.1875 2.875 1 6 C0.01 6.66 -0.98 7.32 -2 8 C-2.66 7.67 -3.32 7.34 -4 7 C-2.78948999 4.57897998 -1.4452809 2.28836142 0 0 Z " fill="#DE56D2" transform="translate(173,221)"/>
<path d="M0 0 C1.32 0.33 2.64 0.66 4 1 C2.1875 3 2.1875 3 0 5 C-0.99 5 -1.98 5 -3 5 C-3 4.34 -3 3.68 -3 3 C-2.34 3 -1.68 3 -1 3 C-0.67 2.01 -0.34 1.02 0 0 Z " fill="#613356" transform="translate(29,36)"/>
<path d="M0 0 C1.32 0.66 2.64 1.32 4 2 C2.35 3.32 0.7 4.64 -1 6 C-1.625 4.125 -1.625 4.125 -2 2 C-1.34 1.34 -0.68 0.68 0 0 Z " fill="#613055" transform="translate(466,463)"/>
<path d="M0 0 C2.32472205 2.85306797 3.7508258 5.54074837 5 9 C4.34 9 3.68 9 3 9 C3 8.34 3 7.68 3 7 C2.34 7 1.68 7 1 7 C0.67 4.69 0.34 2.38 0 0 Z " fill="#E15DD6" transform="translate(257,350)"/>
<path d="M0 0 C1.74627478 2.61941217 2.38722388 4.03824877 3 7 C1.0625 6.25 1.0625 6.25 -1 5 C-1.75 2.875 -1.75 2.875 -2 1 C-1.34 0.67 -0.68 0.34 0 0 Z " fill="#5F0751" transform="translate(262,353)"/>
<path d="M0 0 C2.52588702 2.36292656 3.88820837 3.66462511 5 7 C3.35 6.67 1.7 6.34 0 6 C0 4.02 0 2.04 0 0 Z " fill="#620754" transform="translate(282,335)"/>
<path d="M0 0 C1.37562854 1.28965176 2.70766393 2.62689293 4 4 C4 4.66 4 5.32 4 6 C2.0625 5.6875 2.0625 5.6875 0 5 C-0.33 4.01 -0.66 3.02 -1 2 C-0.67 1.34 -0.34 0.68 0 0 Z " fill="#650D57" transform="translate(86,169)"/>
<path d="M0 0 C2.15377564 2.62198774 3.40072174 4.64404172 4 8 C2.68 7.67 1.36 7.34 0 7 C0 4.69 0 2.38 0 0 Z " fill="#D957CF" transform="translate(134,160)"/>
<path d="M0 0 C-1.04874998 2.62187494 -1.64931313 3.79371361 -4.125 5.25 C-4.74375 5.4975 -5.3625 5.745 -6 6 C-5.6875 4.125 -5.6875 4.125 -5 2 C-2 0 -2 0 0 0 Z " fill="#ED62E4" transform="translate(212,153)"/>
<path d="M0 0 C0.66 0.99 1.32 1.98 2 3 C0.1875 4.0625 0.1875 4.0625 -2 5 C-2.99 4.67 -3.98 4.34 -5 4 C-3.35 2.68 -1.7 1.36 0 0 Z " fill="#69355E" transform="translate(46,21)"/>
</svg>
