<?xml version="1.0" encoding="UTF-8"?>
<svg version="1.1" xmlns="http://www.w3.org/2000/svg" width="360" height="357">
<path d="M0 0 C1.71258332 -0.00599206 3.42516395 -0.01279916 5.13774109 -0.02035522 C9.7702464 -0.0379552 14.40267772 -0.04270811 19.03521323 -0.0439868 C21.93580939 -0.04541257 24.836387 -0.04969025 27.73697853 -0.05498123 C37.87446909 -0.07346292 48.01190721 -0.08165433 58.14941406 -0.08007812 C67.56918056 -0.07887782 76.98871753 -0.09996328 86.40842599 -0.13156545 C94.52002266 -0.15780019 102.63154471 -0.16844238 110.74318343 -0.16716731 C115.57706238 -0.16665971 120.41073726 -0.17223003 125.24457359 -0.19352341 C129.79606563 -0.21302709 134.34716147 -0.21294821 138.89866829 -0.19849014 C140.558573 -0.19641577 142.21850332 -0.20101999 143.87836456 -0.21321106 C162.33449275 -0.33986414 178.00986651 3.90885124 191.7590332 16.93896484 C206.97170137 32.59371055 210.68246217 51.27395058 210.56176758 72.38842773 C210.56720695 74.02013264 210.57433965 75.65183261 210.58300781 77.28352356 C210.60102737 81.65961047 210.59426388 86.03531434 210.58149147 90.41140676 C210.57125323 95.02431607 210.58078664 99.63719599 210.58703613 104.25010681 C210.59428068 111.99060867 210.58480853 119.73095707 210.56567383 127.47143555 C210.54390356 136.38012485 210.55097052 145.28844788 210.57297945 154.19712836 C210.59121585 161.89110734 210.59365199 169.58497701 210.58322477 177.27897066 C210.57703585 181.854555 210.57602584 186.42996799 210.58937073 191.00554085 C210.60104988 195.30931545 210.59268714 199.61262435 210.5697937 203.91634941 C210.56457057 205.48187874 210.56590835 207.04744828 210.57484436 208.61296082 C210.67790697 228.52682433 205.87482601 246.07449799 191.72387695 260.84912109 C187.52516334 264.6744797 183.0006863 267.54943439 178.04418945 270.29052734 C177.3790332 270.68884766 176.71387695 271.08716797 176.02856445 271.49755859 C164.99647441 277.68572675 152.38165215 277.72981149 140.09326172 277.67871094 C138.42934832 277.68278581 136.76543764 277.68813278 135.10153198 277.69464111 C130.6200311 277.70821284 126.1387395 277.70305811 121.65723538 277.69350386 C116.94327349 277.68585298 112.22932828 277.69296794 107.5153656 277.69766235 C99.6013572 277.70310475 91.68743307 277.69596882 83.7734375 277.68164062 C74.65581044 277.66532271 65.53838477 277.67060253 56.4207626 277.68711984 C48.55960746 277.70078485 40.69851255 277.7026298 32.83734936 277.69480383 C28.15672094 277.69015404 23.47618681 277.68942744 18.79556465 277.6994133 C14.39179172 277.70815389 9.98827542 277.70193326 5.58452988 277.68473053 C3.97945898 277.68080297 2.37436606 277.6818347 0.76930428 277.68851852 C-20.32843692 277.76819516 -36.53426078 272.88388711 -52.1081543 258.27099609 C-66.12327312 243.77166971 -68.42079361 225.57226345 -68.35986328 206.34960938 C-68.36558095 204.69864443 -68.37255054 203.04768344 -68.38066101 201.39672852 C-68.39845393 196.95441812 -68.39745038 192.51230674 -68.39171863 188.06997156 C-68.38860639 184.3427707 -68.39474169 180.61560695 -68.40075737 176.8884114 C-68.41475562 168.08605734 -68.41328079 159.28380042 -68.40185547 150.48144531 C-68.39038022 141.44161504 -68.40445074 132.40208167 -68.43125194 123.3622905 C-68.45350012 115.56222627 -68.46002585 107.76225461 -68.45417553 99.96216094 C-68.45082631 95.3205687 -68.45308406 90.67916662 -68.47042656 86.03760147 C-68.48603988 81.6690465 -68.48178312 77.30092697 -68.46312141 72.93238831 C-68.45947486 71.34266612 -68.46242686 69.75291061 -68.4730072 68.16321945 C-68.59393035 48.46881345 -63.95904403 30.90154006 -49.95581055 16.29052734 C-34.98659045 3.16907035 -19.17477761 -0.01341688 0 0 Z " fill="#FDD02C" transform="translate(102.955810546875,40.70947265625)"/>
<path d="M0 0 C28.44380104 -2.42335539 28.44380104 -2.42335539 35.87109375 2.625 C39.08716252 5.43654473 41.76294764 8.65997319 44.3828125 12.02441406 C47.10612741 15.35126555 50.31086369 18.12981811 53.5 21 C54.74586378 22.15760628 55.98935635 23.31776979 57.23046875 24.48046875 C57.84841309 25.05716309 58.46635742 25.63385742 59.10302734 26.22802734 C61.04539408 28.04240286 62.98578688 29.85886955 64.92578125 31.67578125 C71.88682934 38.19128752 78.88301146 44.6545641 86 51 C82.21327367 43.42074344 78.42469726 35.84244399 74.62255859 28.27090454 C73.1250264 25.28833859 71.62909358 22.30497178 70.13330078 19.3215332 C69.36412318 17.78831469 68.59424259 16.25544868 67.82373047 14.72290039 C66.69314128 12.47373953 65.56506509 10.22333435 64.4375 7.97265625 C64.09074219 7.28430191 63.74398437 6.59594757 63.38671875 5.88673401 C61 1.11386965 61 1.11386965 61 0 C90.77463085 -2.36996638 90.77463085 -2.36996638 99.19140625 4.09106445 C101.68554324 6.38570954 104.05030646 8.758375 106.33642578 11.26025391 C108.96763627 14.01194248 111.9616614 16.22060899 115 18.5 C116.13923969 19.3847844 117.27594061 20.27284681 118.41015625 21.1640625 C118.98652832 21.6168457 119.56290039 22.06962891 120.15673828 22.53613281 C124.27845616 25.80948651 128.34540627 29.15197731 132.40820312 32.49804688 C136.49388909 35.84469817 140.67159973 38.97291233 145 42 C142.85026213 38.23167691 140.69974948 34.46379728 138.54858398 30.69628906 C137.82019197 29.42036264 137.09199489 28.14432491 136.36401367 26.86816406 C135.30441485 25.01075825 134.244067 23.15378168 133.18359375 21.296875 C132.66108536 20.38053284 132.66108536 20.38053284 132.12802124 19.44567871 C130.41088569 16.4405543 128.6787072 13.4461902 126.91064453 10.47070312 C126.2711084 9.39240234 125.63157227 8.31410156 124.97265625 7.203125 C124.399104 6.24567383 123.82555176 5.28822266 123.23461914 4.30175781 C122 2 122 2 122 0 C144.18991883 -2.31562468 157.41369074 0.21868844 175.82861328 13.73242188 C181.16585791 17.54861342 186.77596956 20.89546023 192.375 24.3125 C194.34371258 25.53363198 196.31006886 26.75857556 198.2734375 27.98828125 C199.09247559 28.49915283 199.91151367 29.01002441 200.75537109 29.53637695 C202.91051726 30.94165227 204.96159486 32.43134477 207 34 C204.94681848 42.9561194 202.26673405 51.65493988 199.3894043 60.37136841 C198.04490907 64.44516534 196.71432823 68.52350842 195.3828125 72.6015625 C195.10475769 73.45224808 194.82670288 74.30293365 194.54022217 75.17939758 C191.73965557 83.76410899 189.02367337 92.37495218 186.31103516 100.98776245 C181.63257645 115.84014363 176.82357856 130.64030859 171.85998535 145.39981079 C168.56759211 155.19578739 165.40504924 165.01287457 162.45532227 174.91870117 C159.23046237 185.69923282 155.59598654 196.33821534 152 207 C142.1 207 132.2 207 122 207 C122 201.47025627 122.19910036 196.62265779 123.09814453 191.25927734 C123.21530319 190.52910904 123.33246185 189.79894073 123.45317078 189.04664612 C123.84048057 186.64207879 124.23663706 184.23905862 124.6328125 181.8359375 C124.91047235 180.12245765 125.18754944 178.40888328 125.46408081 176.69522095 C126.19608046 172.16828239 126.93545992 167.64258051 127.67657471 163.11712646 C128.40554584 158.65945855 129.12853899 154.20082334 129.8515625 149.7421875 C130.71143608 144.44054555 131.57161992 139.13895755 132.43484497 133.83786011 C134.65743672 120.17878881 136.82783024 106.51186078 138.96365356 92.83895874 C141.15138169 78.86505776 143.53932242 64.92842601 146 51 C145.79955078 51.61182129 145.59910156 52.22364258 145.39257812 52.85400391 C141.78057414 63.85177793 138.12523724 74.82404076 134.125 85.6875 C129.64432445 97.86187211 125.44278389 110.12909423 121.23486328 122.39990234 C115.83944952 138.1295922 110.37085768 153.8292234 104.75024414 169.47998047 C101.3419769 178.98841182 98.03264143 188.5292681 94.77929688 198.09179688 C94.42802734 199.11724609 94.07675781 200.14269531 93.71484375 201.19921875 C93.40667725 202.10502686 93.09851074 203.01083496 92.78100586 203.9440918 C92 206 92 206 91 207 C88.78144736 207.08783542 86.56011504 207.10694609 84.33984375 207.09765625 C83.34314415 207.09553383 83.34314415 207.09553383 82.3263092 207.09336853 C80.19666101 207.08775518 78.06711661 207.07520054 75.9375 207.0625 C74.49674631 207.05748671 73.05599097 207.05292351 71.61523438 207.04882812 C68.07678898 207.03778145 64.53840461 207.02050792 61 207 C61.57121381 200.3074741 62.48309496 193.77013224 63.75 187.17578125 C64.01088409 185.79036133 64.01088409 185.79036133 64.27703857 184.37695312 C64.84727978 181.35468101 65.42362344 178.33360748 66 175.3125 C66.4030197 173.18195102 66.8056829 171.05133458 67.20800781 168.9206543 C69.25854274 158.07853435 71.33522597 147.24147087 73.421875 136.40625 C74.00663485 133.36896776 74.59137053 130.33168088 75.17599487 127.29437256 C75.5580764 125.30951499 75.94033903 123.32469227 76.32278442 121.33990479 C79.05597883 107.14132006 81.64536386 92.92979509 84.02734375 78.66796875 C84.90836818 73.42182833 85.91928091 68.20841544 87 63 C86.65606201 63.92586914 86.31212402 64.85173828 85.95776367 65.80566406 C81.85009276 76.82957021 77.5994423 87.79476386 73.3125 98.75 C72.5983291 100.57720654 71.88421858 102.40443667 71.17016602 104.23168945 C69.11533598 109.48853424 67.05819395 114.74447147 65 120 C64.72998169 120.68954773 64.45996338 121.37909546 64.1817627 122.08953857 C59.56598777 133.87503052 54.9300832 145.65248028 50.2734375 157.421875 C48.95286086 160.76031225 47.63255131 164.09885499 46.3125 167.4375 C45.98965027 168.25401031 45.66680054 169.07052063 45.33416748 169.91177368 C40.461692 182.24019313 35.6756492 194.5952164 31 207 C20.77 207 10.54 207 0 207 C1.16291774 200.60395241 2.32311716 194.23512199 3.6640625 187.87890625 C3.81688187 187.14958893 3.96970123 186.42027161 4.12715149 185.66885376 C4.62449701 183.2996567 5.12448496 180.93102937 5.625 178.5625 C5.79951691 177.73464996 5.97403381 176.90679993 6.15383911 176.05386353 C9.45990573 160.38299187 12.91605564 144.74774992 16.41329956 129.11865234 C18.59500643 119.35606897 20.73362681 109.58399338 22.875 99.8125 C23.06826874 98.93065033 23.26153748 98.04880066 23.46066284 97.14022827 C23.64887604 96.28144073 23.83708923 95.4226532 24.03100586 94.5378418 C24.21433975 93.70143158 24.39767365 92.86502136 24.58656311 92.00326538 C24.92635795 90.4527847 25.26600219 88.90227101 25.60545349 87.35171509 C25.75998489 86.64630585 25.9145163 85.94089661 26.07373047 85.21411133 C26.22195251 84.52354645 26.37017456 83.83298157 26.52288818 83.12149048 C26.85479797 81.64564473 27.21493831 80.17598187 27.59674072 78.71224976 C29.76262211 70.13267221 27.87840918 64.0193432 24.31640625 56.15625 C23.94481888 55.31719116 23.57323151 54.47813232 23.19038391 53.61364746 C21.98902642 50.90548805 20.77579433 48.2028295 19.5625 45.5 C18.73816207 43.64624794 17.91475912 41.79207982 17.09228516 39.9375 C15.47324912 36.28871038 13.8504287 32.64164794 12.22412109 28.99609375 C9.40810639 22.67835572 6.63313138 16.34323052 3.875 10 C3.46838135 9.07123047 3.0617627 8.14246094 2.64282227 7.18554688 C2.28373779 6.36119141 1.92465332 5.53683594 1.5546875 4.6875 C1.25030762 3.99011719 0.94592773 3.29273437 0.63232422 2.57421875 C0 1 0 1 0 0 Z " fill="#050135" transform="translate(76,76)"/>
<path d="M0 0 C0.9778784 3.10282437 0.97405261 5.18171495 0.28515625 8.34765625 C0.09735596 9.24202393 -0.09044434 10.1363916 -0.28393555 11.05786133 C-0.60744995 12.54515747 -0.60744995 12.54515747 -0.9375 14.0625 C-3.52499874 26.44897859 -5.88020417 38.87126623 -8.1875 51.3125 C-8.53569712 53.18172737 -8.88392253 55.05094947 -9.23217773 56.92016602 C-10.90692506 65.93358028 -12.55228406 74.9468254 -14 84 C-16 82 -16 82 -16.1875 78.9375 C-16 76 -16 76 -15 75 C-14.95907063 72.66702567 -14.95758277 70.33294775 -15 68 C-15.763125 68.165 -16.52625 68.33 -17.3125 68.5 C-20 69 -20 69 -23 69 C-24.485 69.495 -24.485 69.495 -26 70 C-26.144375 70.886875 -26.28875 71.77375 -26.4375 72.6875 C-26.623125 73.780625 -26.80875 74.87375 -27 76 C-27.144375 76.86625 -27.28875 77.7325 -27.4375 78.625 C-27.99935023 80.99725652 -28.81987491 82.87577484 -30 85 C-30.66 85 -31.32 85 -32 85 C-31.9175 85.9075 -31.835 86.815 -31.75 87.75 C-32 91 -32 91 -34 93.375 C-34.66 93.91125 -35.32 94.4475 -36 95 C-35.2716831 90.28461495 -33.59092697 85.98734692 -31.875 81.5625 C-31.5351709 80.67780029 -31.1953418 79.79310059 -30.84521484 78.8815918 C-26.52153295 67.67680436 -22.08094498 56.51711987 -17.66088867 45.35009766 C-12.66190051 32.71434142 -7.74665369 20.04907105 -2.90698242 7.35131836 C-1.95849623 4.892403 -0.98361611 2.4450507 0 0 Z " fill="#FAD12E" transform="translate(163,137)"/>
<path d="M0 0 C3.60322879 2.72876098 4.40758738 6.66803665 5.625 10.8125 C5.8415625 11.51181641 6.058125 12.21113281 6.28125 12.93164062 C8.2136955 19.3075179 9.12359658 25.30266584 9.14717102 31.99179077 C9.15084771 32.67166506 9.1545244 33.35153936 9.1583125 34.0520159 C9.16927691 36.31772547 9.17318085 38.58338906 9.17700195 40.84912109 C9.18327234 42.47919864 9.18991965 44.10927477 9.19691467 45.73934937 C9.21789839 51.0840354 9.22831542 56.42872152 9.23828125 61.7734375 C9.24233168 63.6198999 9.24644869 65.46636215 9.25063133 67.31282425 C9.26967474 75.99463289 9.28390454 84.67643311 9.2922433 93.35825861 C9.30199664 103.34552825 9.32826986 113.33257515 9.36874419 123.3197664 C9.39902493 131.0602026 9.41372366 138.8005754 9.41702431 146.54106963 C9.4193622 151.15374571 9.42815605 155.76618364 9.45348549 160.37879562 C9.47697994 164.72751005 9.48091485 169.07583313 9.47072411 173.42459488 C9.47023369 175.00787416 9.47640535 176.59117414 9.49028015 178.1743927 C9.60276241 191.78752851 7.99707013 205.00502263 1 217 C0.67 217 0.34 217 0 217 C0 215.35 0 213.7 0 212 C0.66 212 1.32 212 2 212 C2.13277344 211.20335937 2.26554687 210.40671875 2.40234375 209.5859375 C4 200 4 200 4.50390625 197.2890625 C6.02060734 187.23345369 6.15412208 177.20234081 6.16113281 167.0546875 C6.16577142 165.47487271 6.17079744 163.89505902 6.17617798 162.31524658 C6.18919664 158.05496506 6.19572519 153.79469921 6.20018864 149.53440094 C6.20313421 146.86666153 6.20724152 144.19892626 6.21169281 141.53118896 C6.2253349 133.16602921 6.23501972 124.8008791 6.2388947 116.435709 C6.24337892 106.81184138 6.26095751 97.18811553 6.2898953 87.564291 C6.3115545 80.09983725 6.32160111 72.63542331 6.32293582 65.17093849 C6.32398005 60.72342067 6.32980719 56.27603672 6.34775543 51.82855225 C6.3643116 47.64562778 6.36635531 43.46293684 6.35761642 39.27999115 C6.35685029 37.75266644 6.36113228 36.22532874 6.37107468 34.69803619 C6.4401896 23.41193635 5.18406794 14.12127551 0 4 C0 2.68 0 1.36 0 0 Z " fill="#EAC852" transform="translate(304,71)"/>
<path d="M0 0 C0.33 0 0.66 0 1 0 C1.00219984 1.37491545 1.00219984 1.37491545 1.00444412 2.77760696 C1.04154732 25.11366632 1.10060867 47.44957436 1.18390274 69.78551102 C1.22365798 80.587153 1.25606834 91.3887225 1.27099609 102.19042969 C1.28403082 111.60870507 1.31104197 121.02682072 1.35461307 130.44500613 C1.37718688 135.42870884 1.39291313 140.41221484 1.39188385 145.39597321 C1.39113483 150.09431366 1.40918252 154.79221995 1.44116783 159.490448 C1.4496323 161.20759855 1.45144042 162.92479799 1.44580269 164.64196014 C1.40929413 177.4795351 3.23292468 187.99405744 9.94921875 199.16015625 C11 201 11 201 12 204 C13.32 203.67 14.64 203.34 16 203 C15.505 205.97 15.505 205.97 15 209 C5.41534238 200.82485086 0.48533145 187.21273003 -1 175 C-1.08693356 172.58052678 -1.12624793 170.159041 -1.12698364 167.73800659 C-1.12854363 167.04134955 -1.13010362 166.3446925 -1.13171089 165.62692463 C-1.13567435 163.31099414 -1.13254943 160.99513011 -1.12939453 158.67919922 C-1.13075061 157.01142336 -1.13253171 155.3436478 -1.13470459 153.6758728 C-1.13925358 149.15955921 -1.13749997 144.64326853 -1.1343255 140.12695456 C-1.13178966 135.39673902 -1.13414278 130.66652542 -1.13571167 125.93630981 C-1.13752943 117.995785 -1.135137 110.05526949 -1.13037109 102.11474609 C-1.12492548 92.93577831 -1.12669489 83.75683273 -1.1321975 74.57786548 C-1.13673536 66.69235922 -1.13737598 58.80685965 -1.13475883 50.92135251 C-1.13320026 46.21356475 -1.13299091 41.50578742 -1.13629532 36.79800034 C-1.13918391 32.37389969 -1.1371801 27.94982769 -1.13140106 23.52573013 C-1.13007894 21.90236712 -1.1304583 20.2790017 -1.13266373 18.65563965 C-1.13539663 16.43973593 -1.13196792 14.22392399 -1.12698364 12.00802612 C-1.1264181 10.14811948 -1.1264181 10.14811948 -1.12584114 8.25063896 C-1.014333 5.37023987 -0.66744394 2.7969322 0 0 Z " fill="#EDCC54" transform="translate(36,89)"/>
<path d="M0 0 C1.73682498 3.47364997 0.20623487 7.3939147 -0.4765625 11.09765625 C-0.64223724 12.02769974 -0.80791199 12.95774323 -0.97860718 13.91596985 C-1.33613743 15.92164334 -1.69640191 17.92683093 -2.05908203 19.93157959 C-3.0048465 25.16398682 -3.92927924 30.40012853 -4.8515625 35.63671875 C-5.03632141 36.68466614 -5.22108032 37.73261353 -5.41143799 38.81231689 C-7.07588216 48.31343444 -8.58263368 57.83417823 -10 67.375 C-10.10532043 68.08294708 -10.21064087 68.79089417 -10.31915283 69.52029419 C-10.88680658 73.34580393 -11.44726461 77.17230746 -12 81 C-12.33 81 -12.66 81 -13 81 C-12.50914756 69.46227066 -10.90092095 58.30497174 -8.9375 46.9375 C-8.51276755 44.46138477 -8.09032257 41.98495841 -7.67372131 39.50746155 C-7.41712875 37.9828906 -7.15590377 36.45908905 -6.8891449 34.93626404 C-6.20898887 30.91049625 -5.86915684 27.08174646 -6 23 C-6.65161012 24.87300025 -7.29602195 26.7485055 -7.9375 28.625 C-8.29714844 29.66914063 -8.65679687 30.71328125 -9.02734375 31.7890625 C-9.95750123 34.85970286 -10.54746308 37.827478 -11 41 C-11.66 41 -12.32 41 -13 41 C-13.17015625 41.75023437 -13.3403125 42.50046875 -13.515625 43.2734375 C-14.71445415 48.33657762 -15.96833956 53.20215574 -18 58 C-20.97627291 65.05867024 -22.53868623 72.50223124 -24 80 C-24.99 80 -25.98 80 -27 80 C-27.10957031 80.556875 -27.21914062 81.11375 -27.33203125 81.6875 C-28.30552478 86.37293225 -29.57252878 90.69257254 -31.3359375 95.13671875 C-32.25337648 97.71094459 -32.66195526 100.29564208 -33 103 C-33.66 103 -34.32 103 -35 103 C-35.495 103.99 -35.495 103.99 -36 105 C-34.55389898 97.70860644 -32.35816202 90.87481257 -29.875 83.875 C-29.05724623 81.54428677 -28.23953873 79.21355732 -27.421875 76.8828125 C-27.01259766 75.72168945 -26.60332031 74.56056641 -26.18164062 73.36425781 C-25.11496415 70.32731529 -24.0612512 67.28642916 -23.015625 64.2421875 C-19.02585618 52.64091435 -14.84999182 41.11602964 -10.59020996 29.61184692 C-7.40291576 20.99317946 -4.39440072 12.36122583 -1.8046875 3.54296875 C-1 1 -1 1 0 0 Z " fill="#E5CF5F" transform="translate(222,126)"/>
<path d="M0 0 C0.66 0 1.32 0 2 0 C1.33904357 7.00613817 0.27971267 14.56875128 -2.97265625 20.890625 C-4.06712145 23.13781591 -4.71051325 25.38605644 -5.36621094 27.79199219 C-6.15632618 30.54461247 -7.04932482 33.2565698 -7.9453125 35.9765625 C-8.29980469 37.059375 -8.65429688 38.1421875 -9.01953125 39.2578125 C-9.75958752 41.51197684 -10.50442168 43.7645779 -11.25390625 46.015625 C-11.60582031 47.09585938 -11.95773437 48.17609375 -12.3203125 49.2890625 C-12.64273926 50.26568848 -12.96516602 51.24231445 -13.29736328 52.24853516 C-13.98929403 54.95807633 -14.13627516 57.21808515 -14 60 C-15.485 60.495 -15.485 60.495 -17 61 C-17.12117188 61.91523438 -17.24234375 62.83046875 -17.3671875 63.7734375 C-17.53476562 64.96195312 -17.70234375 66.15046875 -17.875 67.375 C-18.03742188 68.55835938 -18.19984375 69.74171875 -18.3671875 70.9609375 C-19 74 -19 74 -21 76 C-21.777224 77.87152727 -21.777224 77.87152727 -22.40234375 80.03515625 C-22.65306641 80.84533203 -22.90378906 81.65550781 -23.16210938 82.49023438 C-23.41798828 83.33908203 -23.67386719 84.18792969 -23.9375 85.0625 C-24.44588467 86.7202761 -24.95499725 88.37782915 -25.46484375 90.03515625 C-25.71741943 90.86136475 -25.96999512 91.68757324 -26.23022461 92.53881836 C-26.97380769 94.91625604 -27.76041534 97.27455729 -28.5625 99.6328125 C-30.33640739 104.90357031 -31.66710235 110.25472853 -33.03515625 115.64453125 C-33.81891786 118.37024469 -34.71842783 120.50775115 -36 123 C-36.38749213 125.32495277 -36.72982839 127.65851268 -37 130 C-37.66 130 -38.32 130 -39 130 C-39.18175781 131.24716797 -39.18175781 131.24716797 -39.3671875 132.51953125 C-39.53476563 133.60621094 -39.70234375 134.69289062 -39.875 135.8125 C-40.11863281 137.43091797 -40.11863281 137.43091797 -40.3671875 139.08203125 C-41 142 -41 142 -43 145 C-43.66 145 -44.32 145 -45 145 C-42.35619252 134.49653469 -38.81592366 124.30728769 -35.33935547 114.05908203 C-32.35940958 105.26088033 -29.50224664 96.45533414 -26.92669678 87.52996826 C-24.56578952 79.40246511 -21.91100551 71.37304646 -19.26593018 63.33447266 C-17.7272449 58.65506477 -16.199332 53.97214551 -14.671875 49.2890625 C-14.21060715 47.87491058 -14.21060715 47.87491058 -13.74002075 46.43218994 C-10.90594018 37.73193917 -8.10764379 29.02065762 -5.35089111 20.29559326 C-4.86933005 18.77268121 -4.38623127 17.2502545 -3.90155029 15.72833252 C-3.23468816 13.63273728 -2.57348597 11.53544594 -1.9140625 9.4375 C-1.5423291 8.26058594 -1.1705957 7.08367187 -0.78759766 5.87109375 C0.13227326 3.01400709 0.13227326 3.01400709 0 0 Z " fill="#E4CD5C" transform="translate(282,109)"/>
<path d="M0 0 C2.23581704 2.06497273 3.6631567 3.96047144 5.00537109 6.68603516 C5.36940033 7.41754791 5.73342957 8.14906067 6.10848999 8.90274048 C6.49292267 9.69022675 6.87735535 10.47771301 7.2734375 11.2890625 C7.67905914 12.1069223 8.08468079 12.9247821 8.50259399 13.76742554 C9.79910909 16.38383739 11.08745377 19.00416451 12.375 21.625 C13.65672536 24.223732 14.9402097 26.82157267 16.22598267 29.41830444 C17.02451613 31.03208518 17.82056659 32.647098 18.61361694 34.26358032 C20.95570363 39.00946969 23.4553779 43.60689083 26.16348267 48.15536499 C26.43953339 48.76409454 26.71558411 49.3728241 27 50 C26.67 50.66 26.34 51.32 26 52 C25.59273682 51.61779297 25.18547363 51.23558594 24.76586914 50.84179688 C17.25828831 43.80125556 9.75584769 36.76797549 2 30 C2.66 29.67 3.32 29.34 4 29 C5.34977849 29.63270867 6.68352881 30.30062468 8 31 C8.66 31 9.32 31 10 31 C10.70238513 23.53715798 8.38184183 18.68760118 5 12.125 C4.0594766 10.25412102 3.12182228 8.38179604 2.1875 6.5078125 C1.76855469 5.68941895 1.34960938 4.87102539 0.91796875 4.02783203 C0 2 0 2 0 0 Z " fill="#EBCF4D" transform="translate(136,76)"/>
<path d="M0 0 C1.04252359 3.23557788 0.92430006 5.42768043 0.21484375 8.734375 C-0.08232544 10.16197144 -0.08232544 10.16197144 -0.38549805 11.6184082 C-0.60890869 12.6518335 -0.83231934 13.68525879 -1.0625 14.75 C-1.53089477 16.98781171 -1.99691817 19.22612069 -2.4609375 21.46484375 C-2.71069336 22.66866699 -2.96044922 23.87249023 -3.21777344 25.11279297 C-4.05587127 29.27764742 -4.83826403 33.44984207 -5.6015625 37.62890625 C-5.73402878 38.35147614 -5.86649506 39.07404602 -6.00297546 39.81851196 C-6.52929142 42.69390296 -7.0545558 45.56942339 -7.56936646 48.44689941 C-7.93027005 50.46169676 -8.29851846 52.47503635 -8.66796875 54.48828125 C-8.87703857 55.64884033 -9.0861084 56.80939941 -9.30151367 58.00512695 C-9.91768775 60.64707291 -10.65509972 62.66298953 -12 65 C-11.46823778 56.42762623 -10.0360352 48.08181325 -8.41601562 39.66308594 C-7.99556897 37.47696073 -7.5831361 35.28943255 -7.171875 33.1015625 C-5.15530309 22.46590928 -5.15530309 22.46590928 -4 19 C-4.66 19 -5.32 19 -6 19 C-5.95875 20.093125 -5.9175 21.18625 -5.875 22.3125 C-6 26 -6 26 -8 29 C-8.66 29 -9.32 29 -10 29 C-10 30.98 -10 32.96 -10 35 C-10.66 35 -11.32 35 -12 35 C-12.19142578 36.07507813 -12.19142578 36.07507813 -12.38671875 37.171875 C-13.94571542 44.36113354 -16.99710134 51.19222056 -20.05859375 57.85546875 C-21.01846335 60.04205967 -21.82937196 62.24905233 -22.625 64.5 C-24 68 -24 68 -26 69 C-23.68319204 60.55561741 -20.5701478 52.45314194 -17.375 44.3125 C-16.84097607 42.94365181 -16.30728852 41.57467235 -15.77392578 40.20556641 C-14.43965068 36.78320896 -13.10091826 33.36261618 -11.76074219 29.94256592 C-10.59836626 26.97442259 -9.43994325 24.00473877 -8.28125 21.03515625 C-2.26788768 5.63464876 -2.26788768 5.63464876 0 0 Z " fill="#E4CE61" transform="translate(163,137)"/>
<path d="M0 0 C2.78675288 2.78675288 4.25928023 4.97122506 6.14453125 8.375 C7.03688477 9.97794922 7.03688477 9.97794922 7.94726562 11.61328125 C8.87055664 13.28970703 8.87055664 13.28970703 9.8125 15 C10.41642578 16.08667969 11.02035156 17.17335938 11.64257812 18.29296875 C15.46268813 25.17656849 19.23951058 32.08367944 23 39 C20.04789144 37.64066459 17.69471788 36.07384088 15.20703125 33.98828125 C14.49796631 33.39805176 13.78890137 32.80782227 13.05834961 32.19970703 C12.31721924 31.57692871 11.57608887 30.95415039 10.8125 30.3125 C9.28982471 29.04465695 7.7663938 27.77772081 6.2421875 26.51171875 C5.51225586 25.90505371 4.78232422 25.29838867 4.03027344 24.67333984 C0.41928524 21.69718387 -3.27085182 18.82607811 -7 16 C-5 15 -5 15 -2.4375 15.75 C0 17 0 17 1 20 C2.65 20.33 4.3 20.66 6 21 C7.12377697 17.69564916 6.89554742 15.9493138 5.5625 12.75 C5.27503906 12.04359375 4.98757812 11.3371875 4.69140625 10.609375 C4.46324219 10.07828125 4.23507813 9.5471875 4 9 C3.34 9 2.68 9 2 9 C1.34 6.03 0.68 3.06 0 0 Z " fill="#F7D33A" transform="translate(199,80)"/>
<path d="M0 0 C1.10408478 3.31225434 0.88103713 4.6470723 0.1875 8 C0.01605469 8.86625 -0.15539062 9.7325 -0.33203125 10.625 C-1 13 -1 13 -3 16 C-3.66 16 -4.32 16 -5 16 C-5.18175781 16.87011719 -5.18175781 16.87011719 -5.3671875 17.7578125 C-6.33735474 22.28028442 -7.43397783 26.63750966 -9 31 C-9.66 31 -10.32 31 -11 31 C-10.95875 31.721875 -10.9175 32.44375 -10.875 33.1875 C-11.00921305 36.20729369 -11.75170619 38.26935729 -13 41 C-13.66 41 -14.32 41 -15 41 C-15.13277344 41.71027344 -15.26554687 42.42054688 -15.40234375 43.15234375 C-15.57894531 44.07144531 -15.75554687 44.99054688 -15.9375 45.9375 C-16.11152344 46.85402344 -16.28554687 47.77054687 -16.46484375 48.71484375 C-17 51 -17 51 -18 52 C-20.3756852 52.0883967 -22.72208674 52.11530305 -25.09765625 52.09765625 C-26.16094398 52.09553383 -26.16094398 52.09553383 -27.24571228 52.09336853 C-29.51801712 52.08775443 -31.79022475 52.07519963 -34.0625 52.0625 C-35.59960796 52.05748681 -37.13671745 52.05292359 -38.67382812 52.04882812 C-42.44925642 52.03778042 -46.22461171 52.02050641 -50 52 C-50 51.67 -50 51.34 -50 51 C-39.77 51 -29.54 51 -19 51 C-18.34 48.03 -17.68 45.06 -17 42 C-16.26243652 39.89236029 -15.46870966 37.80317973 -14.609375 35.7421875 C-14.14958252 34.6281958 -13.68979004 33.5142041 -13.21606445 32.36645508 C-12.73226318 31.2142749 -12.24846191 30.06209473 -11.75 28.875 C-10.7587851 26.48060512 -9.7678976 24.08607468 -8.77734375 21.69140625 C-8.30022949 20.54430176 -7.82311523 19.39719727 -7.33154297 18.21533203 C-5.6249039 14.09423988 -3.95972344 9.95763054 -2.3125 5.8125 C-1.85488281 4.66394531 -1.39726563 3.51539063 -0.92578125 2.33203125 C-0.62027344 1.56246094 -0.31476563 0.79289063 0 0 Z " fill="#EBD06B" transform="translate(126,232)"/>
<path d="M0 0 C5.13043216 5.98651972 7.79280414 14.08921533 10.97167969 21.21459961 C11.82042552 23.10547435 12.67974121 24.99164183 13.54980469 26.87280273 C14.81273533 29.60411799 16.04220106 32.34845628 17.265625 35.09765625 C17.65510315 35.92515884 18.0445813 36.75266144 18.44586182 37.60523987 C22.13588816 46.09595553 20.77718924 53.74704754 18.58984375 62.54296875 C18.32236328 63.63544922 18.05488281 64.72792969 17.77929688 65.85351562 C17.36260742 67.50383789 17.36260742 67.50383789 16.9375 69.1875 C16.65583984 70.33025391 16.37417969 71.47300781 16.08398438 72.65039062 C15.39645892 75.43545138 14.70170417 78.21848437 14 81 C13.67 81 13.34 81 13 81 C13.33 76.71 13.66 72.42 14 68 C13.34 67.67 12.68 67.34 12 67 C13.32 67 14.64 67 16 67 C16.12375 65.7625 16.2475 64.525 16.375 63.25 C16.88980942 58.32810994 17.85380793 53.53559104 18.890625 48.69921875 C19.02583244 45.36249232 18.12120981 44.47208662 16 42 C15.8125 39.25 15.8125 39.25 16 37 C15.34 37 14.68 37 14 37 C13.34 34.03 12.68 31.06 12 28 C11.34 28 10.68 28 10 28 C9.84144531 27.46632813 9.68289062 26.93265625 9.51953125 26.3828125 C8.15499546 22.02534461 6.5771744 18.0387937 4.4375 14 C2.03160972 9.37663253 0.90864319 5.12144342 0 0 Z " fill="#E8D15F" transform="translate(85,98)"/>
<path d="M0 0 C0.66 0 1.32 0 2 0 C1.7215625 0.67804688 1.443125 1.35609375 1.15625 2.0546875 C-2.55974855 11.52044057 -5.59464442 20.9108055 -7 31 C-7.99 31 -8.98 31 -10 31 C-10.10957031 31.556875 -10.21914062 32.11375 -10.33203125 32.6875 C-11.30552478 37.37293225 -12.57252878 41.69257254 -14.3359375 46.13671875 C-15.25337648 48.71094459 -15.66195526 51.29564208 -16 54 C-16.66 54 -17.32 54 -18 54 C-18.33 54.66 -18.66 55.32 -19 56 C-17.5395581 48.62824564 -15.31363984 41.70527862 -12.8125 34.625 C-12.41611328 33.49191406 -12.01972656 32.35882813 -11.61132812 31.19140625 C-2.20880682 4.41761364 -2.20880682 4.41761364 0 0 Z " fill="#E7CF5C" transform="translate(205,175)"/>
<path d="M0 0 C32.57993525 -1.78440803 32.57993525 -1.78440803 43.80859375 7.03125 C44.53175781 7.6809375 45.25492188 8.330625 46 9 C45.34 9.66 44.68 10.32 44 11 C39.99912001 9.66637334 37.90716186 7.99801067 35 5 C31.06325892 2.15749824 28.20842858 1.59836595 23.38671875 1.48828125 C22.13955078 1.45283203 20.89238281 1.41738281 19.60742188 1.38085938 C17.66706055 1.34702148 17.66706055 1.34702148 15.6875 1.3125 C13.71813477 1.26125977 13.71813477 1.26125977 11.70898438 1.20898438 C8.47274149 1.12660728 5.23676615 1.05741984 2 1 C2.33 1.66 2.66 2.32 3 3 C3.99 3 4.98 3 6 3 C6 3.99 6 4.98 6 6 C6.66 6 7.32 6 8 6 C8.33 9.3 8.66 12.6 9 16 C5.49702126 11.97806144 0 5.60566856 0 0 Z " fill="#140A0A" transform="translate(198,76)"/>
<path d="M0 0 C0.66 0 1.32 0 2 0 C-0.12818085 15.48519502 -2.58779666 30.9000565 -5.1875 46.3125 C-5.55947632 48.52925804 -5.93122225 50.74605475 -6.30273438 52.96289062 C-7.1991802 58.30904035 -8.09841996 63.65471384 -9 69 C-9.33 69 -9.66 69 -10 69 C-9.76577992 65.86543759 -9.52676307 62.73135782 -9.28125 59.59765625 C-9.10763526 57.37683432 -8.93975862 55.15554495 -8.78125 52.93359375 C-8.7090625 52.00675781 -8.636875 51.07992187 -8.5625 50.125 C-8.50191406 49.30257812 -8.44132813 48.48015625 -8.37890625 47.6328125 C-8 45 -8 45 -7.07055664 41.89770508 C-5.83704647 37.65192307 -5.15615373 33.36962108 -4.4921875 29.00390625 C-4.36184113 28.17036118 -4.23149475 27.3368161 -4.09719849 26.47801208 C-3.68566172 23.84013165 -3.28023636 21.20135488 -2.875 18.5625 C-2.59545683 16.76360893 -2.31551292 14.96478009 -2.03515625 13.16601562 C-1.35213466 8.77804972 -0.67458887 4.3892699 0 0 Z " fill="#E7D061" transform="translate(207,211)"/>
<path d="M0 0 C0.33 0 0.66 0 1 0 C1.22151549 1.79008467 1.42682213 3.58218162 1.625 5.375 C1.74101562 6.37273437 1.85703125 7.37046875 1.9765625 8.3984375 C1.98429688 9.25695312 1.99203125 10.11546875 2 11 C1.34 11.66 0.68 12.32 0 13 C-0.53605869 15.00830257 -0.53605869 15.00830257 -0.81640625 17.31640625 C-0.94080078 18.16267578 -1.06519531 19.00894531 -1.19335938 19.88085938 C-1.31517578 20.76580078 -1.43699219 21.65074219 -1.5625 22.5625 C-1.81021824 24.3143126 -2.06133784 26.06564875 -2.31640625 27.81640625 C-2.42412354 28.59443604 -2.53184082 29.37246582 -2.64282227 30.17407227 C-3 32 -3 32 -4 33 C-4.66003695 36.51516824 -5.2438384 40.03474784 -5.80664062 43.56640625 C-6.48186244 47.61773712 -7.26238072 51.23891931 -9 55 C-10.30462643 52.39074713 -9.83478056 51.19173811 -9.30322266 48.33837891 C-9.03767075 46.88644638 -9.03767075 46.88644638 -8.76675415 45.40518188 C-8.56786591 44.35623749 -8.36897766 43.30729309 -8.1640625 42.2265625 C-7.96525482 41.15127289 -7.76644714 40.07598328 -7.56161499 38.96810913 C-6.92223628 35.51922826 -6.27356197 32.07216445 -5.625 28.625 C-5.1947362 26.30739858 -4.76504145 23.98969144 -4.3359375 21.671875 C-3.54576572 17.42076856 -2.75521837 13.16974442 -1.95556641 8.92041016 C-1.71454697 7.63706284 -1.71454697 7.63706284 -1.46865845 6.32778931 C-1.0399848 4.19860133 -0.54670714 2.10160333 0 0 Z " fill="#191113" transform="translate(154,189)"/>
<path d="M0 0 C0.33 0 0.66 0 1 0 C0.67 6.27 0.34 12.54 0 19 C-0.66 19 -1.32 19 -2 19 C-2.06058594 19.72445313 -2.12117187 20.44890625 -2.18359375 21.1953125 C-2.30927734 22.64550781 -2.30927734 22.64550781 -2.4375 24.125 C-2.51871094 25.07632812 -2.59992188 26.02765625 -2.68359375 27.0078125 C-3.00215307 30.02036109 -3.50197881 33.01187284 -4 36 C5.57 35.67 15.14 35.34 25 35 C24.67 35.66 24.34 36.32 24 37 C14.1 37 4.2 37 -6 37 C-4.875 25.75 -4.875 25.75 -3.80859375 20.1171875 C-3.58623047 18.93125 -3.36386719 17.7453125 -3.13476562 16.5234375 C-2.90466797 15.31945312 -2.67457031 14.11546875 -2.4375 12.875 C-2.20353516 11.63234375 -1.96957031 10.3896875 -1.72851562 9.109375 C-1.15612136 6.07218093 -0.57987052 3.03577394 0 0 Z " fill="#1E100E" transform="translate(143,246)"/>
<path d="M0 0 C0.33 0 0.66 0 1 0 C1.05789006 3.45826342 1.09355821 6.91640293 1.125 10.375 C1.14175781 11.35984375 1.15851563 12.3446875 1.17578125 13.359375 C1.18222656 14.30039063 1.18867188 15.24140625 1.1953125 16.2109375 C1.20578613 17.08024902 1.21625977 17.94956055 1.22705078 18.84521484 C1 21 1 21 -1 23 C-1.35409439 24.9945441 -1.35409439 24.9945441 -1.4375 27.3125 C-2.14839943 36.07179654 -4.46233693 44.6061914 -7 53 C-8.03457693 49.75402257 -7.93947581 47.39256328 -7.37915039 44.04785156 C-7.21890884 43.06713684 -7.0586673 42.08642212 -6.89356995 41.07598877 C-6.71341843 40.02481873 -6.53326691 38.97364868 -6.34765625 37.890625 C-6.16867294 36.80867859 -5.98968964 35.72673218 -5.80528259 34.61199951 C-5.2318981 31.15669332 -4.64734329 27.70338326 -4.0625 24.25 C-3.67178892 21.90767492 -3.28180598 19.56522826 -2.89257812 17.22265625 C-1.93683007 11.48033329 -0.97190424 5.7396093 0 0 Z " fill="#1C1213" transform="translate(211,194)"/>
<path d="M0 0 C7.28464578 3.64232289 12.86328762 10.10547936 17 17 C16.67 17.66 16.34 18.32 16 19 C13.5625 17.875 13.5625 17.875 11 16 C10.1875 12.8125 10.1875 12.8125 10 10 C9.236875 10 8.47375 10 7.6875 10 C5.79166667 10 3.89583333 10 2 10 C2 8.68 2 7.36 2 6 C2.66 6 3.32 6 4 6 C4 5.34 4 4.68 4 4 C3.01 4 2.02 4 1 4 C0.67 2.68 0.34 1.36 0 0 Z " fill="#F1D148" transform="translate(287,52)"/>
<path d="M0 0 C2.66343273 3.33751138 4.70475504 6.88101852 6.75 10.625 C7.38421875 11.77226563 8.0184375 12.91953125 8.671875 14.1015625 C9.11015625 15.05804688 9.5484375 16.01453125 10 17 C9.67 17.66 9.34 18.32 9 19 C4.05 14.38 -0.9 9.76 -6 5 C-5.01 5 -4.02 5 -3 5 C-2.34 5.66 -1.68 6.32 -1 7 C-0.67 4.69 -0.34 2.38 0 0 Z " fill="#F6DA53" transform="translate(153,109)"/>
<path d="M0 0 C2.8125109 4.21876635 1.95686817 7.16972946 1 12 C0.29847431 14.29061703 -0.48927065 16.53286408 -1.3046875 18.78515625 C-2.36157488 22.1517582 -2.62483551 25.4984648 -3 29 C-3.33 29.33 -3.66 29.66 -4 30 C-4.23024542 31.97353214 -4.45948954 33.94719656 -4.6796875 35.921875 C-5.07311964 38.47438595 -5.90663586 40.66748985 -7 43 C-7.33 43 -7.66 43 -8 43 C-7.2665259 34.00202899 -5.2940808 25.25466066 -3.4375 16.4375 C-3.10443575 14.84057441 -2.77175019 13.24356978 -2.43945312 11.64648438 C-1.63066852 7.76339729 -0.81675547 3.88141799 0 0 Z " fill="#271C19" transform="translate(100,170)"/>
<path d="M0 0 C2.08305834 6.96574709 1.95629452 15.34833732 -1 22 C-1.66 22 -2.32 22 -3 22 C-3.99 26.95 -4.98 31.9 -6 37 C-6.66 37 -7.32 37 -8 37 C-5.42499761 24.64546725 -2.76570267 12.31326135 0 0 Z " fill="#1C1417" transform="translate(91,213)"/>
<path d="M0 0 C2.43625917 2.43625917 2.82578764 4.27485841 3.8125 7.5625 C5.3830255 12.47482036 7.29514229 16.74765143 9.94921875 21.16015625 C11 23 11 23 12 26 C13.32 25.67 14.64 25.34 16 25 C15.67 26.98 15.34 28.96 15 31 C7.12890441 24.28641847 2.70497955 13.8174846 0 4 C0 2.68 0 1.36 0 0 Z " fill="#ECCD54" transform="translate(36,267)"/>
<path d="M0 0 C4.22936877 2.3974388 7.99276867 5.20240339 11.8125 8.1875 C12.40998047 8.65091797 13.00746094 9.11433594 13.62304688 9.59179688 C15.08392019 10.72543456 16.54222515 11.86238068 18 13 C15 14 15 14 12.8125 13.0625 C12.214375 12.711875 11.61625 12.36125 11 12 C11 12.66 11 13.32 11 14 C8.53199953 12.84826645 6.95216435 11.95216435 5 10 C5.66 8.68 6.32 7.36 7 6 C4.03 5.505 4.03 5.505 1 5 C0.67 3.35 0.34 1.7 0 0 Z " fill="#0F0925" transform="translate(168,77)"/>
<path d="M0 0 C0 3.97651983 -1.44281822 5.14916174 -3.9375 8.1875 C-4.66839844 9.08855469 -5.39929688 9.98960937 -6.15234375 10.91796875 C-6.76207031 11.60503906 -7.37179687 12.29210937 -8 13 C-8.33 13 -8.66 13 -9 13 C-9 9.7 -9 6.4 -9 3 C-5.71299843 1.35649921 -3.52069985 0.58678331 0 0 Z " fill="#F8CE3B" transform="translate(303,288)"/>
<path d="M0 0 C1.28589593 3.85768778 0.43749924 5.04706974 -1.08984375 8.76171875 C-1.54423828 9.87998047 -1.99863281 10.99824219 -2.46679688 12.15039062 C-2.95212891 13.31763672 -3.43746094 14.48488281 -3.9375 15.6875 C-4.65969727 17.45577148 -4.65969727 17.45577148 -5.39648438 19.25976562 C-6.58925776 22.17674608 -7.79072299 25.0898314 -9 28 C-9.66 26.68 -10.32 25.36 -11 24 C-10.34 24 -9.68 24 -9 24 C-9 22.02 -9 20.04 -9 18 C-8.34 18 -7.68 18 -7 18 C-7.226875 17.4225 -7.45375 16.845 -7.6875 16.25 C-8 14 -8 14 -6.625 11.9375 C-5.820625 10.9784375 -5.820625 10.9784375 -5 10 C-4.67 9.01 -4.34 8.02 -4 7 C-3.34 6.34 -2.68 5.68 -2 5 C-1.29289322 3.35008418 -0.62056011 1.68437744 0 0 Z " fill="#140A19" transform="translate(118,249)"/>
<path d="M0 0 C2.475 0.99 2.475 0.99 5 2 C5 2.66 5 3.32 5 4 C5.66 4 6.32 4 7 4 C6.25 11.625 6.25 11.625 4 15 C3.34 14.67 2.68 14.34 2 14 C1.62109375 11.85546875 1.62109375 11.85546875 1.4375 9.1875 C1.20718875 6.00544462 0.86713747 3.0743965 0 0 Z " fill="#0D0A34" transform="translate(161,122)"/>
<path d="M0 0 C4.37821909 -0.0740719 8.75610782 -0.12856375 13.13476562 -0.16479492 C14.62473909 -0.179896 16.11466801 -0.20037858 17.60449219 -0.22631836 C19.7442523 -0.26264584 21.88342566 -0.27971221 24.0234375 -0.29296875 C25.31169434 -0.3086792 26.59995117 -0.32438965 27.92724609 -0.34057617 C28.94125488 -0.22818604 29.95526367 -0.1157959 31 0 C31.66 0.99 32.32 1.98 33 3 C31.68 3 30.36 3 29 3 C29 2.34 29 1.68 29 1 C20.42 1 11.84 1 3 1 C3.66 2.32 4.32 3.64 5 5 C5.125 7.75 5.125 7.75 5 10 C2.34424386 6.86137911 1.22792806 3.89733689 0 0 Z " fill="#0C050D" transform="translate(76,76)"/>
<path d="M0 0 C0.33 0 0.66 0 1 0 C0.31828247 12.12739609 -0.80132314 23.5490631 -5 35 C-5.33 35 -5.66 35 -6 35 C-5.41510891 27.15335863 -4.03520694 19.57263566 -2.4375 11.875 C-2.08655273 10.15410156 -2.08655273 10.15410156 -1.72851562 8.3984375 C-1.15676376 5.5980202 -0.5805121 2.79861203 0 0 Z " fill="#211711" transform="translate(163,141)"/>
<path d="M0 0 C0.66 0 1.32 0 2 0 C-0.56303449 9.15048279 -3.79531223 18.06006196 -7 27 C-7.33 27 -7.66 27 -8 27 C-8.25 19.375 -8.25 19.375 -6 16 C-6 15.34 -6 14.68 -6 14 C-5.34 14 -4.68 14 -4 14 C-4 12.35 -4 10.7 -4 9 C-3.34 9 -2.68 9 -2 9 C-1.34 6.03 -0.68 3.06 0 0 Z " fill="#1C1215" transform="translate(203,175)"/>
<path d="M0 0 C0.99 0.66 1.98 1.32 3 2 C1.02 7.94 -0.96 13.88 -3 20 C-3.33 20 -3.66 20 -4 20 C-4 17.69 -4 15.38 -4 13 C-3.34 13 -2.68 13 -2 13 C-2.33 12.01 -2.66 11.02 -3 10 C-3.99 10.495 -3.99 10.495 -5 11 C-4.67 9.02 -4.34 7.04 -4 5 C-2.02 5.495 -2.02 5.495 0 6 C0 4.02 0 2.04 0 0 Z " fill="#150E1F" transform="translate(253,195)"/>
<path d="M0 0 C0.680625 0.33 1.36125 0.66 2.0625 1 C5.50840238 2.17307315 8.38397422 2.14180493 12 2 C12 2.66 12 3.32 12 4 C11.34 4 10.68 4 10 4 C12.37629089 8.14670039 12.37629089 8.14670039 16 11 C15.67 11.66 15.34 12.32 15 13 C12.6838794 11.21285146 10.37206728 9.42058195 8.0625 7.625 C7.40314453 7.11710937 6.74378906 6.60921875 6.06445312 6.0859375 C5.43603516 5.59609375 4.80761719 5.10625 4.16015625 4.6015625 C3.57886963 4.15119629 2.99758301 3.70083008 2.39868164 3.23681641 C1 2 1 2 0 0 Z " fill="#F0D247" transform="translate(176,82)"/>
<path d="M0 0 C3.11198065 1.49836105 6.0534615 3.19933758 9 5 C9.33 4.01 9.66 3.02 10 2 C11.98 5.63 13.96 9.26 16 13 C12.09363343 11.04681672 9.05048881 8.72870286 5.75 5.9375 C5.19570312 5.47794922 4.64140625 5.01839844 4.0703125 4.54492188 C2.69175775 3.38876943 1.34298593 2.19728462 0 1 C0 0.67 0 0.34 0 0 Z " fill="#E0CB62" transform="translate(206,106)"/>
<path d="M0 0 C0.66 0 1.32 0 2 0 C1.10971957 9.4369726 -1.51708574 18.20978782 -5 27 C-5.66 27 -6.32 27 -7 27 C-5.10920028 19.85220408 -3.02888634 12.7903874 -0.76953125 5.75 C0.13473885 2.99443664 0.13473885 2.99443664 0 0 Z " fill="#E2CA58" transform="translate(282,109)"/>
<path d="M0 0 C0.33 0.99 0.66 1.98 1 3 C1.66 3 2.32 3 3 3 C3.625 5.3125 3.625 5.3125 4 8 C3.01 9.485 3.01 9.485 2 11 C-2.875 7.375 -2.875 7.375 -4 4 C-2.68 2.68 -1.36 1.36 0 0 Z " fill="#FBD12B" transform="translate(150,106)"/>
<path d="M0 0 C0.66 0 1.32 0 2 0 C2 0.66 2 1.32 2 2 C2.66 2 3.32 2 4 2 C6.22656164 6.74354436 7.46148032 10.72250715 8 16 C8.66 16 9.32 16 10 16 C10 16.66 10 17.32 10 18 C9.01 18 8.02 18 7 18 C5.82887054 15.37690901 4.66294036 12.75171858 3.5 10.125 C3.16613281 9.37863281 2.83226563 8.63226563 2.48828125 7.86328125 C2.17246094 7.14785156 1.85664062 6.43242188 1.53125 5.6953125 C1.23798828 5.03547363 0.94472656 4.37563477 0.64257812 3.69580078 C0 2 0 2 0 0 Z " fill="#180E18" transform="translate(89,105)"/>
<path d="M0 0 C3.0952205 3.0952205 5.06674246 6.29269049 7.1875 10.0625 C7.55552734 10.69994141 7.92355469 11.33738281 8.30273438 11.99414062 C11 16.74312964 11 16.74312964 11 19 C10.01 19 9.02 19 8 19 C5.81024227 15.71536341 5.00193437 12.79303725 4 9 C3.34 9 2.68 9 2 9 C1.34 6.03 0.68 3.06 0 0 Z " fill="#EBD25F" transform="translate(199,80)"/>
<path d="M0 0 C4.44870215 -0.39253254 7.14243493 0.84694043 11 3 C10.67 3.99 10.34 4.98 10 6 C11.32 6 12.64 6 14 6 C14.66 7.32 15.32 8.64 16 10 C12.06342758 8.56786488 8.71068644 6.69667846 5.1875 4.4375 C4.21167969 3.81746094 3.23585937 3.19742188 2.23046875 2.55859375 C1.49441406 2.04425781 0.75835937 1.52992187 0 1 C0 0.67 0 0.34 0 0 Z " fill="#ECD25D" transform="translate(231,77)"/>
<path d="M0 0 C3.59710963 2.73211552 4.44524625 6.67290517 5.6875 10.8125 C5.91244141 11.51181641 6.13738281 12.21113281 6.36914062 12.93164062 C7.64351677 17.07239472 8.25447148 20.61896406 8 25 C6.32635172 21.94002504 5.40030693 19.00462795 4.5625 15.625 C3.46560658 11.42210737 1.98267927 7.87094524 0 4 C0 2.68 0 1.36 0 0 Z " fill="#EAC956" transform="translate(304,71)"/>
<path d="M0 0 C0.66 0 1.32 0 2 0 C1.53199289 4.05606165 1.12046792 7.46588679 -1 11 C-1.66 11 -2.32 11 -3 11 C-2.9175 11.9075 -2.835 12.815 -2.75 13.75 C-3 17 -3 17 -5 19.375 C-5.66 19.91125 -6.32 20.4475 -7 21 C-6.26951699 16.31196344 -4.63363115 12.09114445 -2.9375 7.6875 C-2.51500977 6.57665039 -2.51500977 6.57665039 -2.08398438 5.44335938 C-1.39281425 3.62757345 -0.69688311 1.81360101 0 0 Z " fill="#E8CD59" transform="translate(134,211)"/>
<path d="M0 0 C1.18878413 3.56635238 0.72013686 4.60379515 -0.43359375 8.10546875 C-0.75263672 9.08837891 -1.07167969 10.07128906 -1.40039062 11.08398438 C-1.74263672 12.10814453 -2.08488281 13.13230469 -2.4375 14.1875 C-2.77587891 15.22326172 -3.11425781 16.25902344 -3.46289062 17.32617188 C-4.30070748 19.8868234 -5.14668356 22.4444802 -6 25 C-6.33 25 -6.66 25 -7 25 C-6.33333333 20.33333333 -5.66666667 15.66666667 -5 11 C-4.34 11 -3.68 11 -3 11 C-2.86722656 10.37351563 -2.73445313 9.74703125 -2.59765625 9.1015625 C-2.42105469 8.28429687 -2.24445313 7.46703125 -2.0625 6.625 C-1.88847656 5.81289062 -1.71445312 5.00078125 -1.53515625 4.1640625 C-1 2 -1 2 0 0 Z " fill="#1A1111" transform="translate(276,128)"/>
<path d="M0 0 C0.33 0.99 0.66 1.98 1 3 C0.67 3.66 0.34 4.32 0 5 C-9.57 5 -19.14 5 -29 5 C-29 4.67 -29 4.34 -29 4 C-20.09 4 -11.18 4 -2 4 C-1.34 2.68 -0.68 1.36 0 0 Z " fill="#0C041C" transform="translate(107,277)"/>
<path d="M0 0 C1.64177401 3.28354802 0.26642648 6.65628996 -0.4375 10.125 C-0.58509766 10.87910156 -0.73269531 11.63320312 -0.88476562 12.41015625 C-1.25057648 14.27461157 -1.62452356 16.13746714 -2 18 C-2.99 17.01 -3.98 16.02 -5 15 C-4.54705135 13.24859857 -4.08741252 11.49892656 -3.625 9.75 C-3.36976563 8.77546875 -3.11453125 7.8009375 -2.8515625 6.796875 C-2.10401491 4.34162697 -1.22876183 2.24382595 0 0 Z " fill="#BCAD68" transform="translate(222,126)"/>
<path d="M0 0 C0.66 0.33 1.32 0.66 2 1 C-7.22551253 7.51936219 -7.22551253 7.51936219 -13 9 C-12.67 7.68 -12.34 6.36 -12 5 C-10.35 5 -8.7 5 -7 5 C-6.67 4.34 -6.34 3.68 -6 3 C-3.0625 1.3125 -3.0625 1.3125 0 0 Z " fill="#EDCE4F" transform="translate(288,304)"/>
<path d="M0 0 C2.31 0 4.62 0 7 0 C7.69710731 1.28650706 8.38242876 2.57940665 9.0625 3.875 C9.44535156 4.59429687 9.82820312 5.31359375 10.22265625 6.0546875 C10.47917969 6.69664063 10.73570312 7.33859375 11 8 C10.67 8.66 10.34 9.32 10 10 C8.33037631 8.52417192 6.6643694 7.04425109 5 5.5625 C4.071875 4.73878906 3.14375 3.91507812 2.1875 3.06640625 C1.465625 2.38449219 0.74375 1.70257813 0 1 C0 0.67 0 0.34 0 0 Z " fill="#DDC861" transform="translate(152,118)"/>
<path d="M0 0 C0.33 0 0.66 0 1 0 C1.09765625 6.15234375 1.09765625 6.15234375 1 8 C0.67 8.33 0.34 8.66 0 9 C-0.23024542 10.97353214 -0.45948954 12.94719656 -0.6796875 14.921875 C-1.07311964 17.47438595 -1.90663586 19.66748985 -3 22 C-3.33 22 -3.66 22 -4 22 C-3.3622098 14.47407567 -1.80110167 7.32901118 0 0 Z " fill="#170D14" transform="translate(96,191)"/>
<path d="M0 0 C8.25 0.33 16.5 0.66 25 1 C25 1.33 25 1.66 25 2 C17.41 2 9.82 2 2 2 C2.66 3.65 3.32 5.3 4 7 C3.01 6.67 2.02 6.34 1 6 C0.67 4.02 0.34 2.04 0 0 Z " fill="#FBE04D" transform="translate(195,73)"/>
<path d="M0 0 C1.46240595 3.91610722 0.57452638 7.06457543 -0.3125 11.0625 C-0.57675781 12.29097656 -0.84101563 13.51945313 -1.11328125 14.78515625 C-2 18 -2 18 -4 21 C-4.66 21 -5.32 21 -6 21 C-4.11380178 13.96354423 -2.13072305 6.96640656 0 0 Z " fill="#DBC258" transform="translate(243,233)"/>
<path d="M0 0 C2.4375 1.125 2.4375 1.125 5 3 C5.6875 6.125 5.6875 6.125 6 9 C6.66 9.33 7.32 9.66 8 10 C6.35 10.33 4.7 10.66 3 11 C2.34 9.68 1.68 8.36 1 7 C1.99 6.67 2.98 6.34 4 6 C4 5.34 4 4.68 4 4 C3.01 4 2.02 4 1 4 C0.67 2.68 0.34 1.36 0 0 Z " fill="#F4CE3D" transform="translate(287,52)"/>
<path d="M0 0 C0.66 0 1.32 0 2 0 C1.46246904 6.18160604 -0.54582388 11.326858 -3 17 C-3.33 17 -3.66 17 -4 17 C-4 15.02 -4 13.04 -4 11 C-3.34 11 -2.68 11 -2 11 C-1.855625 9.9275 -1.71125 8.855 -1.5625 7.75 C-1.16250558 5.08337051 -0.72408076 2.58600271 0 0 Z " fill="#191017" transform="translate(185,224)"/>
<path d="M0 0 C0.66 0 1.32 0 2 0 C0.41039668 6.23440168 -1.27600901 12.16287645 -4 18 C-5.09658936 14.71023192 -4.79953138 13.28696233 -4 10 C-3.34 10 -2.68 10 -2 10 C-2 7.69 -2 5.38 -2 3 C-1.34 3 -0.68 3 0 3 C0 2.01 0 1.02 0 0 Z " fill="#181115" transform="translate(161,137)"/>
<path d="M0 0 C0.33 0.66 0.66 1.32 1 2 C0.34 2 -0.32 2 -1 2 C-0.938125 3.0828125 -0.938125 3.0828125 -0.875 4.1875 C-1.00921305 7.20729369 -1.75170619 9.26935729 -3 12 C-3.66 12 -4.32 12 -5 12 C-5 12.99 -5 13.98 -5 15 C-5.66 15 -6.32 15 -7 15 C-3.4028777 3.99280576 -3.4028777 3.99280576 -2 1 C-1.34 0.67 -0.68 0.34 0 0 Z " fill="#DBC350" transform="translate(116,261)"/>
<path d="M0 0 C0.33 0 0.66 0 1 0 C0.48758893 6.02900687 -0.069785 12.02004643 -1 18 C-3 16 -3 16 -3.25 13.3125 C-2.89571468 8.61821953 -1.48106993 4.44320978 0 0 Z " fill="#E7CC5A" transform="translate(150,203)"/>
<path d="M0 0 C3.4375 0.8125 3.4375 0.8125 7 2 C7.33 2.99 7.66 3.98 8 5 C9.40105576 6.42857119 9.40105576 6.42857119 11.0625 7.6875 C12.031875 8.450625 13.00125 9.21375 14 10 C9.83878671 10 8.46553396 8.20445395 5.3125 5.5625 C4.31863281 4.73878906 3.32476562 3.91507812 2.30078125 3.06640625 C1.54152344 2.38449219 0.78226563 1.70257813 0 1 C0 0.67 0 0.34 0 0 Z " fill="#E8CF59" transform="translate(192,95)"/>
<path d="M0 0 C1.15957207 3.47871621 0.77456651 4.34219645 -0.4375 7.6875 C-0.72496094 8.49574219 -1.01242188 9.30398438 -1.30859375 10.13671875 C-1.53675781 10.75160156 -1.76492187 11.36648438 -2 12 C-2.66 12 -3.32 12 -4 12 C-4.33 10.35 -4.66 8.7 -5 7 C-4.01 7 -3.02 7 -2 7 C-2 5.02 -2 3.04 -2 1 C-1.34 0.67 -0.68 0.34 0 0 Z " fill="#130E1A" transform="translate(171,267)"/>
<path d="M0 0 C0.33 0 0.66 0 1 0 C1 4.62 1 9.24 1 14 C0.01 14 -0.98 14 -2 14 C-1.03644647 4.58997722 -1.03644647 4.58997722 0 0 Z " fill="#1C1219" transform="translate(202,252)"/>
<path d="M0 0 C0.66 0 1.32 0 2 0 C2 0.99 2 1.98 2 3 C2.66 3 3.32 3 4 3 C4 3.99 4 4.98 4 6 C4.66 6 5.32 6 6 6 C6.66 8.31 7.32 10.62 8 13 C7.01 13.495 7.01 13.495 6 14 C4.99515796 12.04414675 3.99626195 10.08523763 3 8.125 C2.1646875 6.48917969 2.1646875 6.48917969 1.3125 4.8203125 C0 2 0 2 0 0 Z " fill="#221718" transform="translate(149,99)"/>
<path d="M0 0 C3.36720387 1.39332574 4.9859524 2.9789286 7 6 C5.68 6 4.36 6 3 6 C3 5.34 3 4.68 3 4 C1.35 4 -0.3 4 -2 4 C-1.34 2.68 -0.68 1.36 0 0 Z M-4 3 C-3.34 3.66 -2.68 4.32 -2 5 C-2.66 5 -3.32 5 -4 5 C-4 4.34 -4 3.68 -4 3 Z " fill="#191226" transform="translate(111,81)"/>
<path d="M0 0 C0.66 0.33 1.32 0.66 2 1 C0.75 3.5 0.75 3.5 -1 6 C-2.32 6 -3.64 6 -5 6 C-5.66 7.32 -6.32 8.64 -7 10 C-7.99 10 -8.98 10 -10 10 C-7.02911382 6.00073014 -3.87051275 3.07881696 0 0 Z " fill="#EBCB57" transform="translate(59,52)"/>
<path d="M0 0 C1.09655844 3.28967533 0.90592971 4.66072146 0.25 8 C0.09015625 8.86625 -0.0696875 9.7325 -0.234375 10.625 C-1.06024653 13.18688719 -1.95808375 14.29466335 -4 16 C-3.71653722 14.08210287 -3.4228972 12.16570817 -3.125 10.25 C-2.88136719 8.64898437 -2.88136719 8.64898437 -2.6328125 7.015625 C-2.06776118 4.32291129 -1.36577086 2.36427561 0 0 Z " fill="#E9CE4A" transform="translate(126,232)"/>
<path d="M0 0 C0.66 0.99 1.32 1.98 2 3 C1.5390625 5.04296875 1.5390625 5.04296875 0.625 7.1875 C0.32851562 7.90292969 0.03203125 8.61835938 -0.2734375 9.35546875 C-0.51320312 9.89816406 -0.75296875 10.44085938 -1 11 C-1.33 11 -1.66 11 -2 11 C-2.185625 9.576875 -2.185625 9.576875 -2.375 8.125 C-2.71687177 4.91332809 -2.71687177 4.91332809 -5 3 C-3.35 2.01 -1.7 1.02 0 0 Z " fill="#140C22" transform="translate(191,208)"/>
<path d="M0 0 C0.66 0.33 1.32 0.66 2 1 C2 1.99 2 2.98 2 4 C2.99 4 3.98 4 5 4 C7.1875 7 7.1875 7 9 10 C6.00779732 8.63629701 3.70973471 7.05091917 1.25 4.875 C0.63640625 4.33617187 0.0228125 3.79734375 -0.609375 3.2421875 C-1.06828125 2.83226562 -1.5271875 2.42234375 -2 2 C-1.34 1.34 -0.68 0.68 0 0 Z " fill="#EFCF4D" transform="translate(53,297)"/>
<path d="M0 0 C0 3 0 3 -2.5 5.6875 C-3.325 6.450625 -4.15 7.21375 -5 8 C-5.33 7.01 -5.66 6.02 -6 5 C-5.67 4.67 -5.34 4.34 -5 4 C-5.66 3.34 -6.32 2.68 -7 2 C-4.69 1.34 -2.38 0.68 0 0 Z " fill="#F2CF47" transform="translate(303,288)"/>
<path d="M0 0 C1.28497537 3.85492611 0.4052209 5.40346836 -0.9375 9.1875 C-1.31777344 10.27417969 -1.69804687 11.36085937 -2.08984375 12.48046875 C-2.39019531 13.31191406 -2.69054687 14.14335937 -3 15 C-3.33 15 -3.66 15 -4 15 C-4.33 12.69 -4.66 10.38 -5 8 C-4.01 7.34 -3.02 6.68 -2 6 C-0.78715124 2.94570927 -0.78715124 2.94570927 0 0 Z " fill="#150E16" transform="translate(247,218)"/>
<path d="M0 0 C5.39850427 0.3482906 5.39850427 0.3482906 8 1 C9.3125 2.875 9.3125 2.875 10 5 C11.5412312 6.70921589 11.5412312 6.70921589 13 8 C8.27626146 6.37621488 4.05818166 3.89006982 0 1 C0 0.67 0 0.34 0 0 Z " fill="#EDD357" transform="translate(268,100)"/>
<path d="M0 0 C6.93 3.96 6.93 3.96 14 8 C13.34 8.66 12.68 9.32 12 10 C8.0256929 8.67523097 5.84720708 7.03702088 3 4 C2.01 3.34 1.02 2.68 0 2 C0 1.34 0 0.68 0 0 Z " fill="#241714" transform="translate(230,77)"/>
<path d="M0 0 C0.99 0.33 1.98 0.66 3 1 C3 1.66 3 2.32 3 3 C3.99 3.33 4.98 3.66 6 4 C6 6.31 6 8.62 6 11 C3.13546142 7.58983503 1.65296434 4.09305456 0 0 Z " fill="#1B0F18" transform="translate(143,88)"/>
<path d="M0 0 C0.33 0.99 0.66 1.98 1 3 C1.66 3 2.32 3 3 3 C3.33 6.3 3.66 9.6 4 13 C0.36827755 9.13397287 -0.69457852 6.29397231 -1 1 C-0.67 0.67 -0.34 0.34 0 0 Z " fill="#130D1D" transform="translate(203,79)"/>
<path d="M0 0 C1.65 0 3.3 0 5 0 C5.33 1.98 5.66 3.96 6 6 C3 6 3 6 1.3125 4.6875 C0 3 0 3 0 0 Z " fill="#E9CA45" transform="translate(107,74)"/>
<path d="M0 0 C1.10844919 3.32534757 0.84454356 5.62182575 0 9 C-0.99 9 -1.98 9 -3 9 C-3.33 9.99 -3.66 10.98 -4 12 C-4.33 11.34 -4.66 10.68 -5 10 C-4.0625 7.875 -4.0625 7.875 -3 6 C-2.34 6 -1.68 6 -1 6 C-0.67 4.02 -0.34 2.04 0 0 Z " fill="#E8C83F" transform="translate(198,197)"/>
<path d="M0 0 C0.86625 0.3403125 0.86625 0.3403125 1.75 0.6875 C0.76 1.3475 -0.23 2.0075 -1.25 2.6875 C-1.25 3.3475 -1.25 4.0075 -1.25 4.6875 C-0.26 5.0175 0.73 5.3475 1.75 5.6875 C0.76 6.1825 0.76 6.1825 -0.25 6.6875 C-2.23 5.3675 -4.21 4.0475 -6.25 2.6875 C-2.80384615 -0.38942308 -2.80384615 -0.38942308 0 0 Z " fill="#F1D04E" transform="translate(258.25,88.3125)"/>
<path d="M0 0 C1.65 1.65 3.3 3.3 5 5 C3.02 5.99 1.04 6.98 -1 8 C-0.67 5.36 -0.34 2.72 0 0 Z " fill="#100924" transform="translate(145,112)"/>
<path d="M0 0 C0.97608217 2.92824652 1.08226668 4.95613276 1 8 C0.01 8.33 -0.98 8.66 -2 9 C-2.73323796 11.01508358 -2.73323796 11.01508358 -3 13 C-4 11 -4 11 -3.22265625 8.3984375 C-2.83980469 7.40070313 -2.45695312 6.40296875 -2.0625 5.375 C-1.68222656 4.37210938 -1.30195313 3.36921875 -0.91015625 2.3359375 C-0.60980469 1.56507813 -0.30945313 0.79421875 0 0 Z " fill="#EFD85C" transform="translate(267,161)"/>
<path d="M0 0 C0 0.66 0 1.32 0 2 C-0.66 2 -1.32 2 -2 2 C-2 2.66 -2 3.32 -2 4 C-4.31 4.33 -6.62 4.66 -9 5 C-6.45523312 2.20075644 -3.92372883 0 0 0 Z " fill="#EFCF52" transform="translate(70,47)"/>
<path d="M0 0 C0.99 0.33 1.98 0.66 3 1 C3.33 2.98 3.66 4.96 4 7 C3.01 7.33 2.02 7.66 1 8 C1 6.68 1 5.36 1 4 C0.34 3.67 -0.32 3.34 -1 3 C-0.67 2.01 -0.34 1.02 0 0 Z " fill="#F2D042" transform="translate(81,92)"/>
<path d="M0 0 C4.44870215 -0.39253254 7.14243493 0.84694043 11 3 C8.83032311 3.95465783 7.43671207 4.14401212 5.17578125 3.3984375 C3.4315257 2.64129615 1.71372869 1.82390802 0 1 C0 0.67 0 0.34 0 0 Z " fill="#F2D441" transform="translate(231,77)"/>
<path d="M0 0 C1.98 0 3.96 0 6 0 C6.309375 0.78375 6.61875 1.5675 6.9375 2.375 C7.92875038 4.92330128 7.92875038 4.92330128 9 7 C5.18315774 5.44499019 2.80804268 2.96404505 0 0 Z " fill="#EBD253" transform="translate(167,75)"/>
<path d="M0 0 C1.17539996 0.92652701 2.34010577 1.86663387 3.5 2.8125 C4.1496875 3.33457031 4.799375 3.85664062 5.46875 4.39453125 C7 6 7 6 7 9 C1.21538462 5.67692308 1.21538462 5.67692308 0.125 2.25 C0.08375 1.5075 0.0425 0.765 0 0 Z " fill="#EACA58" transform="translate(292,56)"/>
<path d="M0 0 C1.125 1.75 1.125 1.75 2 4 C1.125 6.25 1.125 6.25 0 8 C-0.99 8 -1.98 8 -3 8 C-1.125 2.25 -1.125 2.25 0 0 Z " fill="#EECD4C" transform="translate(42,72)"/>
<path d="M0 0 C-3.85756507 2.15305957 -6.55129785 3.39253254 -11 3 C-7.18178484 -0.02823961 -4.81391924 -1.49397494 0 0 Z " fill="#EECF56" transform="translate(81,44)"/>
<path d="M0 0 C2.3125 -0.3125 2.3125 -0.3125 5 0 C6.8125 2.5 6.8125 2.5 8 5 C4.62496331 3.8141763 2.35277269 2.72426311 0 0 Z " fill="#EFC94F" transform="translate(62,307)"/>
<path d="M0 0 C3 1 3 1 4.25 2.8125 C5.11637742 5.33943414 4.88492145 6.52221994 4 9 C2 7 2 7 1.875 4.375 C1.91625 3.59125 1.9575 2.8075 2 2 C1.34 2 0.68 2 0 2 C0 1.34 0 0.68 0 0 Z " fill="#EAD14E" transform="translate(99,133)"/>
<path d="M0 0 C3.057952 1.73559438 5.63379989 3.38472619 8 6 C6.35 6 4.7 6 3 6 C2.67 4.68 2.34 3.36 2 2 C1.34 2 0.68 2 0 2 C0 1.34 0 0.68 0 0 Z " fill="#17111A" transform="translate(198,101)"/>
<path d="M0 0 C3 1 3 1 4.1875 2.75 C5.10819096 5.29960574 5.14948718 7.30923081 5 10 C2.35534962 6.8745041 1.15585285 3.91211733 0 0 Z " fill="#231310" transform="translate(76,76)"/>
<path d="M0 0 C1.32 0.33 2.64 0.66 4 1 C4.33 2.32 4.66 3.64 5 5 C2.525 4.01 2.525 4.01 0 3 C0 2.01 0 1.02 0 0 Z " fill="#FBD327" transform="translate(210,106)"/>
<path d="M0 0 C1.9375 0.75 1.9375 0.75 4 2 C4.75 4.125 4.75 4.125 5 6 C4.01 6 3.02 6 2 6 C0 3 0 3 0 0 Z " fill="#EFD04B" transform="translate(205,93)"/>
<path d="M0 0 C0.99 0.33 1.98 0.66 3 1 C3.33 3.97 3.66 6.94 4 10 C0 4 0 4 0 0 Z " fill="#211514" transform="translate(82,88)"/>
<path d="M0 0 C3.057952 1.73559438 5.63379989 3.38472619 8 6 C5.69 5.67 3.38 5.34 1 5 C0.67 3.35 0.34 1.7 0 0 Z " fill="#20111B" transform="translate(168,77)"/>
</svg>
