<?xml version="1.0" encoding="UTF-8"?>
<svg version="1.1" xmlns="http://www.w3.org/2000/svg" width="800" height="800">
<path d="M0 0 C264 0 528 0 800 0 C800 264 800 528 800 800 C536 800 272 800 0 800 C0 536 0 272 0 0 Z " fill="#EEEDEE" transform="translate(0,0)"/>
<path d="M0 0 C3.23933824 2.43914457 6.29028187 4.97611165 9 8 C9 8.66 9 9.32 9 10 C9.79921875 9.93039063 10.5984375 9.86078125 11.421875 9.7890625 C24.61212091 9.13883911 32.72629775 14.44854463 42.16821289 22.95239258 C45.08628147 25.72930437 46.8146177 28.14402112 48 32 C48.66 32 49.32 32 50 32 C50.72316406 33.55460937 50.72316406 33.55460937 51.4609375 35.140625 C52.09892902 36.51043032 52.73695148 37.88022123 53.375 39.25 C53.69210937 39.93191406 54.00921875 40.61382812 54.3359375 41.31640625 C54.6453125 41.98027344 54.9546875 42.64414063 55.2734375 43.328125 C55.57217773 43.97072266 55.87091797 44.61332031 56.17871094 45.27539062 C56.82548616 46.63354169 57.517958 47.96993409 58.2265625 49.296875 C59 51 59 51 59 54 C59.99966797 53.566875 59.99966797 53.566875 61.01953125 53.125 C67.35837369 50.571732 74.20462274 48.00024463 81 50 C88.78635444 55.50847767 95.21962455 63.26071888 101.75390625 70.14453125 C103.02427734 71.44583984 103.02427734 71.44583984 104.3203125 72.7734375 C105.45364014 73.95558838 105.45364014 73.95558838 106.60986328 75.16162109 C111.19820272 78.69075245 116.88211732 78.17167318 122.48046875 78.4296875 C123.9056324 78.50326126 125.33076188 78.57749946 126.75585938 78.65234375 C128.98082834 78.7662172 131.20568217 78.87580317 133.43139648 78.97412109 C135.59444575 79.07152364 137.7559615 79.18663136 139.91796875 79.3046875 C141.20469482 79.36640137 142.4914209 79.42811523 143.81713867 79.49169922 C147 80 147 80 148.88769531 81.34814453 C150.70232027 84.04299802 151.00190208 86.82221062 151.5625 90 C151.68906982 90.71510742 151.81563965 91.43021484 151.94604492 92.16699219 C152.79555102 97.18043522 153.35029945 102.1886187 153.8125 107.25 C154.68681933 116.79414321 156.31544613 126.18631506 157.9375 135.625 C159.70150539 145.89808459 161.37557032 156.13288067 162.5 166.5 C163.6988581 177.52949454 165.5246388 188.41446437 167.40274048 199.34365845 C169.23223428 210.01759342 170.85346413 220.67054297 171.97460938 231.44726562 C172.65414238 237.812687 173.69094519 244.0823671 174.83210754 250.37835693 C176.08291613 257.32941094 177.10511889 264.30283782 178.07745361 271.29754639 C178.60275784 275.07553438 179.13810686 278.85210648 179.671875 282.62890625 C179.78097198 283.4027063 179.89006897 284.17650635 180.00247192 284.97375488 C181.17559527 293.27924784 182.39846945 301.5772562 183.625 309.875 C184.99300478 319.14384483 186.35970633 328.41278789 187.6875 337.6875 C187.80697998 338.52007324 187.92645996 339.35264648 188.04956055 340.21044922 C188.7271157 344.96837051 189.34327378 349.73082229 189.9375 354.5 C190.56887036 359.34746333 191.3957079 364.11058568 192.36254883 368.89868164 C194.45010008 379.24096153 195.95523699 389.59662124 197.25 400.0625 C197.33876404 400.77493866 197.42752808 401.48737732 197.51898193 402.22140503 C199 414.18298263 199 414.18298263 199 419 C195.62037826 420.44505088 192.42492214 421.42866294 188.81640625 422.11328125 C187.81802734 422.30664062 186.81964844 422.5 185.79101562 422.69921875 C184.19290039 423.00279297 184.19290039 423.00279297 182.5625 423.3125 C174.34131384 424.91198961 166.15685912 426.59923421 158 428.5 C150.17270008 430.31982232 142.32404184 431.95753129 134.4375 433.5 C125.79343445 435.19154735 117.23381689 437.09397753 108.68041992 439.19311523 C101.7003615 440.88494749 94.68364436 442.25402643 87.61914062 443.54223633 C81.2697392 444.71328159 75.00390508 446.11007492 68.76660156 447.78149414 C58.02092516 450.50917928 48.43279524 448.02230026 37.9375 445.625 C28.88270732 443.56591082 19.94808161 441.76137204 10.71644592 440.71260071 C4.49446425 439.9890943 -1.52636036 438.71346329 -7.625 437.3125 C-19.00304779 434.79286188 -30.41287752 432.53954171 -41.875 430.4375 C-42.68039215 430.28958008 -43.4857843 430.14166016 -44.31558228 429.98925781 C-52.69811121 428.45453352 -61.08642972 426.96478298 -69.49609375 425.5859375 C-70.50032379 425.42101555 -70.50032379 425.42101555 -71.52484131 425.25276184 C-74.60530777 424.74884435 -77.68685137 424.25412486 -80.77099609 423.77319336 C-86.87821718 422.79577032 -92.87329923 421.58728714 -98.87890625 420.11328125 C-109.69161999 417.47487624 -120.65366608 415.71372236 -131.625 413.875 C-134.72038854 413.35451078 -137.81545748 412.8323624 -140.90975952 412.30545044 C-142.81570258 411.98101483 -144.72226799 411.660206 -146.62954712 411.34371948 C-151.53495092 410.51002856 -156.2269289 409.43571504 -161 408 C-168.72376015 406.20451481 -176.55316331 405.17081786 -184.40820312 404.14453125 C-189.44098278 403.45874589 -194.15656675 402.53717717 -199 401 C-199.25129492 394.77828438 -198.26022998 388.99192541 -197.1875 382.875 C-195.58533847 373.3569003 -194.37393054 363.85586265 -193.4375 354.25 C-192.14171154 341.00852534 -190.58639502 327.83314238 -188.25 314.73046875 C-186.61330767 305.53087171 -185.4723355 296.36466795 -184.5625 287.0625 C-183.6652401 277.91291046 -182.60845262 268.83302255 -181.1875 259.75 C-179.01360438 245.80403335 -177.35821321 231.80401598 -175.67773438 217.79171753 C-173.84706579 202.55642541 -171.86869658 187.35628606 -169.56079102 172.18554688 C-168.46614505 164.85782006 -167.69427634 157.60170838 -167.22631836 150.20776367 C-166.91316292 145.76919912 -166.36074862 141.39657385 -165.6875 137 C-165.58244141 136.20722656 -165.47738281 135.41445312 -165.36914062 134.59765625 C-164.59915719 129.5401694 -163.65079947 125.79396808 -160 122 C-156.41368605 120.22620674 -152.70135754 119.08351009 -148.875 117.9375 C-147.80926758 117.60024902 -146.74353516 117.26299805 -145.64550781 116.91552734 C-138.32564266 114.62492004 -130.95620547 112.48421322 -123.53466797 110.54663086 C-120.83124815 109.83617033 -118.31449199 109.16403359 -115.828125 107.8671875 C-113.47452114 106.75073439 -111.57091417 106.85717143 -109 107 C-108.90203125 106.42894531 -108.8040625 105.85789062 -108.703125 105.26953125 C-104.19397628 80.81906103 -93.70585794 52.5802473 -78 33 C-77.01 32.67 -76.02 32.34 -75 32 C-74.62875 30.9790625 -74.62875 30.9790625 -74.25 29.9375 C-69.01149962 17.6270241 -52.95687944 6.40614628 -41.1875 1.1875 C-27.96537897 -3.88212154 -12.90565683 -7.48693554 0 0 Z " fill="#97BF4A" transform="translate(415,26)"/>
<path d="M0 0 C4.69778313 1.42235309 7.46497641 4.14415219 10.74609375 7.62890625 C11.84153965 8.75741121 12.9372509 9.88565863 14.03320312 11.01367188 C15.74039274 12.78919824 17.4432731 14.56856933 19.14086914 16.35327148 C20.79001987 18.08107805 22.45443534 19.79300625 24.12109375 21.50390625 C24.62128525 22.03931534 25.12147675 22.57472443 25.63682556 23.12635803 C28.99046857 26.54972248 31.23686732 27.71829322 36 28 C37.17844482 28.08233887 38.35688965 28.16467773 39.57104492 28.24951172 C40.86115479 28.30896973 42.15126465 28.36842773 43.48046875 28.4296875 C44.9056324 28.50326126 46.33076188 28.57749946 47.75585938 28.65234375 C49.98082834 28.7662172 52.20568217 28.87580317 54.43139648 28.97412109 C56.59444575 29.07152364 58.7559615 29.18663136 60.91796875 29.3046875 C62.20469482 29.36640137 63.4914209 29.42811523 64.81713867 29.49169922 C68 30 68 30 69.88769531 31.34814453 C71.70232027 34.04299802 72.00190208 36.82221062 72.5625 40 C72.75235474 41.07266113 72.75235474 41.07266113 72.94604492 42.16699219 C73.79555102 47.18043522 74.35029945 52.1886187 74.8125 57.25 C75.68681933 66.79414321 77.31544613 76.18631506 78.9375 85.625 C80.70150539 95.89808459 82.37557032 106.13288067 83.5 116.5 C84.6988581 127.52949454 86.5246388 138.41446437 88.40274048 149.34365845 C90.23223428 160.01759342 91.85346413 170.67054297 92.97460938 181.44726562 C93.65414238 187.812687 94.69094519 194.0823671 95.83210754 200.37835693 C97.08291613 207.32941094 98.10511889 214.30283782 99.07745361 221.29754639 C99.60275784 225.07553438 100.13810686 228.85210648 100.671875 232.62890625 C100.78097198 233.4027063 100.89006897 234.17650635 101.00247192 234.97375488 C102.17559527 243.27924784 103.39846945 251.5772562 104.625 259.875 C105.99300478 269.14384483 107.35970633 278.41278789 108.6875 287.6875 C108.80697998 288.52007324 108.92645996 289.35264648 109.04956055 290.21044922 C109.7271157 294.96837051 110.34327378 299.73082229 110.9375 304.5 C111.56887036 309.34746333 112.3957079 314.11058568 113.36254883 318.89868164 C115.45010008 329.24096153 116.95523699 339.59662124 118.25 350.0625 C118.33876404 350.77493866 118.42752808 351.48737732 118.51898193 352.22140503 C120 364.18298263 120 364.18298263 120 369 C116.62037826 370.44505088 113.42492214 371.42866294 109.81640625 372.11328125 C108.81802734 372.30664062 107.81964844 372.5 106.79101562 372.69921875 C105.19290039 373.00279297 105.19290039 373.00279297 103.5625 373.3125 C95.34131384 374.91198961 87.15685912 376.59923421 79 378.5 C71.17270008 380.31982232 63.32404184 381.95753129 55.4375 383.5 C46.79713788 385.19082263 38.24078883 387.09109824 29.69140625 389.19091797 C22.59294778 390.91245746 15.45380434 392.29960787 8.26977539 393.61254883 C2.65432992 394.64825213 -2.84522119 395.88511873 -8.33203125 397.484375 C-11.94013049 398.18169433 -15.32681252 398.07806987 -19 398 C-19.45150797 381.71792781 -18.77745818 365.61365159 -17.6875 349.375 C-16.39921204 330.12215421 -15.35248063 310.86725689 -14.4709816 291.59223175 C-14.37710478 289.54588044 -14.28203899 287.4995878 -14.18661499 285.45330811 C-14.12591827 284.14533264 -14.06522156 282.83735718 -14.00268555 281.48974609 C-13.94992966 280.35491791 -13.89717377 279.22008972 -13.84281921 278.0508728 C-13.37743489 267.64466864 -12.96211437 257.24133169 -12.66869354 246.8287735 C-12.19664869 230.18865856 -11.43079295 213.57486848 -10.51803398 196.95263481 C-10.32458133 193.41117425 -10.1359625 189.86945593 -9.94689941 186.32775879 C-9.42853232 176.63237041 -8.90316836 166.9373641 -8.37761688 157.24236298 C-7.89431339 148.32532158 -7.41267979 139.4081971 -6.93664885 130.49076414 C-6.75044954 127.00583118 -6.56288536 123.52098547 -6.37153625 120.03633118 C-5.49001785 103.94776659 -4.76945945 87.86911546 -4.36220551 71.76198578 C-4.18742552 65.27244581 -3.89518465 58.843455 -3.22994232 52.38447952 C-2.82516692 48.18699793 -2.6732602 43.97791518 -2.5 39.765625 C-2.41670209 37.87369636 -2.33336769 35.98176932 -2.25 34.08984375 C-2.123938 31.15840985 -1.99902402 28.22693098 -1.875 25.29541016 C-1.75289465 22.43118116 -1.62662315 19.5671573 -1.5 16.703125 C-1.46455078 15.83318909 -1.42910156 14.96325317 -1.39257812 14.06695557 C-1.18087499 9.31373277 -0.76098999 4.69752777 0 0 Z " fill="#618D40" transform="translate(494,76)"/>
<path d="M0 0 C-0.61571089 4.51521318 -1.78285274 8.48497521 -3.375 12.75 C-5.16871074 17.56990983 -6.73635077 22.39598041 -8.19238281 27.328125 C-9.59229568 31.95951751 -11.14505079 36.53951425 -12.6875 41.125 C-13.00783203 42.08148438 -13.32816406 43.03796875 -13.65820312 44.0234375 C-14.43741033 46.34942916 -15.21802674 48.67493711 -16 51 C-20.06893076 50.40329926 -23.29266975 49.43917091 -27.04443359 47.75878906 C-34.42164042 44.8963223 -42.31098658 44.66040564 -50.125 44.6875 C-51.06214844 44.67138672 -51.99929688 44.65527344 -52.96484375 44.63867188 C-60.26649678 44.63356582 -66.31998498 45.78275292 -72.3125 50.25 C-76.42598957 54.45915212 -77.76411747 58.14242504 -78.5 63.9375 C-78.14552856 71.60294484 -72.34164001 77.10032096 -67.09375 82.1328125 C-63.13149813 85.66631323 -58.86760022 88.7061453 -54.5078125 91.7265625 C-49.04310618 95.57561652 -43.97433846 99.66513735 -39.0625 104.1875 C-38.51891846 104.68652832 -37.97533691 105.18555664 -37.4152832 105.69970703 C-26.13679672 116.26329802 -18.37590333 130.07287946 -17.65625 145.6328125 C-17.29851417 160.24209552 -17.83807993 174.89417347 -25 188 C-25.63035156 189.19496094 -25.63035156 189.19496094 -26.2734375 190.4140625 C-31.78314622 200.24630514 -39.42313098 208.98064024 -49 215 C-49.55107422 215.35400879 -50.10214844 215.70801758 -50.66992188 216.07275391 C-66.39682382 225.73772566 -86.2669304 225.48861478 -103.98120117 221.90795898 C-118.94397166 218.19089585 -135.16415912 210.82832526 -145.66015625 199.3828125 C-146.97230304 197.87586574 -146.97230304 197.87586574 -149 197 C-148.48972327 192.20339873 -147.41054119 188.05148214 -145.81640625 183.5078125 C-144.92130094 180.75825457 -144.2343509 177.99972837 -143.5625 175.1875 C-142.06456484 168.99656585 -140.09929411 163.01016183 -138 157 C-134.61916578 157.58290245 -133.34812151 158.57885079 -131 161 C-117.82655657 169.8856883 -105.26571471 176.48911473 -89 175 C-84.13533718 173.26262042 -80.61915322 170.67512272 -77.921875 166.21875 C-75.65521951 160.76340966 -76.11149188 154.49566252 -78.0625 149.015625 C-81.30354707 142.63921718 -85.30134953 138.24458581 -91 134 C-92.04607422 133.21689453 -92.04607422 133.21689453 -93.11328125 132.41796875 C-94.41367374 131.45063347 -95.72243995 130.49434799 -97.04296875 129.5546875 C-99.5626807 127.55300017 -101.7404261 125.29020066 -104 123 C-104.86238281 122.20722656 -105.72476563 121.41445313 -106.61328125 120.59765625 C-117.44484462 110.42445129 -125.7688485 97.79252577 -126.46875 82.55859375 C-126.50239878 80.18511148 -126.51198914 77.8111905 -126.5 75.4375 C-126.49577026 73.58209595 -126.49577026 73.58209595 -126.49145508 71.68920898 C-126.28331581 59.87324328 -124.25138791 50.15850536 -118 40 C-117.608125 38.96875 -117.21625 37.9375 -116.8125 36.875 C-114.54479468 31.39370157 -110.84366912 26.47911442 -107 22 C-106.01 21.67 -105.02 21.34 -104 21 C-103.57460938 20.12794922 -103.57460938 20.12794922 -103.140625 19.23828125 C-98.38213882 9.90056692 -85.23670614 3.8205882 -76 0 C-73.68009727 -0.71199733 -71.34566251 -1.37810268 -69 -2 C-67.7728125 -2.34160156 -66.545625 -2.68320313 -65.28125 -3.03515625 C-64.0334375 -3.37417969 -62.785625 -3.71320313 -61.5 -4.0625 C-60.2521875 -4.40410156 -59.004375 -4.74570313 -57.71875 -5.09765625 C-39.388564 -9.54542197 -16.92025386 -8.76227432 0 0 Z " fill="#FDFEFC" transform="translate(426,184)"/>
<path d="M0 0 C8.00362001 6.60892979 12.98846843 14.93450941 14.75 25.25 C16.5102452 50.9122414 10.98919531 76.47029169 -6.25 96.25 C-15.28062745 106.41655543 -28.41245875 114.4554074 -42.23950195 115.38354492 C-51.55871092 115.83079189 -59.8871418 115.95673426 -68.25 111.25 C-70.05423211 120.52707999 -71.71896646 129.80638039 -73.0715332 139.16137695 C-74.10086676 146.00483092 -75.67592272 152.42899846 -77.25 159.25 C-87.81 159.25 -98.37 159.25 -109.25 159.25 C-107.51324795 142.98768539 -104.21281982 127.08578864 -100.6875 111.125 C-98.12373507 99.31439751 -96.21515158 87.35093012 -94.31640625 75.41796875 C-92.57308189 64.53357685 -90.55896256 53.7666002 -88.1875 43 C-86.3801182 34.77773307 -84.67932625 26.57839624 -83.4375 18.25 C-83.27012329 17.13189941 -83.27012329 17.13189941 -83.09936523 15.99121094 C-82.22093317 9.74489403 -81.77601033 3.56212401 -81.25 -2.75 C-71.68 -2.75 -62.11 -2.75 -52.25 -2.75 C-52.25 2.53 -52.25 7.81 -52.25 13.25 C-51.3425 12.095 -50.435 10.94 -49.5 9.75 C-37.64893258 -3.7871949 -15.94909991 -11.34554221 0 0 Z " fill="#050306" transform="translate(493.25,573.75)"/>
<path d="M0 0 C1.19477733 1.03078829 2.36229053 2.09404925 3.5 3.1875 C4.13550781 3.77015625 4.77101563 4.3528125 5.42578125 4.953125 C14.70178426 13.78741358 17.56375974 24.75147198 18.08178711 37.27172852 C18.41773886 59.93993051 11.71305915 79.74983906 -3.9375 96.25 C-16.94143571 108.34710617 -31.72397948 114.02362907 -49.45605469 113.85180664 C-59.40295019 113.37653882 -70.83647733 110.16352267 -78.05078125 102.94921875 C-87.9225311 90.94878969 -90.68345454 81.5053202 -90.75 66.125 C-90.770625 64.96033203 -90.79125 63.79566406 -90.8125 62.59570312 C-90.86091698 51.73214413 -88.73262685 41.97352335 -84.3125 32.0625 C-84.01061768 31.38364746 -83.70873535 30.70479492 -83.39770508 30.00537109 C-80.59448201 23.96489606 -77.05337619 19.05490214 -72.5 14.1875 C-71.73816406 13.33542969 -70.97632813 12.48335937 -70.19140625 11.60546875 C-53.60683622 -6.09358439 -21.47794485 -15.43597963 0 0 Z " fill="#050305" transform="translate(373.5,575.8125)"/>
<path d="M0 0 C10.56 0 21.12 0 32 0 C30.60431139 13.14885582 29.0771233 25.76388864 25.77783203 38.55810547 C23.73151434 46.63831625 22.72811157 54.70822196 22 63 C22.58007812 62.46890625 23.16015625 61.9378125 23.7578125 61.390625 C35.29063719 50.96160201 44.89479027 47.27093524 60.64453125 47.65625 C68.28206826 48.43867521 73.19715362 53.2888433 78 59 C86.72846847 73.2564985 81.56906817 93.58710821 78.125 108.8125 C77.39198868 112.15095145 76.66857808 115.4914569 75.9453125 118.83203125 C75.77013092 119.63269516 75.59494934 120.43335907 75.41445923 121.25828552 C74.21612812 126.79471014 73.26964724 132.33326641 72.46533203 137.94165039 C71.62942399 143.43557489 70.48867914 148.86936551 69.375 154.3125 C68.59125 158.169375 67.8075 162.02625 67 166 C56.11 166 45.22 166 34 166 C34.57714513 162.5371292 35.15114779 159.13379272 35.8671875 155.70703125 C37.58985792 147.34847653 39.21982769 139.00129603 40.5 130.5625 C41.57416817 123.49363567 42.79473014 116.46283762 44.125 109.4375 C44.29580078 108.52621338 44.46660156 107.61492676 44.64257812 106.67602539 C44.88524414 105.41133423 44.88524414 105.41133423 45.1328125 104.12109375 C45.27605957 103.3727124 45.41930664 102.62433105 45.56689453 101.85327148 C46 100 46 100 47 98 C47.31340722 95.0492115 47.32395224 92.09041089 47.375 89.125 C47.41238281 88.30902344 47.44976562 87.49304688 47.48828125 86.65234375 C47.56855277 81.60199985 47.56855277 81.60199985 44.80859375 77.47265625 C40.13547805 75.02235776 36.13262978 74.98793216 31 76 C22.77572873 79.89417791 18.0408145 89.81540949 15 98 C12.76645926 105.53766887 11.41569142 113.27664535 10 121 C9.64076885 122.8494942 9.27886172 124.698471 8.9140625 126.546875 C7.59065898 133.30003512 6.3288262 140.06271972 5.15625 146.84375 C5.0236377 147.60961426 4.89102539 148.37547852 4.75439453 149.16455078 C4.51164273 150.57888465 4.27267089 151.99387579 4.03857422 153.40966797 C3.29748703 157.76673051 2.22896208 161.69863272 1 166 C-9.56 166 -20.12 166 -31 166 C-29.6551914 151.20710538 -26.83670046 137.07336478 -23.44238281 122.62670898 C-22.26175524 117.50161134 -21.44784734 112.39765769 -20.75 107.1875 C-19.56206298 98.78451001 -17.89222724 90.53508657 -16.0625 82.25 C-13.92194222 72.53984807 -12.04758728 62.84040335 -10.46899414 53.02416992 C-7.6022245 35.21231004 -4.33844587 17.51446667 0 0 Z " fill="#040404" transform="translate(192,521)"/>
<path d="M0 0 C1.43352212 0.00015908 2.86704998 0.00585132 4.30053711 0.01586914 C5.43041298 0.01799156 5.43041298 0.01799156 6.58311462 0.02015686 C8.99807646 0.02577163 11.41294687 0.03832656 13.82788086 0.05102539 C15.46134307 0.05603849 17.09480672 0.06060173 18.72827148 0.06469727 C22.74067671 0.07574585 26.75301326 0.09302033 30.76538086 0.11352539 C26.15880864 11.73124768 20.92039665 23.08155279 15.21069336 34.19555664 C13.77383766 36.996417 13.77383766 36.996417 12.80834961 39.52368164 C11.39392688 43.03589988 9.6692419 46.36584393 7.95288086 49.73852539 C4.07447414 57.43452153 0.44984967 65.20782366 -2.96508789 73.12133789 C-7.86873488 84.417239 -13.34326696 95.30213759 -19.23461914 106.11352539 C-19.57460938 106.74742187 -19.91459961 107.38131836 -20.26489258 108.03442383 C-27.88106349 122.20746067 -37.03157055 135.53630819 -48.23461914 147.11352539 C-49.01772461 148.0068457 -49.01772461 148.0068457 -49.81665039 148.91821289 C-57.83658199 157.72998584 -69.6441924 165.32014916 -81.23461914 168.11352539 C-82.22461914 168.11352539 -83.21461914 168.11352539 -84.23461914 168.11352539 C-85.39056783 164.76276023 -86.53251886 161.40738238 -87.67211914 158.05102539 C-87.99760742 157.10807617 -88.3230957 156.16512695 -88.65844727 155.19360352 C-90.36424749 150.14654511 -91.71203039 145.42037731 -92.23461914 140.11352539 C-91.71254883 139.90598633 -91.19047852 139.69844727 -90.65258789 139.48461914 C-77.20914685 133.85767972 -63.20579639 125.0371 -57.23461914 111.11352539 C-56.44358913 100.03910524 -59.64909838 88.7872653 -61.77786255 77.98974609 C-63.70645732 68.20032503 -65.57674437 58.41540539 -67.11889648 48.55639648 C-68.09571193 42.51725285 -69.44465181 36.57814052 -70.79711914 30.61352539 C-73.02001103 20.78207186 -74.32202263 11.15208701 -75.23461914 1.11352539 C-64.01461914 1.11352539 -52.79461914 1.11352539 -41.23461914 1.11352539 C-38.98775234 15.71815961 -38.98775234 15.71815961 -38.45336914 22.07446289 C-38.39435425 22.75296295 -38.33533936 23.43146301 -38.27453613 24.13052368 C-38.09048896 26.24953275 -37.91190239 28.36894059 -37.73461914 30.48852539 C-36.93592671 39.98922492 -35.97343525 49.41313144 -34.6628418 58.85913086 C-34.17374766 62.57613476 -33.87522929 66.24611293 -33.67211914 69.98852539 C-33.79251573 73.86935917 -33.79251573 73.86935917 -32.23461914 77.11352539 C-31.99227539 76.27950195 -31.74993164 75.44547852 -31.50024414 74.58618164 C-28.42765712 64.26937982 -28.42765712 64.26937982 -26.23461914 59.61352539 C-24.5745731 56.08027566 -23.40308841 52.54533098 -22.29711914 48.80102539 C-20.69953018 43.42164382 -18.73268117 38.34949572 -16.51586914 33.19946289 C-15.1598807 29.93351511 -13.96693197 26.63799148 -12.79711914 23.30102539 C-10.96463623 18.08862955 -9.02957305 12.93277175 -6.98461914 7.80102539 C-6.72624268 7.14835693 -6.46786621 6.49568848 -6.20166016 5.82324219 C-3.91653404 0.13745855 -3.91653404 0.13745855 0 0 Z " fill="#060407" transform="translate(728.234619140625,570.886474609375)"/>
<path d="M0 0 C0.90234375 -0.00773438 1.8046875 -0.01546875 2.734375 -0.0234375 C8.00397441 -0.00807424 12.38938103 0.52893701 17.375 2.25 C15.94433303 10.4198614 13.73362583 18.30394988 11.375 26.25 C10.3128125 26.25257813 9.250625 26.25515625 8.15625 26.2578125 C-2.31532865 26.32077596 -2.31532865 26.32077596 -11.15234375 31.390625 C-15.95469318 37.45406884 -17.43044289 44.93480963 -19.625 52.25 C-12.365 52.25 -5.105 52.25 2.375 52.25 C1.0625 74.5625 1.0625 74.5625 -1.625 77.25 C-3.33272358 77.33713831 -5.04398649 77.35700007 -6.75390625 77.34765625 C-8.30561523 77.34282227 -8.30561523 77.34282227 -9.88867188 77.33789062 C-10.97728516 77.32951172 -12.06589844 77.32113281 -13.1875 77.3125 C-14.8262207 77.30573242 -14.8262207 77.30573242 -16.49804688 77.29882812 C-19.20708495 77.28699826 -21.91601599 77.27051543 -24.625 77.25 C-24.66310791 77.94947754 -24.70121582 78.64895508 -24.74047852 79.36962891 C-25.29819267 87.64656774 -26.77903774 95.53312807 -28.5625 103.625 C-30.38646631 111.96820354 -31.95431612 120.24640526 -33.09985352 128.70996094 C-34.02105053 134.91979671 -35.32951323 141.04676443 -36.625 147.1875 C-37.01558594 149.07952148 -37.01558594 149.07952148 -37.4140625 151.00976562 C-38.63353877 156.85154968 -39.98204049 162.4996417 -41.625 168.25 C-52.185 168.25 -62.745 168.25 -73.625 168.25 C-72.50192308 158.14230769 -72.50192308 158.14230769 -71.6875 154.09375 C-71.51476562 153.21589844 -71.34203125 152.33804688 -71.1640625 151.43359375 C-70.8046875 149.64453125 -70.4453125 147.85546875 -70.0859375 146.06640625 C-69.23970518 141.76577784 -68.50429323 137.51895817 -68.0625 133.15625 C-67.625 129.25 -67.625 129.25 -66.625 128.25 C-66.13309757 125.94179861 -65.69320389 123.64367843 -65.28515625 121.3203125 C-65.15813828 120.61534637 -65.0311203 119.91038025 -64.9002533 119.18405151 C-64.4922918 116.91501478 -64.08980781 114.64504528 -63.6875 112.375 C-63.4202864 110.88274718 -63.15271238 109.39055885 -62.88476562 107.8984375 C-62.36573342 105.00566092 -61.84894468 102.11249823 -61.33398438 99.21899414 C-60.57585248 94.96436051 -59.7992266 90.71319441 -59.01586914 86.46313477 C-58.47501808 83.40078943 -58.03596856 80.33226421 -57.625 77.25 C-62.245 77.25 -66.865 77.25 -71.625 77.25 C-70.95682164 71.54129167 -70.08665521 65.90490487 -69.0625 60.25 C-68.92392578 59.47527344 -68.78535156 58.70054687 -68.64257812 57.90234375 C-68.30523879 56.01789645 -67.96538635 54.1338993 -67.625 52.25 C-62.345 52.25 -57.065 52.25 -51.625 52.25 C-50.94780003 47.60205365 -50.94780003 47.60205365 -50.37109375 42.94140625 C-48.53904211 30.30256898 -41.15788674 17.10112598 -31.10546875 9.29296875 C-20.96679383 2.0044045 -12.43545837 -0.10751117 0 0 Z " fill="#060407" transform="translate(643.625,518.75)"/>
<path d="M0 0 C-0.42799086 8.27449001 -3.04444196 15.33299888 -6 23 C-9.97848164 22.58121246 -13.49657704 22.16147529 -17.3125 20.9375 C-23.92885028 19.25537705 -30.35957553 18.8603972 -36.625 21.875 C-40.01810471 23.60403248 -40.01810471 23.60403248 -41 26 C-41.44506448 29.24261265 -41.62459178 31.79599968 -40.08203125 34.76953125 C-37.07850987 38.67146665 -33.66133405 40.88745367 -29.375 43.25 C-20.72463766 48.0545599 -11.09393806 55.2240934 -6.70703125 64.359375 C-4.42409748 72.88569117 -4.84961212 82.78406932 -8.6796875 90.765625 C-17.13322716 105.07161519 -27.7851504 110.59455253 -43.41015625 114.62109375 C-53.38111202 116.0798912 -64.30064743 115.67059876 -74 113 C-74.969375 112.75894531 -75.93875 112.51789063 -76.9375 112.26953125 C-84.50892857 110.32738095 -84.50892857 110.32738095 -88 108 C-87.34969678 99.38348232 -84.19577702 91.95361546 -81 84 C-80.46632813 84.18175781 -79.93265625 84.36351562 -79.3828125 84.55078125 C-77.79685184 85.08583718 -76.2080278 85.61244418 -74.6171875 86.1328125 C-72.94729986 86.68611855 -71.28462987 87.26206629 -69.6328125 87.8671875 C-61.70344056 90.59697128 -53.35142859 91.47506054 -45.3125 88.75 C-42.33859887 86.49948022 -41.30581851 84.48849715 -40.55859375 80.8515625 C-40.38175995 77.60010238 -40.25243226 75.05946687 -42.1796875 72.328125 C-46.44064311 68.53607838 -51.53669749 65.73008556 -56.35546875 62.7109375 C-65.23637037 56.9652434 -71.72020514 49.20380625 -75 39 C-76.19458058 28.5521603 -72.76869844 19.58238432 -67 11 C-52.81788866 -5.26132679 -18.60474707 -12.40316472 0 0 Z " fill="#050505" transform="translate(160,574)"/>
<path d="M0 0 C10.89 0 21.78 0 33 0 C31.75288833 7.48267003 30.45953004 14.72912638 28.78125 22.08984375 C28.1174117 25.41235443 27.58360277 28.70824946 27.08984375 32.05859375 C26.02304345 39.14476156 24.56663626 46.12074825 23.0625 53.125 C21.13747285 62.22575974 19.38563821 71.29762308 18.04760742 80.50219727 C17.1512326 86.49067318 15.80731102 92.31561645 14.34594727 98.1887207 C13.20210927 102.86663141 12.4641736 107.41105119 12.17578125 112.21484375 C12 114 12 114 11 116 C0.11 116 -10.78 116 -22 116 C-20.87762207 105.89859859 -20.87762207 105.89859859 -19.87890625 101.6171875 C-19.66669434 100.68495361 -19.45448242 99.75271973 -19.23583984 98.79223633 C-19.0136377 97.82954834 -18.79143555 96.86686035 -18.5625 95.875 C-16.78916313 87.99929801 -15.40146195 80.26305338 -14.453125 72.24609375 C-13.89099986 68.21914555 -12.89725485 64.39664318 -11.8515625 60.47265625 C-9.01615531 48.90991777 -7.17274914 37.07905203 -5.15112305 25.35107422 C-3.66108169 16.85367406 -1.8117047 8.43379773 0 0 Z " fill="#050306" transform="translate(531,571)"/>
<path d="M0 0 C-2.95936846 2.48205097 -5.98725637 4.63614279 -9.25 6.6875 C-17.67502251 12.26679944 -23.8061686 19.41767967 -29 28 C-29.56460938 28.85851562 -30.12921875 29.71703125 -30.7109375 30.6015625 C-37.32897493 41.09216331 -40.8097686 52.76193759 -43.6875 64.75 C-45.66005903 72.85318283 -45.66005903 72.85318283 -48 76 C-50.66002785 77.10910669 -53.2730156 78.0834936 -56 79 C-56.87487061 79.29511475 -57.74974121 79.59022949 -58.65112305 79.89428711 C-61.51178762 80.84368777 -64.37946922 81.76839289 -67.25 82.6875 C-68.2296875 83.00783203 -69.209375 83.32816406 -70.21875 83.65820312 C-71.16234375 83.96048828 -72.1059375 84.26277344 -73.078125 84.57421875 C-74.35284668 84.98546997 -74.35284668 84.98546997 -75.65332031 85.4050293 C-78 86 -78 86 -82 86 C-81.49196647 79.90359761 -80.08369344 75.07777975 -77.625 69.5 C-77.01176746 68.07345481 -76.39978228 66.64637274 -75.7890625 65.21875 C-75.48637451 64.51733887 -75.18368652 63.81592773 -74.87182617 63.09326172 C-74.0298822 61.0717474 -73.27008317 59.03628544 -72.52734375 56.9765625 C-66.68920771 41.20430374 -56.36650167 24.45720008 -44 13 C-43.34 13 -42.68 13 -42 13 C-42 12.34 -42 11.68 -42 11 C-31.11730289 2.58333277 -13.89183449 -7.4089784 0 0 Z " fill="#ECF0EB" transform="translate(407,40)"/>
<path d="M0 0 C4.34360571 1.73744229 7.18000543 3.70982506 9.703125 7.6796875 C11.21127044 11.54090324 11.45512967 14.91757991 11.375 19 C11.36629883 19.74403076 11.35759766 20.48806152 11.34863281 21.25463867 C11.16260638 28.40064567 9.91038326 35.11278138 8 42 C7.70996094 43.0621875 7.41992188 44.124375 7.12109375 45.21875 C4.12331347 55.15281688 -0.51160966 62.87435749 -9 69 C-12.69186889 70.84593445 -16.96172979 70.34449699 -21 70 C-25.61626897 68.19363388 -27.57422938 65.24509859 -30 61 C-31.24609765 56.95296637 -31.14690118 52.94772691 -31.125 48.75 C-31.12886719 48.02425781 -31.13273437 47.29851563 -31.13671875 46.55078125 C-31.12521431 40.09678962 -31.0782431 33.79433996 -28 28 C-27.773125 26.865625 -27.54625 25.73125 -27.3125 24.5625 C-25.13069084 15.54773814 -20.53923725 7.06685023 -12.69921875 1.953125 C-8.42996238 -0.44158432 -4.85191221 -0.67988579 0 0 Z " fill="#EDEBEE" transform="translate(347,594)"/>
<path d="M0 0 C5.60955093 8.07775333 4.16676164 18.9801463 2.9375 28.3125 C0.2433585 42.39033799 -6.82535104 55.69879407 -18.4375 64.25 C-22.73823477 66.78633076 -27.56254669 67.08132482 -32.4375 66.25 C-35.35032291 64.86592686 -37.84858303 63.15570834 -40.4375 61.25 C-39.7303734 53.89122096 -38.51116198 46.69694404 -37.125 39.4375 C-36.92455078 38.33857422 -36.72410156 37.23964844 -36.51757812 36.10742188 C-34.03091628 23.04282387 -30.55063765 9.44599092 -20.375 0.125 C-14.49089229 -3.63081343 -5.84557796 -4.1968252 0 0 Z " fill="#EAE8EB" transform="translate(470.4375,598.75)"/>
<path d="M0 0 C5.50354733 14.00902956 6.16650048 27.08895683 6 42 C1.00717332 43.68863081 -3.99422371 45.35024286 -9 47 C-10.02287109 47.33725098 -11.04574219 47.67450195 -12.09960938 48.02197266 C-15.46000031 49.12580478 -18.82336273 50.2201437 -22.1875 51.3125 C-23.28634521 51.67408203 -24.38519043 52.03566406 -25.51733398 52.40820312 C-26.55704346 52.74400391 -27.59675293 53.07980469 -28.66796875 53.42578125 C-29.59891357 53.72911377 -30.5298584 54.03244629 -31.48901367 54.3449707 C-34 55 -34 55 -38 55 C-37.73277728 49.22798931 -36.76109189 44.8893088 -33.96484375 39.82421875 C-32.86596775 37.88628911 -32.86596775 37.88628911 -32.125 35.125 C-30.412476 30.3679889 -27.66404736 26.27738901 -25 22 C-24.54753906 21.1853125 -24.09507812 20.370625 -23.62890625 19.53125 C-19.44481422 13.02935159 -8.40722335 0 0 0 Z " fill="#EBEFEB" transform="translate(417,54)"/>
<path d="M0 0 C4.82519293 2.87382814 7.94197508 5.59155024 9.75 11.015625 C10.49432113 18.0866757 8.74205471 23.12656257 4.75 29.015625 C-0.78324773 33.64548534 -5.75614846 34.38594804 -12.78125 34.29296875 C-17.76080771 33.73355641 -20.35156229 30.984992 -23.625 27.453125 C-26.39406142 21.59549507 -26.19825297 15.71065976 -24.0625 9.640625 C-18.43938205 1.496799 -9.92071978 -4.3403149 0 0 Z " fill="#070608" transform="translate(561.25,522.984375)"/>
<path d="M0 0 C6.9808278 1.1493564 11.99397775 4.32986663 16.3125 9.9375 C18.54580587 13.16405511 20.38986012 16.41377935 22 20 C22.36351562 20.72445312 22.72703125 21.44890625 23.1015625 22.1953125 C23.48054688 22.97648437 23.85953125 23.75765625 24.25 24.5625 C24.78367187 25.64724609 24.78367187 25.64724609 25.328125 26.75390625 C26.15086562 29.50434728 25.75018689 31.26374142 25 34 C22.23058394 34.83830973 19.45964931 35.67082034 16.6875 36.5 C15.90181641 36.73847656 15.11613281 36.97695312 14.30664062 37.22265625 C13.54931641 37.44824219 12.79199219 37.67382812 12.01171875 37.90625 C11.31522217 38.11572266 10.61872559 38.32519531 9.90112305 38.54101562 C8 39 8 39 5 39 C4.95101563 37.74445313 4.90203125 36.48890625 4.8515625 35.1953125 C4.48227052 26.61934167 4.04343519 18.3648534 2 10 C1.61800639 8.1264123 1.24297119 6.25139207 0.875 4.375 C0.70742188 3.53710938 0.53984375 2.69921875 0.3671875 1.8359375 C0.24601562 1.23007812 0.12484375 0.62421875 0 0 Z " fill="#EAF0E6" transform="translate(433,52)"/>
<path d="M0 0 C-1.32 1.32 -2.64 2.64 -4 4 C-4.495 3.01 -4.495 3.01 -5 2 C-13.68104864 3.4572944 -13.68104864 3.4572944 -21 8 C-23.4591373 8.37562002 -25.90595713 8.70628486 -28.375 9 C-33.7592812 9.63513333 -33.7592812 9.63513333 -39 11 C-40.32133496 11.19712223 -41.64785367 11.36101761 -42.9765625 11.5 C-43.729375 11.5825 -44.4821875 11.665 -45.2578125 11.75 C-46.84366403 11.91748267 -48.42960278 12.08414147 -50.015625 12.25 C-53.82411369 12.33729219 -53.82411369 12.33729219 -57 14 C-58.51928038 14.07179964 -60.04167482 14.08392007 -61.5625 14.0625 C-62.38878906 14.05347656 -63.21507812 14.04445313 -64.06640625 14.03515625 C-64.70449219 14.02355469 -65.34257813 14.01195312 -66 14 C-63.03720682 12.36588652 -60.37473933 11.54201569 -57.0546875 10.921875 C-56.07218018 10.73334961 -55.08967285 10.54482422 -54.07739258 10.35058594 C-53.02060303 10.15239258 -51.96381348 9.95419922 -50.875 9.75 C-40.35962113 7.72021346 -29.9269589 5.43276438 -19.50537109 2.96777344 C-6.14981138 -0.18087681 -6.14981138 -0.18087681 0 0 Z " fill="#DDEDDB" transform="translate(603,448)"/>
<path d="M0 0 C6.80608965 0.72980961 13.42612872 2.04698742 20.125 3.4375 C28.07825431 5.06128461 35.98056566 6.55146583 44.03125 7.59765625 C48.71736329 8.23274792 53.35668387 9.10924139 58 10 C58 10.33 58 10.66 58 11 C52.06 11.33 46.12 11.66 40 12 C39.505 10.515 39.505 10.515 39 9 C38.40461426 8.91435791 37.80922852 8.82871582 37.19580078 8.74047852 C34.50500371 8.35138747 31.81500768 7.95700999 29.125 7.5625 C28.18785156 7.42779297 27.25070312 7.29308594 26.28515625 7.15429688 C25.38925781 7.02216797 24.49335938 6.89003906 23.5703125 6.75390625 C22.74289551 6.63345947 21.91547852 6.5130127 21.06298828 6.38891602 C19 6 19 6 17 5 C15.62894989 4.82079635 14.25270119 4.68010864 12.875 4.5625 C8.42735006 4.11557245 4.30946694 3.17530916 0 2 C0 1.34 0 0.68 0 0 Z " fill="#E2F1D5" transform="translate(393,460)"/>
<path d="M0 0 C1.74700195 -0.00386719 1.74700195 -0.00386719 3.52929688 -0.0078125 C11.10390331 0.07658423 18.86544188 0.54899139 25.9375 3.5 C26.4325 4.985 26.4325 4.985 26.9375 6.5 C24.50114268 6.02122808 22.07252907 5.5311095 19.65283203 4.97363281 C13.31550953 3.55944278 7.29286273 3.19607188 0.8125 3.25 C-0.12464844 3.24226562 -1.06179688 3.23453125 -2.02734375 3.2265625 C-7.71400442 3.24246924 -12.60814759 3.88294493 -18.0625 5.5 C-13.49643405 -1.19548417 -7.52964475 -0.1791803 0 0 Z " fill="#F4FDE9" transform="translate(375.0625,225.5)"/>
<path d="M0 0 C-7.76615432 4.64338157 -15.1462327 4.53992312 -24 4.375 C-25.31484375 4.37371094 -26.6296875 4.37242187 -27.984375 4.37109375 C-34.95592201 4.30809784 -41.27089105 3.84460223 -48 2 C-44.21109904 0.77967241 -40.60085575 0.90255057 -36.64453125 0.9375 C-35.59116829 0.94317993 -35.59116829 0.94317993 -34.51652527 0.94897461 C-32.28178685 0.96115819 -30.04717947 0.97980059 -27.8125 1 C-24.86068087 1.02649351 -21.90892382 1.04651752 -18.95703125 1.0625 C-17.64710205 1.07410156 -16.33717285 1.08570313 -14.98754883 1.09765625 C-12.11669762 1.34457359 -12.11669762 1.34457359 -11 0 C-6.97279717 -0.75984959 -3.92759816 -1.16180608 0 0 Z " fill="#E2EFC6" transform="translate(368,403)"/>
<path d="M0 0 C0.66 0 1.32 0 2 0 C1.67 2.31 1.34 4.62 1 7 C-0.1446875 7.12375 -0.1446875 7.12375 -1.3125 7.25 C-4.55524435 8.15495191 -5.16265816 9.28773348 -7 12 C-7.66 12 -8.32 12 -9 12 C-9.2475 13.051875 -9.495 14.10375 -9.75 15.1875 C-10.79078431 18.82655438 -12.33689136 21.2561911 -15 24 C-15.99 24.33 -16.98 24.66 -18 25 C-18.73323796 27.01508358 -18.73323796 27.01508358 -19 29 C-19.66 29 -20.32 29 -21 29 C-17.57527694 19.26657657 -9.54436428 9.00160426 -2 2 C-1.34 2 -0.68 2 0 2 C0 1.34 0 0.68 0 0 Z " fill="#E0F0CB" transform="translate(365,51)"/>
<path d="M0 0 C5.12105838 10.24211676 4.26212981 22.78666935 4 34 C2.75579353 34.5345256 1.50429064 35.05208611 0.25 35.5625 C-0.44609375 35.85253906 -1.1421875 36.14257812 -1.859375 36.44140625 C-4.30012784 37.07831803 -5.6403655 36.80248831 -8 36 C-8 35.67 -8 35.34 -8 35 C-6.35 35 -4.7 35 -3 35 C-3 34.01 -3 33.02 -3 32 C-1.35 32.33 0.3 32.66 2 33 C1.67 26.73 1.34 20.46 1 14 C0.67 14 0.34 14 0 14 C0 9.38 0 4.76 0 0 Z " fill="#DDEAC3" transform="translate(419,62)"/>
<path d="M0 0 C0.66 0 1.32 0 2 0 C2.20496094 0.84304688 2.40992188 1.68609375 2.62109375 2.5546875 C2.89050781 3.65039062 3.15992188 4.74609375 3.4375 5.875 C3.83775391 7.51082031 3.83775391 7.51082031 4.24609375 9.1796875 C4.8786478 11.92484721 4.8786478 11.92484721 6 14 C6.21320172 18.45824497 6.18579283 22.92051781 6.18530273 27.38330078 C6.18747116 29.59557862 6.20557714 31.80734288 6.22460938 34.01953125 C6.25132201 40.92665489 6.20014882 47.37346483 4 54 C3.34 54 2.68 54 2 54 C2.144375 53.34 2.28875 52.68 2.4375 52 C5.66791081 34.77114233 5.72225789 17.32548344 -1 1 C-0.67 0.67 -0.34 0.34 0 0 Z " fill="#ACC775" transform="translate(403,307)"/>
<path d="M0 0 C0.99 0 1.98 0 3 0 C3.29109588 6.57313284 2.17333621 12.78485641 1.0625 19.25 C-0.28734032 27.15825177 -1.40223868 34.99658469 -2 43 C-2.33 43 -2.66 43 -3 43 C-3.23204474 34.74952047 -2.86490177 26.93685983 -1.71362305 18.78466797 C-1.03579702 13.82529155 -0.85374837 9.03559053 -1.02734375 4.0390625 C-1 2 -1 2 0 0 Z " fill="#E0F0D0" transform="translate(233,273)"/>
<path d="M0 0 C3.28988728 0.71077812 4.75986676 1.45439404 7 4 C7.66 4.66 8.32 5.32 9 6 C6.03 5.505 6.03 5.505 3 5 C-0.72334465 10.04231545 -2.34186771 13.75793442 -2.6875 20.01171875 C-3.14932562 22.95008424 -4.6754441 24.27532949 -7 26 C-5.73628827 16.92768148 -3.03944933 8.59630517 0 0 Z " fill="#E7F3CF" transform="translate(288,341)"/>
<path d="M0 0 C0.33 0 0.66 0 1 0 C1.05784708 4.12494151 1.09354407 8.24977944 1.125 12.375 C1.15013672 14.1384375 1.15013672 14.1384375 1.17578125 15.9375 C1.18222656 17.05898438 1.18867188 18.18046875 1.1953125 19.3359375 C1.20578613 20.37282715 1.21625977 21.4097168 1.22705078 22.47802734 C1 25 1 25 -1 27 C-1.62592451 29.71616785 -2.16067916 32.38171667 -2.625 35.125 C-2.7590625 35.87910156 -2.893125 36.63320313 -3.03125 37.41015625 C-3.36123229 39.27219918 -3.68154073 41.13595175 -4 43 C-4.33 43 -4.66 43 -5 43 C-5.17336197 37.20025425 -4.50114273 31.72758066 -3.625 26 C-3.34967618 24.14201356 -3.07494111 22.28393979 -2.80078125 20.42578125 C-2.66494629 19.5126416 -2.52911133 18.59950195 -2.38916016 17.65869141 C-1.8301058 13.83930499 -1.31581499 10.01457547 -0.8125 6.1875 C-0.65394531 4.98480469 -0.49539062 3.78210938 -0.33203125 2.54296875 C-0.22246094 1.70378906 -0.11289063 0.86460937 0 0 Z " fill="#A1BF65" transform="translate(239,248)"/>
<path d="M0 0 C0.96099609 0.01353516 1.92199219 0.02707031 2.91210938 0.04101562 C5.25451752 0.07597694 7.59569156 0.12503896 9.9375 0.1875 C10.4325 1.1775 10.4325 1.1775 10.9375 2.1875 C10.01710938 2.15269531 9.09671875 2.11789063 8.1484375 2.08203125 C-1.0186327 1.88599411 -9.13043305 2.89579321 -18.0625 5.1875 C-18.93777344 5.40019531 -19.81304687 5.61289062 -20.71484375 5.83203125 C-22.50123557 6.26842574 -24.28274944 6.72476485 -26.0625 7.1875 C-26.3925 6.1975 -26.7225 5.2075 -27.0625 4.1875 C-26.4025 3.5275 -25.7425 2.8675 -25.0625 2.1875 C-24.381875 2.373125 -23.70125 2.55875 -23 2.75 C-19.82876207 3.22231203 -18.94829046 2.88291064 -16.0703125 1.7265625 C-10.66311044 -0.16270087 -5.67511209 -0.15402183 0 0 Z " fill="#E8F0D7" transform="translate(398.0625,20.8125)"/>
<path d="M0 0 C0.33 0 0.66 0 1 0 C1.0247279 5.76578458 1.04287328 11.53153825 1.05493164 17.29736328 C1.05995887 19.25863177 1.06678157 21.21989652 1.07543945 23.18115234 C1.08757545 26.00098597 1.09324444 28.82077002 1.09765625 31.640625 C1.10281754 32.51680481 1.10797882 33.39298462 1.11329651 34.29571533 C1.11337204 35.11626404 1.11344757 35.93681274 1.11352539 36.78222656 C1.115746 37.50170471 1.11796661 38.22118286 1.12025452 38.96246338 C0.99447972 41.09353312 0.55980041 42.94390988 0 45 C-0.34578768 46.99788438 -0.68143549 48.99759451 -1 51 C-1.33 51 -1.66 51 -2 51 C-2.16482543 39.83536646 -1.64567049 28.76606589 -1 17.625 C-0.90328899 15.90627004 -0.80693264 14.18752009 -0.7109375 12.46875 C-0.47803442 8.31225883 -0.24037542 4.15606545 0 0 Z " fill="#6A9836" transform="translate(486,226)"/>
<path d="M0 0 C5.37106359 -0.07473651 10.74181753 -0.12887661 16.11328125 -0.16479492 C17.93657715 -0.17978489 19.7598376 -0.20018384 21.58300781 -0.22631836 C41.03143232 -0.49791465 41.03143232 -0.49791465 49 3 C45.73617102 3.90803686 43.91910863 3.89970701 40.625 3.0625 C26.10022417 0.20421078 10.50770532 1.67211605 -4 4 C-3.01 3.67 -2.02 3.34 -1 3 C-0.67 2.01 -0.34 1.02 0 0 Z " fill="#A1BA66" transform="translate(367,176)"/>
<path d="M0 0 C2.85722182 4.89332118 2.34044046 9.78663808 2.3125 15.3125 C2.30976074 16.38669189 2.30702148 17.46088379 2.30419922 18.56762695 C2.17025434 28.82364773 1.06121373 38.48263391 -3 48 C-3.33 48 -3.66 48 -4 48 C-5.28773068 43.81487528 -4.9717417 41.45798546 -3.125 37.625 C-2.75632812 36.93664062 -2.38765625 36.24828125 -2.0078125 35.5390625 C0.90871329 28.1912262 0.12028975 19.76160737 0.0625 12 C0.05573242 10.26556641 0.05573242 10.26556641 0.04882812 8.49609375 C0.03712529 5.66400775 0.02072996 2.83203189 0 0 Z " fill="#EEF9DA" transform="translate(406,320)"/>
<path d="M0 0 C1.47608717 2.95217435 0.48729894 4.84629045 -0.3125 8 C-0.57675781 9.0725 -0.84101563 10.145 -1.11328125 11.25 C-2 14 -2 14 -4 16 C-3.67 16.99 -3.34 17.98 -3 19 C0.96 18.67 4.92 18.34 9 18 C6.70311431 20.29688569 5.21071829 20.71851303 2.125 21.625 C0.82949219 22.01558594 0.82949219 22.01558594 -0.4921875 22.4140625 C-3 23 -3 23 -7 23 C-6.73369222 17.24775185 -5.77147981 12.91352155 -2.98828125 7.86328125 C-1.65235603 5.34456058 -0.81730679 2.72435596 0 0 Z " fill="#D8EBC9" transform="translate(386,86)"/>
<path d="M0 0 C0.33 0 0.66 0 1 0 C1 3.3 1 6.6 1 10 C2.13179687 9.96519531 3.26359375 9.93039062 4.4296875 9.89453125 C5.91144353 9.86639664 7.39321556 9.83909613 8.875 9.8125 C9.99455078 9.77479492 9.99455078 9.77479492 11.13671875 9.73632812 C13.3046875 9.70703125 13.3046875 9.70703125 17 10 C17.99 11.485 17.99 11.485 19 13 C19.99 13.66 20.98 14.32 22 15 C14.1177798 14.48400816 6.65541695 12.9078547 -1 11 C-1.14285714 3.57142857 -1.14285714 3.57142857 0 0 Z " fill="#AAC374" transform="translate(217,416)"/>
<path d="M0 0 C4.05783002 0.38046922 8.11450563 0.77138692 12.17041016 1.171875 C13.54936611 1.30656523 14.9286009 1.43843268 16.30810547 1.56738281 C18.29466158 1.75357769 20.28016673 1.95087946 22.265625 2.1484375 C23.45961914 2.26364746 24.65361328 2.37885742 25.88378906 2.49755859 C28.70436203 2.95233289 30.57316557 3.54494992 33 5 C28.97863607 4.88940687 24.95814845 4.7589472 20.9375 4.625 C19.80376953 4.5940625 18.67003906 4.563125 17.50195312 4.53125 C11.7132972 4.32873143 6.42248175 4.13822685 1 2 C0.67 1.34 0.34 0.68 0 0 Z " fill="#D8E7CC" transform="translate(522,101)"/>
<path d="M0 0 C0.66 0 1.32 0 2 0 C2.04898438 0.66386719 2.09796875 1.32773438 2.1484375 2.01171875 C2.22320313 2.89472656 2.29796875 3.77773437 2.375 4.6875 C2.44460938 5.55761719 2.51421875 6.42773438 2.5859375 7.32421875 C2.87791979 10.00113709 2.87791979 10.00113709 4.03125 12.28125 C5.40773022 16.14427515 5.21358915 19.7476208 5.125 23.8125 C5.11597656 24.60076172 5.10695313 25.38902344 5.09765625 26.20117188 C5.07422504 28.13424666 5.03835838 30.0671638 5 32 C4.67 32 4.34 32 4 32 C3.32419171 27.98064819 2.66099739 23.95931185 2 19.9375 C1.80921875 18.80376953 1.6184375 17.67003906 1.421875 16.50195312 C0.51320476 10.9363479 -0.26201086 5.64142133 0 0 Z " fill="#D5E9C8" transform="translate(568,130)"/>
<path d="M0 0 C-3.83203035 2.60578064 -6.57027245 1.64302497 -11 1 C-16.44197975 1.17006187 -20.96350084 1.9261474 -26 4 C-28.3125 3.625 -28.3125 3.625 -30 3 C-20.88434844 -1.17800696 -9.55345707 -5.09517711 0 0 Z " fill="#DFEFCE" transform="translate(407,40)"/>
<path d="M0 0 C0.14824219 0.60972656 0.29648437 1.21945313 0.44921875 1.84765625 C0.84488534 3.3938427 1.30779765 4.92339296 1.8125 6.4375 C2.08006575 10.09423191 0.31520212 11.2762328 -2 14 C-2.73740217 16.51948778 -2.73740217 16.51948778 -3 19 C-3.32483418 20.33542939 -3.6550855 21.66961551 -4 23 C-4.99 23 -5.98 23 -7 23 C-4.97810834 15.21878058 -2.61369593 7.60227292 0 0 Z " fill="#ACC571" transform="translate(424,190)"/>
<path d="M0 0 C1.49828872 3.88235819 0.43110582 6.43449288 -0.9375 10.25 C-1.31777344 11.32765625 -1.69804687 12.4053125 -2.08984375 13.515625 C-2.39019531 14.33546875 -2.69054687 15.1553125 -3 16 C-8.75 15.25 -8.75 15.25 -11 13 C-8.03 13.495 -8.03 13.495 -5 14 C-4.814375 12.7315625 -4.814375 12.7315625 -4.625 11.4375 C-3.97303041 7.85166723 -3.1527279 4.4581837 -2 1 C-1.34 0.67 -0.68 0.34 0 0 Z " fill="#E8F4D4" transform="translate(413,219)"/>
<path d="M0 0 C0.91652344 0.19916016 0.91652344 0.19916016 1.8515625 0.40234375 C12.47930214 2.45304844 23.20703576 2.64561276 34 3 C34 3.33 34 3.66 34 4 C24.43 4.33 14.86 4.66 5 5 C5 4.34 5 3.68 5 3 C4.360625 2.87625 3.72125 2.7525 3.0625 2.625 C2.381875 2.41875 1.70125 2.2125 1 2 C0.67 1.34 0.34 0.68 0 0 Z " fill="#A2C164" transform="translate(317,404)"/>
<path d="M0 0 C0.33 0 0.66 0 1 0 C1.33 2.31 1.66 4.62 2 7 C11.57 7.33 21.14 7.66 31 8 C31.33 6.35 31.66 4.7 32 3 C33.125 6.75 33.125 6.75 32 9 C21.11 9 10.22 9 -1 9 C-0.67 6.03 -0.34 3.06 0 0 Z " fill="#4C4A4D" transform="translate(510,678)"/>
<path d="M0 0 C0.33 0 0.66 0 1 0 C0.67 2.31 0.34 4.62 0 7 C-0.66 7 -1.32 7 -2 7 C-1.938125 7.94875 -1.87625 8.8975 -1.8125 9.875 C-1.874375 10.90625 -1.93625 11.9375 -2 13 C-2.99 13.66 -3.98 14.32 -5 15 C-5.33 15.99 -5.66 16.98 -6 18 C-6.66 18 -7.32 18 -8 18 C-8.33 18.99 -8.66 19.98 -9 21 C-8.64251325 12.9565482 -4.37782455 6.56673683 0 0 Z " fill="#D8EAC7" transform="translate(343,80)"/>
<path d="M0 0 C4.53188584 0.43160817 8.84508647 0.91019424 13.25 2.0625 C19.10564306 3.46660624 25.01730576 3.16644281 31 3 C28.33148225 5.66851775 26.72999558 6.22771017 23 7 C19.32925996 6.5770219 15.82074888 5.68298637 12.25 4.75 C11.29222656 4.51925781 10.33445312 4.28851563 9.34765625 4.05078125 C2.28847509 2.28847509 2.28847509 2.28847509 0 0 Z " fill="#DEEECB" transform="translate(451,471)"/>
<path d="M0 0 C3.58451309 0.05189759 7.16662051 0.14697784 10.75 0.25 C11.76578125 0.26417969 12.7815625 0.27835937 13.828125 0.29296875 C21.39500069 0.54187913 21.39500069 0.54187913 24.703125 3.046875 C25.13109375 3.69140625 25.5590625 4.3359375 26 5 C17.14101063 4.46588214 8.65479083 2.85710087 0 1 C0 0.67 0 0.34 0 0 Z " fill="#A9C471" transform="translate(405,462)"/>
<path d="M0 0 C3.29164829 -0.02895225 6.58326399 -0.0467823 9.875 -0.0625 C10.81214844 -0.07087891 11.74929688 -0.07925781 12.71484375 -0.08789062 C14.05869141 -0.09272461 14.05869141 -0.09272461 15.4296875 -0.09765625 C16.67081299 -0.10551147 16.67081299 -0.10551147 17.93701172 -0.11352539 C20 0 20 0 22 1 C22 1.66 22 2.32 22 3 C23.32 3.33 24.64 3.66 26 4 C17.05571013 4.58051881 8.70163476 2.81374025 0 1 C0 0.67 0 0.34 0 0 Z " fill="#A8C671" transform="translate(324,447)"/>
<path d="M0 0 C0.66 0 1.32 0 2 0 C1.53007706 8.47097928 0.74640116 16.69187796 -1 25 C-1.66 24.67 -2.32 24.34 -3 24 C-3.23655974 18.20428629 -2.72753429 13.58908153 -1 8 C-0.57172655 5.33623325 -0.28261274 2.68482104 0 0 Z " fill="#E7F2D6" transform="translate(217,402)"/>
<path d="M0 0 C0.33 0 0.66 0 1 0 C1 1.65 1 3.3 1 5 C0.34 5 -0.32 5 -1 5 C-1.10828125 5.58394531 -1.2165625 6.16789062 -1.328125 6.76953125 C-2.48182915 10.59956072 -5.07431278 13.34028434 -8 16 C-10.875 16.9375 -10.875 16.9375 -13 17 C-12.154375 16.05125 -11.30875 15.1025 -10.4375 14.125 C-7.11412374 10.2714661 -4.26297024 6.15552545 -1.41796875 1.94140625 C-0.95003906 1.30074219 -0.48210937 0.66007812 0 0 Z " fill="#ACC369" transform="translate(398,376)"/>
<path d="M0 0 C-1.52019502 5.03564599 -3.63613593 9.57366021 -6 14.25 C-6.35578125 14.96929687 -6.7115625 15.68859375 -7.078125 16.4296875 C-9.74647556 21.74647556 -9.74647556 21.74647556 -12 24 C-11.53199289 19.94393835 -11.12046792 16.53411321 -9 13 C-8.34 13 -7.68 13 -7 13 C-6.87625 12.319375 -6.7525 11.63875 -6.625 10.9375 C-5.90573463 7.55695277 -5.0743228 4.28616387 -4 1 C-2 0 -2 0 0 0 Z " fill="#E0EFCE" transform="translate(329,72)"/>
<path d="M0 0 C0 0.66 0 1.32 0 2 C-0.99 2 -1.98 2 -3 2 C-3.33 2.99 -3.66 3.98 -4 5 C-5.134375 5.28875 -6.26875 5.5775 -7.4375 5.875 C-8.613125 6.24625 -9.78875 6.6175 -11 7 C-12.21869929 9.50447516 -12.21869929 9.50447516 -13 12 C-14.875 12.6875 -14.875 12.6875 -17 13 C-18.3479743 13.63654342 -19.68596724 14.29605388 -21 15 C-19.61327324 10.83981973 -16.6545717 9.33134749 -13.1875 6.9375 C-12.55779297 6.49083984 -11.92808594 6.04417969 -11.27929688 5.58398438 C-3.32483184 0 -3.32483184 0 0 0 Z " fill="#ABC572" transform="translate(374,28)"/>
<path d="M0 0 C0.66 0 1.32 0 2 0 C2.15366997 6.39651259 1.64846374 12.27698902 0.5 18.5625 C0.35691406 19.38041016 0.21382812 20.19832031 0.06640625 21.04101562 C-0.28228312 23.02854504 -0.64016085 25.01445896 -1 27 C-1.33 27 -1.66 27 -2 27 C-2.33 22.38 -2.66 17.76 -3 13 C-2.01 12.67 -1.02 12.34 0 12 C0 8.04 0 4.08 0 0 Z " fill="#DCECC6" transform="translate(228,318)"/>
<path d="M0 0 C-1.32 1.32 -2.64 2.64 -4 4 C-4.33 3.34 -4.66 2.68 -5 2 C-6.48011371 2.30798326 -7.95907325 2.621518 -9.4375 2.9375 C-10.26121094 3.11152344 -11.08492187 3.28554688 -11.93359375 3.46484375 C-13.97661204 3.80752994 -13.97661204 3.80752994 -15 5 C-17.18292774 5.23481693 -19.37203174 5.41363323 -21.5625 5.5625 C-22.76003906 5.64628906 -23.95757813 5.73007812 -25.19140625 5.81640625 C-26.11824219 5.87699219 -27.04507813 5.93757813 -28 6 C-25.22966451 4.50300831 -22.70631302 3.58019625 -19.62890625 2.9296875 C-18.39624023 2.66865234 -18.39624023 2.66865234 -17.13867188 2.40234375 C-15.8634668 2.14130859 -15.8634668 2.14130859 -14.5625 1.875 C-13.2930957 1.60236328 -13.2930957 1.60236328 -11.99804688 1.32421875 C-7.94740578 0.48046735 -4.16290509 -0.25644179 0 0 Z " fill="#CBE1BC" transform="translate(603,448)"/>
<path d="M0 0 C0.33 0 0.66 0 1 0 C1.20496094 0.92683594 1.40992188 1.85367187 1.62109375 2.80859375 C1.89050781 4.00613281 2.15992188 5.20367187 2.4375 6.4375 C2.83775391 8.22994141 2.83775391 8.22994141 3.24609375 10.05859375 C3.70066748 12.8704686 3.70066748 12.8704686 5 14 C5.16796875 15.99609375 5.16796875 15.99609375 5.1875 18.4375 C5.20167969 19.24058594 5.21585938 20.04367187 5.23046875 20.87109375 C5 23 5 23 3 25 C2.49279088 22.14694871 1.99406366 19.29283186 1.5 16.4375 C1.35691406 15.63763672 1.21382812 14.83777344 1.06640625 14.01367188 C0.25230605 9.26475402 -0.15519589 4.81753923 0 0 Z " fill="#DAE9CF" transform="translate(604,373)"/>
<path d="M0 0 C0.33 0 0.66 0 1 0 C1 7.92 1 15.84 1 24 C0.01 23.67 -0.98 23.34 -2 23 C-1.86068862 19.9163358 -1.71240719 16.83316583 -1.5625 13.75 C-1.52318359 12.87730469 -1.48386719 12.00460937 -1.44335938 11.10546875 C-1.40146484 10.26113281 -1.35957031 9.41679687 -1.31640625 8.546875 C-1.27974854 7.77182617 -1.24309082 6.99677734 -1.20532227 6.19824219 C-1.00396985 4.0425024 -0.58270703 2.08198525 0 0 Z " fill="#A2C266" transform="translate(299,245)"/>
<path d="M0 0 C0 4.09939665 -1.52298101 5.78656995 -4 9 C-6.6875 10.75 -6.6875 10.75 -9 12 C-9.33 12.66 -9.66 13.32 -10 14 C-11.32 13.67 -12.64 13.34 -14 13 C-12.23223041 11.20521865 -10.46097441 9.4141293 -8.6875 7.625 C-8.18798828 7.11710937 -7.68847656 6.60921875 -7.17382812 6.0859375 C-4.87457613 3.77145867 -2.72478775 1.81652517 0 0 Z " fill="#A6C26D" transform="translate(397,46)"/>
<path d="M0 0 C0.83789062 0.16371094 1.67578125 0.32742188 2.5390625 0.49609375 C6.20517307 1.02987283 9.67239385 1.09743025 13.375 1.0625 C14.62023437 1.05347656 15.86546875 1.04445313 17.1484375 1.03515625 C18.08945312 1.02355469 19.03046875 1.01195312 20 1 C18.94921875 2.45703125 18.94921875 2.45703125 17 4 C13.64453125 4.51171875 13.64453125 4.51171875 9.8125 4.6875 C7.90404297 4.78611328 7.90404297 4.78611328 5.95703125 4.88671875 C4.98121094 4.92410156 4.00539063 4.96148437 3 5 C3.33 4.01 3.66 3.02 4 2 C2.68 2 1.36 2 0 2 C0 1.34 0 0.68 0 0 Z " fill="#EFF7D8" transform="translate(319,358)"/>
<path d="M0 0 C0.99 0.33 1.98 0.66 3 1 C3.33 1.99 3.66 2.98 4 4 C7.3 4.33 10.6 4.66 14 5 C9.85035583 8.11223313 7.99162787 8.52003578 3 9 C2.01 6.03 1.02 3.06 0 0 Z " fill="#DDEDCD" transform="translate(471,71)"/>
<path d="M0 0 C4.29 0.66 8.58 1.32 13 2 C13 2.66 13 3.32 13 4 C14.65 4 16.3 4 18 4 C18.33 4.66 18.66 5.32 19 6 C16.39239154 5.9669923 13.79337154 5.8998852 11.1875 5.8125 C10.44951172 5.80669922 9.71152344 5.80089844 8.95117188 5.79492188 C6.79296875 5.70703125 6.79296875 5.70703125 3 5 C2.01 3.35 1.02 1.7 0 0 Z " fill="#E2EFD1" transform="translate(421,31)"/>
<path d="M0 0 C0 0.33 0 0.66 0 1 C-2.89589652 1.02706445 -5.79153795 1.04687029 -8.6875 1.0625 C-9.91243164 1.07506836 -9.91243164 1.07506836 -11.16210938 1.08789062 C-15.24499084 1.10442051 -19.01651707 1.03035098 -23 0 C-23 -0.33 -23 -0.66 -23 -1 C-15.26643829 -2.37485541 -7.29818531 -3.33292578 0 0 Z " fill="#A7BD6A" transform="translate(410,24)"/>
<path d="M0 0 C1.5 1.25 1.5 1.25 3 3 C3 4.32 3 5.64 3 7 C3.99 7.33 4.98 7.66 6 8 C6.103125 8.721875 6.20625 9.44375 6.3125 10.1875 C6.86818721 13.08953219 6.86818721 13.08953219 8.625 15.625 C9.07875 16.40875 9.5325 17.1925 10 18 C9.67 18.99 9.34 19.98 9 21 C0 6.52427184 0 6.52427184 0 0 Z " fill="#EDF7D9" transform="translate(301,273)"/>
<path d="M0 0 C0.99 0.495 0.99 0.495 2 1 C2 1.66 2 2.32 2 3 C2.81082031 2.94199219 3.62164062 2.88398437 4.45703125 2.82421875 C12.87933962 2.48105135 18.66037423 3.88157272 26 8 C23.63927481 8.83257719 22.43954038 9.16837232 20.0625 8.2578125 C19.0415625 7.69707031 19.0415625 7.69707031 18 7.125 C12.48184779 4.4534405 7.05503636 4.20490817 1 4 C0.67 2.68 0.34 1.36 0 0 Z " fill="#AAC472" transform="translate(422,33)"/>
<path d="M0 0 C0.66 0 1.32 0 2 0 C1.67 2.31 1.34 4.62 1 7 C-0.0828125 7.0928125 -0.0828125 7.0928125 -1.1875 7.1875 C-4.84657625 8.24456647 -6.49211602 10.20550071 -9 13 C-9.66 12.67 -10.32 12.34 -11 12 C-9.5484451 10.32742645 -8.08855591 8.66208242 -6.625 7 C-5.81289063 6.071875 -5.00078125 5.14375 -4.1640625 4.1875 C-3.09285156 3.1046875 -3.09285156 3.1046875 -2 2 C-1.34 2 -0.68 2 0 2 C0 1.34 0 0.68 0 0 Z " fill="#D5E4BD" transform="translate(365,51)"/>
<path d="M0 0 C7.8187104 0.46569122 15.36399015 1.22458462 23 3 C19.40639379 5.39573747 18.24928953 5.39345273 14 5 C11.67315449 4.32697943 9.40521977 3.55094019 7.125 2.734375 C4.77781434 1.92321525 2.45070667 1.39527527 0 1 C0 0.67 0 0.34 0 0 Z " fill="#DCE9C8" transform="translate(369,456)"/>
<path d="M0 0 C2.56314499 -0.08132187 5.12368418 -0.14064175 7.6875 -0.1875 C8.40873047 -0.21263672 9.12996094 -0.23777344 9.87304688 -0.26367188 C14.47589338 -0.32672457 17.30307233 0.22183542 21 3 C18.02977779 3.91145054 15.93514414 4.01801972 12.890625 3.44140625 C11.75947266 3.23354492 11.75947266 3.23354492 10.60546875 3.02148438 C9.43951172 2.79428711 9.43951172 2.79428711 8.25 2.5625 C7.45722656 2.41490234 6.66445313 2.26730469 5.84765625 2.11523438 C3.89702754 1.75096034 1.9483107 1.37647488 0 1 C0 0.67 0 0.34 0 0 Z " fill="#A0BE64" transform="translate(358,453)"/>
<path d="M0 0 C3.46941546 0.45822468 6.67395049 0.89131683 10 2 C12.14255793 1.61067144 12.14255793 1.61067144 14 1 C14 2.32 14 3.64 14 5 C14.99 5.33 15.98 5.66 17 6 C10.59859065 5.53444296 5.73230171 3.85288164 0 1 C0 0.67 0 0.34 0 0 Z " fill="#A6C16E" transform="translate(308,353)"/>
<path d="M0 0 C0.33 0.99 0.66 1.98 1 3 C-12.6332574 7.40774487 -12.6332574 7.40774487 -19 8 C-18 6 -18 6 -15.0625 5 C-14.051875 4.67 -13.04125 4.34 -12 4 C-11.34 3.34 -10.68 2.68 -10 2 C-7.6171875 1.8046875 -7.6171875 1.8046875 -4.875 1.875 C-3.50988281 1.90207031 -3.50988281 1.90207031 -2.1171875 1.9296875 C-1.41851562 1.95289063 -0.71984375 1.97609375 0 2 C0 1.34 0 0.68 0 0 Z " fill="#E1EFD2" transform="translate(305,130)"/>
<path d="M0 0 C5.29158974 1.40071493 7.77478044 4.85487245 11 9 C10.40703125 8.84660156 9.8140625 8.69320312 9.203125 8.53515625 C6.48898993 7.87587167 3.75741895 7.43868029 1 7 C0.67 4.69 0.34 2.38 0 0 Z " fill="#6F9550" transform="translate(494,76)"/>
<path d="M0 0 C1 2 1 2 0.25 4.8125 C-1 8 -1 8 -2.625 10.6875 C-4.2555377 12.98136704 -4.2555377 12.98136704 -4 16 C-4.66 16 -5.32 16 -6 16 C-6 16.66 -6 17.32 -6 18 C-6.66 18 -7.32 18 -8 18 C-6.10463724 11.48180123 -3.4821006 5.82185199 0 0 Z " fill="#A5C16B" transform="translate(376,70)"/>
<path d="M0 0 C4.75481646 0.57634139 7.97048212 2.55068521 12 5 C9 6 9 6 6 5 C6 4.34 6 3.68 6 3 C5.34 3 4.68 3 4 3 C3.67 5.31 3.34 7.62 3 10 C1.11608215 6.73454239 0.50712033 3.71888239 0 0 Z " fill="#DEEEC6" transform="translate(433,52)"/>
<path d="M0 0 C0.66 0 1.32 0 2 0 C2.20496094 0.84304688 2.40992188 1.68609375 2.62109375 2.5546875 C2.89050781 3.65039062 3.15992188 4.74609375 3.4375 5.875 C3.83775391 7.51082031 3.83775391 7.51082031 4.24609375 9.1796875 C4.8786478 11.92484721 4.8786478 11.92484721 6 14 C6.06950541 15.54023996 6.08452357 17.08334988 6.0625 18.625 C6.05347656 19.44226563 6.04445313 20.25953125 6.03515625 21.1015625 C6.02355469 21.72804688 6.01195312 22.35453125 6 23 C5.67 23 5.34 23 5 23 C4.73445313 21.91460937 4.46890625 20.82921875 4.1953125 19.7109375 C3.83866918 18.26559353 3.4818912 16.82028278 3.125 15.375 C2.95097656 14.66214844 2.77695312 13.94929688 2.59765625 13.21484375 C1.57145662 9.07203784 0.41209271 5.03273322 -1 1 C-0.67 0.67 -0.34 0.34 0 0 Z " fill="#A2C064" transform="translate(403,307)"/>
<path d="M0 0 C0.97904297 0.07025391 1.95808594 0.14050781 2.96679688 0.21289062 C5.3765377 0.38921312 7.78168135 0.5897449 10.1875 0.8125 C10.1875 1.1425 10.1875 1.4725 10.1875 1.8125 C8.9809375 1.86148438 7.774375 1.91046875 6.53125 1.9609375 C4.91664694 2.03603532 3.30206461 2.11158003 1.6875 2.1875 C0.89601563 2.2184375 0.10453125 2.249375 -0.7109375 2.28125 C-5.99378612 2.54106223 -10.71993869 3.37583706 -15.8125 4.8125 C-11.35326408 -1.32730449 -7.15768051 -0.66817837 0 0 Z " fill="#E4F0CE" transform="translate(372.8125,226.1875)"/>
<path d="M0 0 C0 0.66 0 1.32 0 2 C-1.1446875 2.6496875 -1.1446875 2.6496875 -2.3125 3.3125 C-6.2047275 5.7564568 -7.60812659 8.3968815 -8.6875 12.8125 C-8.790625 13.534375 -8.89375 14.25625 -9 15 C-9.33 15 -9.66 15 -10 15 C-10.42004622 8.90932974 -10.0566405 5.89183119 -6 1 C-4 0 -4 0 0 0 Z " fill="#A9BF69" transform="translate(261,147)"/>
<path d="M0 0 C0.66 0.33 1.32 0.66 2 1 C-0.97 11.89 -0.97 11.89 -4 23 C-4.33 23 -4.66 23 -5 23 C-4.7591383 21.14192401 -4.51826556 19.28384945 -4.27734375 17.42578125 C-4.0869269 15.76030427 -3.93530028 14.09007412 -3.81640625 12.41796875 C-3.45712781 7.52738259 -3.08610822 4.02535855 0 0 Z " fill="#D4E4B6" transform="translate(366,87)"/>
<path d="M0 0 C6.39205856 0.72362927 12.68027076 1.80343362 19 3 C19 3.33 19 3.66 19 4 C14.05 4.33 9.1 4.66 4 5 C3.67 3.68 3.34 2.36 3 1 C2.01 0.67 1.02 0.34 0 0 Z " fill="#D9EAC5" transform="translate(432,467)"/>
<path d="M0 0 C0.33 0 0.66 0 1 0 C1.19676277 8.29683005 1.25943749 15.95075394 -1 24 C-1.33 24 -1.66 24 -2 24 C-2.33853295 15.83759432 -1.29901921 8.04927976 0 0 Z " fill="#A6C26F" transform="translate(227,338)"/>
<path d="M0 0 C-2.0715461 2.0715461 -5.95073558 1.99104283 -8.75 2.5 C-10.95845606 2.77949757 -10.95845606 2.77949757 -12 4 C-13.68608966 4.07205511 -15.37500659 4.08386068 -17.0625 4.0625 C-17.98160156 4.05347656 -18.90070313 4.04445313 -19.84765625 4.03515625 C-20.55792969 4.02355469 -21.26820313 4.01195312 -22 4 C-18.47921315 1.98434953 -14.94911236 1.17009326 -11 0.3125 C-9.783125 0.04050781 -8.56625 -0.23148437 -7.3125 -0.51171875 C-4.35566123 -0.94757352 -2.74913631 -1.02405328 0 0 Z " fill="#D7E9CB" transform="translate(505,470)"/>
<path d="M0 0 C6.84817102 0.48641215 13.33042073 1.35993952 20 3 C20 3.33 20 3.66 20 4 C14.06 4.495 14.06 4.495 8 5 C7.67 4.34 7.34 3.68 7 3 C4.6859378 2.26924352 2.35171131 1.59861742 0 1 C0 0.67 0 0.34 0 0 Z " fill="#CDE0AA" transform="translate(240,431)"/>
<path d="M0 0 C2.560881 3.24640915 4.62476717 6.66940716 6.6875 10.25 C7.31011719 11.32765625 7.93273437 12.4053125 8.57421875 13.515625 C9.04472656 14.33546875 9.51523437 15.1553125 10 16 C9.34 16.33 8.68 16.66 8 17 C8 16.34 8 15.68 8 15 C7.34 15 6.68 15 6 15 C4.375 13.8125 4.375 13.8125 3 12 C2.8125 9.3125 2.8125 9.3125 3 7 C2.34 7 1.68 7 1 7 C0.67 4.69 0.34 2.38 0 0 Z " fill="#AAC471" transform="translate(302,280)"/>
<path d="M0 0 C2.97 0 5.94 0 9 0 C5.36734609 1.81632696 1.80535142 3.28064868 -2 4.6875 C-3.216875 5.14511719 -4.43375 5.60273438 -5.6875 6.07421875 C-8.79602561 6.94299301 -10.08246255 7.2034842 -13 6 C-6.61435726 3.12020033 -6.61435726 3.12020033 -3.125 2.4375 C-2.42375 2.293125 -1.7225 2.14875 -1 2 C-0.67 1.34 -0.34 0.68 0 0 Z " fill="#E2EDCE" transform="translate(270,140)"/>
<path d="M0 0 C0.33 0 0.66 0 1 0 C0.03644647 14.78132118 0.03644647 14.78132118 -1 21 C-1.33 21 -1.66 21 -2 21 C-2 15.39 -2 9.78 -2 4 C-1.34 4 -0.68 4 0 4 C0 2.68 0 1.36 0 0 Z " fill="#D5E9BE" transform="translate(221,381)"/>
<path d="M0 0 C0.33 0 0.66 0 1 0 C0.98839844 0.78503906 0.97679687 1.57007813 0.96484375 2.37890625 C0.91624493 8.03719775 0.98705251 13.42878878 2 19 C-1.6486655 14.24087109 -2.49653833 11.03929181 -2 5 C-1 2 -1 2 0 0 Z " fill="#A9C670" transform="translate(349,239)"/>
<path d="M0 0 C0.33 0 0.66 0 1 0 C1.2700558 7.8316181 0.23107719 15.27279225 -1 23 C-1.33 23 -1.66 23 -2 23 C-2.19491452 21.54263913 -2.38069358 20.08405407 -2.5625 18.625 C-2.66691406 17.81289062 -2.77132812 17.00078125 -2.87890625 16.1640625 C-3 14 -3 14 -2 12 C-1.79777644 10.33727297 -1.63588613 8.66945815 -1.5 7 C-1.11111111 2.22222222 -1.11111111 2.22222222 0 0 Z " fill="#E2F0CD" transform="translate(243,207)"/>
<path d="M0 0 C0 0.66 0 1.32 0 2 C-0.9590625 2.1546875 -0.9590625 2.1546875 -1.9375 2.3125 C-2.618125 2.539375 -3.29875 2.76625 -4 3 C-4.33 3.99 -4.66 4.98 -5 6 C-8.3 6.33 -11.6 6.66 -15 7 C-11.95966506 4.7197488 -9.75349671 3.28706127 -6.375 1.8125 C-5.59898437 1.46832031 -4.82296875 1.12414062 -4.0234375 0.76953125 C-2 0 -2 0 0 0 Z " fill="#A5C06C" transform="translate(374,400)"/>
<path d="M0 0 C1.98 0.99 1.98 0.99 4 2 C3.67 6.95 3.34 11.9 3 17 C0.97831765 12.9566353 0.64072239 10.67870655 0.375 6.25 C0.30023437 5.07953125 0.22546875 3.9090625 0.1484375 2.703125 C0.09945312 1.81109375 0.05046875 0.9190625 0 0 Z " fill="#E3EED8" transform="translate(580,210)"/>
<path d="M0 0 C0.99 0 1.98 0 3 0 C3.64366639 5.14933111 1.37721719 8.63598451 -1 13 C-1.66 14.32 -2.32 15.64 -3 17 C-2.67 13.7 -2.34 10.4 -2 7 C-1.34 7 -0.68 7 0 7 C0 4.69 0 2.38 0 0 Z " fill="#A3C369" transform="translate(382,87)"/>
<path d="M0 0 C0.99 0.33 1.98 0.66 3 1 C-0.17345348 4.26412358 -3.42963696 7.18129234 -7 10 C-8.0173873 10.98230498 -9.02596117 11.97469597 -10 13 C-9.49396008 10.83125748 -9.00016187 9.00032373 -8 7 C-7.01 7 -6.02 7 -5 7 C-4.9175 6.401875 -4.835 5.80375 -4.75 5.1875 C-3.77590452 2.34638817 -2.59505753 1.45017921 0 0 Z " fill="#E1EECE" transform="translate(355,37)"/>
<path d="M0 0 C2 3 2 3 1.75 4.8125 C1.5025 5.534375 1.255 6.25625 1 7 C0.649375 8.0725 0.29875 9.145 -0.0625 10.25 C-0.371875 11.1575 -0.68125 12.065 -1 13 C-1.66 13 -2.32 13 -3 13 C-3.33 13.99 -3.66 14.98 -4 16 C-3.47606294 10.13190493 -2.23891142 5.45126259 0 0 Z " fill="#E4F2C9" transform="translate(305,229)"/>
<path d="M0 0 C1 2 1 2 0.00390625 5.0390625 C-0.47175781 6.22242187 -0.94742187 7.40578125 -1.4375 8.625 C-1.91058594 9.81351563 -2.38367188 11.00203125 -2.87109375 12.2265625 C-3.24363281 13.14179687 -3.61617188 14.05703125 -4 15 C-4.33 15 -4.66 15 -5 15 C-4.93989582 13.06164034 -4.85108283 11.12415509 -4.75 9.1875 C-4.70359375 8.10855469 -4.6571875 7.02960938 -4.609375 5.91796875 C-4 3 -4 3 -1.953125 1.11328125 C-0.98632812 0.56220703 -0.98632812 0.56220703 0 0 Z " fill="#E5EED3" transform="translate(315,100)"/>
<path d="M0 0 C2.32224304 4.33485368 3.13471301 7.83951522 3.0625 12.75 C3.05347656 13.54921875 3.04445313 14.3484375 3.03515625 15.171875 C3.01775391 16.07679687 3.01775391 16.07679687 3 17 C1.51171875 15.94921875 1.51171875 15.94921875 0 14 C-0.29296875 10.64453125 -0.29296875 10.64453125 -0.1875 6.8125 C-0.16042969 5.54019531 -0.13335937 4.26789063 -0.10546875 2.95703125 C-0.07066406 1.98121094 -0.03585937 1.00539062 0 0 Z " fill="#D2E7BD" transform="translate(419,62)"/>
<path d="M0 0 C1.258125 -0.04125 2.51625 -0.0825 3.8125 -0.125 C4.52019531 -0.14820313 5.22789062 -0.17140625 5.95703125 -0.1953125 C8 0 8 0 11 2 C11 2.66 11 3.32 11 4 C12.32 4.33 13.64 4.66 15 5 C13.58249437 4.88490339 12.16598831 4.75746342 10.75 4.625 C9.96109375 4.55539062 9.1721875 4.48578125 8.359375 4.4140625 C4.74870127 3.78040122 2.58358862 2.58358862 0 0 Z " fill="#A3C065" transform="translate(454,469)"/>
<path d="M0 0 C7.22124213 0.41830366 14.04567778 0.95461111 21 3 C21 3.33 21 3.66 21 4 C17.7 4 14.4 4 11 4 C11 3.34 11 2.68 11 2 C10.06027344 2.03480469 10.06027344 2.03480469 9.1015625 2.0703125 C7.87566406 2.09738281 7.87566406 2.09738281 6.625 2.125 C5.81289063 2.14820313 5.00078125 2.17140625 4.1640625 2.1953125 C2 2 2 2 0 0 Z " fill="#DCEEC7" transform="translate(337,450)"/>
<path d="M0 0 C0.33 0 0.66 0 1 0 C1.054348 2.0622048 1.09294961 4.12482816 1.125 6.1875 C1.14820313 7.33605469 1.17140625 8.48460937 1.1953125 9.66796875 C1.00484152 12.91740372 0.39360127 15.08660521 -1 18 C-1.33 18 -1.66 18 -2 18 C-1.85860519 15.74971671 -1.71171997 13.49977794 -1.5625 11.25 C-1.48128906 9.99703125 -1.40007812 8.7440625 -1.31640625 7.453125 C-1.07484478 4.81682447 -0.75716066 2.51962706 0 0 Z " fill="#B1CC86" transform="translate(224,362)"/>
<path d="M0 0 C2.58484426 0.45084493 5.1676329 0.91035263 7.75 1.375 C8.47960937 1.50132812 9.20921875 1.62765625 9.9609375 1.7578125 C13.5938428 2.41834074 16.8187005 3.07447662 20 5 C14.71860774 5.18211697 11.00341779 4.84908918 6 3 C4.00630969 2.63079809 2.00720923 2.28674418 0 2 C0 1.34 0 0.68 0 0 Z " fill="#E5F3D9" transform="translate(227,429)"/>
<path d="M0 0 C0.33 0 0.66 0 1 0 C1.27711526 2.22595848 1.52066929 4.45611221 1.75 6.6875 C1.88921875 7.92886719 2.0284375 9.17023438 2.171875 10.44921875 C2 14 2 14 -2 19 C-1.34 12.73 -0.68 6.46 0 0 Z " fill="#A5BF67" transform="translate(230,316)"/>
<path d="M0 0 C2.45605371 2.55274874 2.98802939 3.85890643 3.29296875 7.453125 C3.25816406 8.70609375 3.22335937 9.9590625 3.1875 11.25 C3.16042969 12.51328125 3.13335938 13.7765625 3.10546875 15.078125 C3.07066406 16.04234375 3.03585937 17.0065625 3 18 C0.73150334 14.34827367 0.6104049 10.9872882 0.375 6.75 C0.30023437 5.48671875 0.22546875 4.2234375 0.1484375 2.921875 C0.09945312 1.95765625 0.05046875 0.9934375 0 0 Z " fill="#D3E5C5" transform="translate(577,191)"/>
<path d="M0 0 C0 0.66 0 1.32 0 2 C-1.11375 2.12375 -2.2275 2.2475 -3.375 2.375 C-7.03103677 2.6465813 -7.03103677 2.6465813 -9 5 C-11.68839385 5.26991906 -14.29141936 5.08737357 -17 5 C-14.2232434 3.54851359 -11.46693581 2.38091317 -8.5 1.375 C-7.7471875 1.11460937 -6.994375 0.85421875 -6.21875 0.5859375 C-4 0 -4 0 0 0 Z " fill="#A8C475" transform="translate(283,140)"/>
<path d="M0 0 C1.7435756 3.11930825 2.54645178 5.99110451 3.1875 9.5 C3.36667969 10.4384375 3.54585937 11.376875 3.73046875 12.34375 C3.99098064 14.91111354 3.80670869 16.57415258 3 19 C0.6969113 12.43345544 -0.33693273 6.96327638 0 0 Z " fill="#ADABAE" transform="translate(659,609)"/>
<path d="M0 0 C-3.19373157 3.19373157 -7.06829832 3.90188182 -11.4609375 4.125 C-13.64439214 4.125 -15.81849415 4.08904106 -18 4 C-12.50312124 1.03343051 -6.25589769 -0.4036063 0 0 Z " fill="#BFD2B1" transform="translate(555,458)"/>
<path d="M0 0 C0.33 0.66 0.66 1.32 1 2 C-0.375 4 -0.375 4 -2 6 C-2.66 6 -3.32 6 -4 6 C-4.33 7.32 -4.66 8.64 -5 10 C-5.66 10 -6.32 10 -7 10 C-7 10.66 -7 11.32 -7 12 C-7.66 12 -8.32 12 -9 12 C-7.82744291 8.66272214 -6.81131596 6.22562513 -4 4 C-3.34 4 -2.68 4 -2 4 C-1.34 2.68 -0.68 1.36 0 0 Z " fill="#E8F3D5" transform="translate(324,201)"/>
<path d="M0 0 C1.27875 -0.061875 2.5575 -0.12375 3.875 -0.1875 C4.95394531 -0.23970703 4.95394531 -0.23970703 6.0546875 -0.29296875 C6.69664062 -0.19628906 7.33859375 -0.09960938 8 0 C10.4294516 3.6441774 10.16179575 5.71241272 10 10 C9.34 10 8.68 10 8 10 C8 8.02 8 6.04 8 4 C5.36 3.01 2.72 2.02 0 1 C0 0.67 0 0.34 0 0 Z " fill="#ADC775" transform="translate(417,180)"/>
<path d="M0 0 C1.1171875 3.7421875 1.1171875 3.7421875 0.0625 6.0625 C-0.288125 6.701875 -0.63875 7.34125 -1 8 C-1 8.99 -1 9.98 -1 11 C-2.65 11.66 -4.3 12.32 -6 13 C-4.31326082 8.50202887 -2.18326108 4.27113698 0 0 Z " fill="#A6C26C" transform="translate(327,76)"/>
<path d="M0 0 C0.66 1.32 1.32 2.64 2 4 C-2.29 3.67 -6.58 3.34 -11 3 C-6.577168 -0.317124 -5.28089024 -0.30466674 0 0 Z " fill="#E3ECD5" transform="translate(496,73)"/>
<path d="M0 0 C0.33 0.66 0.66 1.32 1 2 C-1.38179263 5.74281699 -3.74475735 8.97727468 -7 12 C-7.66 11.67 -8.32 11.34 -9 11 C-6.36113346 6.7973607 -3.63559661 3.43361902 0 0 Z " fill="#A8CA6F" transform="translate(349,45)"/>
<path d="M0 0 C3.13107836 3.38583802 3.33550778 5.71109462 3.1875 10.25 C3.16042969 11.32765625 3.13335937 12.4053125 3.10546875 13.515625 C3.07066406 14.33546875 3.03585937 15.1553125 3 16 C2.67 16 2.34 16 2 16 C0.61470179 10.54538831 -0.2396943 5.63281599 0 0 Z " fill="#B4C682" transform="translate(347,332)"/>
<path d="M0 0 C-0.45375 0.433125 -0.9075 0.86625 -1.375 1.3125 C-4.11598039 4.15890271 -5.24547348 6.32898038 -5.625 10.1875 C-5.74875 11.445625 -5.8725 12.70375 -6 14 C-6.33 14 -6.66 14 -7 14 C-7.18451025 4.58997722 -7.18451025 4.58997722 -6 0 C-3 -1 -3 -1 0 0 Z " fill="#E3ECC8" transform="translate(257,148)"/>
<path d="M0 0 C2 3 2 3 3 6 C1.6875 8.5 1.6875 8.5 0 11 C-0.66 11.99 -1.32 12.98 -2 14 C-1.85866501 12.22880197 -1.71176792 10.45804713 -1.5625 8.6875 C-1.48128906 7.70136719 -1.40007813 6.71523438 -1.31640625 5.69921875 C-1 3 -1 3 0 0 Z " fill="#CECCCF" transform="translate(606,666)"/>
<path d="M0 0 C0.33 0 0.66 0 1 0 C1.32813094 4.70321007 0.68305541 7.13640021 -2 11 C-2.33 11.66 -2.66 12.32 -3 13 C-3.66 13 -4.32 13 -5 13 C-4.731875 12.34 -4.46375 11.68 -4.1875 11 C-2.74294953 7.35060933 -1.37128822 3.67754567 0 0 Z " fill="#AAC370" transform="translate(404,363)"/>
<path d="M0 0 C4.8333472 -0.08333357 9.23692563 0.04738513 14 1 C14.33 1.99 14.66 2.98 15 4 C10 3 5 2 0 1 C0 0.67 0 0.34 0 0 Z " fill="#EAF3D1" transform="translate(387,228)"/>
<path d="M0 0 C0 0.66 0 1.32 0 2 C-2.40545638 3.20272819 -3.94996953 3.10071472 -6.625 3.0625 C-7.85089844 3.04896484 -7.85089844 3.04896484 -9.1015625 3.03515625 C-10.04128906 3.01775391 -10.04128906 3.01775391 -11 3 C-11 2.34 -11 1.68 -11 1 C-7.26513121 0.4254048 -3.78706732 0 0 0 Z " fill="#D6EDCB" transform="translate(566,456)"/>
<path d="M0 0 C0 0.66 0 1.32 0 2 C-4.50353262 3.75747614 -8.17639811 4.19294408 -13 4 C-8.68630028 1.12420019 -5.19265239 0 0 0 Z " fill="#A9C272" transform="translate(387,24)"/>
<path d="M0 0 C0.99 0.66 1.98 1.32 3 2 C0.03 4.475 0.03 4.475 -3 7 C-3.33 5.68 -3.66 4.36 -4 3 C-2.68 2.01 -1.36 1.02 0 0 Z " fill="#EEFAE2" transform="translate(384,389)"/>
<path d="M0 0 C1.31611677 0.95336021 2.62778961 1.91285774 3.9375 2.875 C4.66839844 3.40867187 5.39929688 3.94234375 6.15234375 4.4921875 C8 6 8 6 9 8 C7.68 8 6.36 8 5 8 C5 7.34 5 6.68 5 6 C3.68 5.67 2.36 5.34 1 5 C0.67 3.35 0.34 1.7 0 0 Z " fill="#AAC56F" transform="translate(318,303)"/>
<path d="M0 0 C0 0.99 0 1.98 0 3 C-2.25 5.25 -2.25 5.25 -5 7 C-7.171875 6.609375 -7.171875 6.609375 -9 6 C-7.8803014 4.99406757 -6.7540588 3.9954151 -5.625 3 C-4.68527344 2.1646875 -4.68527344 2.1646875 -3.7265625 1.3125 C-2 0 -2 0 0 0 Z " fill="#E9F6DA" transform="translate(334,194)"/>
<path d="M0 0 C-5.00932754 3.00559652 -8.32723489 3.29341888 -14 3 C-9.7368213 0.15788087 -5.03577274 -2.0143091 0 0 Z " fill="#A1C067" transform="translate(297,137)"/>
<path d="M0 0 C0.33 1.32 0.66 2.64 1 4 C-1.35438733 5.42944945 -2.48032433 6.08661261 -5.25 5.625 C-5.8275 5.41875 -6.405 5.2125 -7 5 C-6.34 4.67 -5.68 4.34 -5 4 C-4.67 3.01 -4.34 2.02 -4 1 C-2.68 1.33 -1.36 1.66 0 2 C0 1.34 0 0.68 0 0 Z " fill="#E2F3CF" transform="translate(458,81)"/>
<path d="M0 0 C1.33804688 0.04060547 1.33804688 0.04060547 2.703125 0.08203125 C3.37859375 0.11683594 4.0540625 0.15164063 4.75 0.1875 C1.63089144 1.98025866 -0.92682428 2.53040718 -4.5 2.8125 C-5.39203125 2.88726562 -6.2840625 2.96203125 -7.203125 3.0390625 C-7.87859375 3.08804687 -8.5540625 3.13703125 -9.25 3.1875 C-6.10408067 0.38704377 -4.182936 -0.16511589 0 0 Z " fill="#819C68" transform="translate(525.25,462.8125)"/>
<path d="M0 0 C0.66 0.33 1.32 0.66 2 1 C0.18690997 4.77727089 -1.9073259 8.37269822 -4 12 C-5.2077558 8.37673261 -4.54311128 7.35853631 -3 4 C-2.34 4 -1.68 4 -1 4 C-0.67 2.68 -0.34 1.36 0 0 Z " fill="#E2EFD9" transform="translate(381,58)"/>
<path d="M0 0 C2.64 0 5.28 0 8 0 C8.33 1.32 8.66 2.64 9 4 C6.03 3.01 3.06 2.02 0 1 C0 0.67 0 0.34 0 0 Z " fill="#F2F8DC" transform="translate(304,398)"/>
<path d="M0 0 C0.33 0 0.66 0 1 0 C1.36666667 5.5 1.36666667 5.5 -0.375 7.875 C-2 9 -2 9 -4 9 C-2.80100302 5.9168649 -1.52299523 2.93720508 0 0 Z " fill="#DFEFCF" transform="translate(391,77)"/>
<path d="M0 0 C0.33 0.66 0.66 1.32 1 2 C1.66 2.33 2.32 2.66 3 3 C0.69 4.65 -1.62 6.3 -4 8 C-4.33 6.68 -4.66 5.36 -5 4 C-4.360625 3.71125 -3.72125 3.4225 -3.0625 3.125 C-0.84793921 2.17176549 -0.84793921 2.17176549 0 0 Z " fill="#E4F0DC" transform="translate(395,43)"/>
<path d="M0 0 C0.33 0 0.66 0 1 0 C2.46845421 5.47332932 1.44038726 8.11922548 -1 13 C-2.07310858 9.72814447 -1.89263102 7.57052408 -1.0625 4.25 C-0.86785156 3.45078125 -0.67320312 2.6515625 -0.47265625 1.828125 C-0.31667969 1.22484375 -0.16070313 0.6215625 0 0 Z " fill="#434244" transform="translate(527,590)"/>
<path d="M0 0 C0.66 0.33 1.32 0.66 2 1 C1.74438677 3.3431213 1.40729228 5.67843403 1 8 C0.01 8.495 0.01 8.495 -1 9 C-1.09765625 2.84765625 -1.09765625 2.84765625 -1 1 C-0.67 0.67 -0.34 0.34 0 0 Z " fill="#A3BD5F" transform="translate(347,344)"/>
<path d="M0 0 C2.22825644 2.22825644 2.69239369 3.65761628 3.625 6.625 C4.01558594 7.85089844 4.01558594 7.85089844 4.4140625 9.1015625 C4.60742188 9.72804688 4.80078125 10.35453125 5 11 C4.01 10.34 3.02 9.68 2 9 C2 8.34 2 7.68 2 7 C1.34 7 0.68 7 0 7 C0 4.69 0 2.38 0 0 Z " fill="#AEC47A" transform="translate(469,68)"/>
<path d="M0 0 C0.66 0 1.32 0 2 0 C1.67 2.31 1.34 4.62 1 7 C-0.32 7 -1.64 7 -3 7 C-2.67 5.35 -2.34 3.7 -2 2 C-1.34 2 -0.68 2 0 2 C0 1.34 0 0.68 0 0 Z " fill="#DDE8D5" transform="translate(365,51)"/>
<path d="M0 0 C1 4 1 4 0.00390625 5.703125 C-1.33072917 7.13541667 -2.66536458 8.56770833 -4 10 C-4.66 9.67 -5.32 9.34 -6 9 C-4.02 6.03 -2.04 3.06 0 0 Z " fill="#CBC9CC" transform="translate(496,656)"/>
<path d="M0 0 C0.33 0.66 0.66 1.32 1 2 C0.22265625 3.9453125 0.22265625 3.9453125 -0.9375 6.125 C-1.31777344 6.84945312 -1.69804687 7.57390625 -2.08984375 8.3203125 C-2.39019531 8.87460937 -2.69054687 9.42890625 -3 10 C-3.97591583 6.61682513 -3.85856655 4.4342662 -3 1 C-2.01 0.67 -1.02 0.34 0 0 Z " fill="#D5D3D4" transform="translate(271,634)"/>
<path d="M0 0 C0.66 0.33 1.32 0.66 2 1 C0.90716423 2.03295436 -0.19970579 3.05107835 -1.3125 4.0625 C-1.92738281 4.63097656 -2.54226563 5.19945312 -3.17578125 5.78515625 C-3.77777344 6.18605469 -4.37976563 6.58695313 -5 7 C-5.99 6.67 -6.98 6.34 -8 6 C-5.36 4.02 -2.72 2.04 0 0 Z " fill="#C3C1C4" transform="translate(336,595)"/>
<path d="M0 0 C2 3 2 3 1.75 5.5 C1 8 1 8 -1 11 C-1.14285714 3.57142857 -1.14285714 3.57142857 0 0 Z " fill="#9CBD60" transform="translate(223,376)"/>
<path d="M0 0 C2.79872437 2.52788007 4.45773019 4.20411134 5 8 C3.0625 7.375 3.0625 7.375 1 6 C0.25 2.875 0.25 2.875 0 0 Z " fill="#EBF7D8" transform="translate(397,301)"/>
<path d="M0 0 C0.99 0.33 1.98 0.66 3 1 C1.68 3.64 0.36 6.28 -1 9 C-1.33 9 -1.66 9 -2 9 C-2.25 3.375 -2.25 3.375 0 0 Z " fill="#E3F0D1" transform="translate(373,70)"/>
<path d="M0 0 C-2.68841859 2.25245881 -4.64641875 3.88213958 -8 5 C-7.8125 3.125 -7.8125 3.125 -7 1 C-2.66666667 -1.33333333 -2.66666667 -1.33333333 0 0 Z " fill="#9BBC64" transform="translate(416,54)"/>
<path d="M0 0 C0 0.99 0 1.98 0 3 C-3.375 3.125 -3.375 3.125 -7 3 C-7.66 2.34 -8.32 1.68 -9 1 C-5.94152152 0.45627049 -3.11227195 0 0 0 Z " fill="#E0EDD6" transform="translate(612,446)"/>
<path d="M0 0 C2.96175123 0.61277612 4.38058783 1.25372522 7 3 C6.67 3.99 6.34 4.98 6 6 C3.96166576 4.7260411 1.96147874 3.38938077 0 2 C0 1.34 0 0.68 0 0 Z " fill="#EDF6D8" transform="translate(327,310)"/>
<path d="M0 0 C-0.66 0 -1.32 0 -2 0 C-2 0.66 -2 1.32 -2 2 C-4.31 2.33 -6.62 2.66 -9 3 C-5.83583464 -0.30799106 -4.50236011 -1.35070803 0 0 Z " fill="#ADC564" transform="translate(365,230)"/>
<path d="M0 0 C0.33 0 0.66 0 1 0 C1 1.98 1 3.96 1 6 C2.32 6.33 3.64 6.66 5 7 C3.02 7.33 1.04 7.66 -1 8 C-0.67 5.36 -0.34 2.72 0 0 Z " fill="#DAE9BA" transform="translate(326,118)"/>
<path d="M0 0 C2.97 0 5.94 0 9 0 C5.81237635 2.12508244 3.73487777 2.5020163 0 3 C0 2.01 0 1.02 0 0 Z " fill="#E4F0D2" transform="translate(338,119)"/>
<path d="M0 0 C-0.99 0.33 -1.98 0.66 -3 1 C-3 1.66 -3 2.32 -3 3 C-5.31 3 -7.62 3 -10 3 C-3.66666667 -1.22222222 -3.66666667 -1.22222222 0 0 Z " fill="#ADC878" transform="translate(422,97)"/>
<path d="M0 0 C2.31 1.98 4.62 3.96 7 6 C5.68 6.33 4.36 6.66 3 7 C0 2.25 0 2.25 0 0 Z " fill="#7D9C63" transform="translate(507,87)"/>
<path d="M0 0 C0.99 0.33 1.98 0.66 3 1 C3.73046875 3.06640625 3.73046875 3.06640625 4.1875 5.5625 C4.34605469 6.38878906 4.50460937 7.21507813 4.66796875 8.06640625 C4.77753906 8.70449219 4.88710938 9.34257813 5 10 C2.08772731 6.71195019 0.50298788 4.40114397 0 0 Z " fill="#E3F0D0" transform="translate(466,60)"/>
<path d="M0 0 C0.33 0.66 0.66 1.32 1 2 C-0.32 3.32 -1.64 4.64 -3 6 C-3.66 5.34 -4.32 4.68 -5 4 C-3.35 2.68 -1.7 1.36 0 0 Z " fill="#D0CED1" transform="translate(482,674)"/>
<path d="M0 0 C0.33 0.99 0.66 1.98 1 3 C-1.31 4.65 -3.62 6.3 -6 8 C-4.73058503 4.08597051 -3.48832306 2.20927127 0 0 Z " fill="#C7C5C8" transform="translate(450,600)"/>
<path d="M0 0 C0.92538169 3.70152678 1.08174162 4.63458162 0 8 C-1.32 8.33 -2.64 8.66 -4 9 C-2.68 6.03 -1.36 3.06 0 0 Z " fill="#B1AFB2" transform="translate(570,542)"/>
<path d="M0 0 C3.63 0.33 7.26 0.66 11 1 C11 1.33 11 1.66 11 2 C9.54263913 2.19491452 8.08405407 2.38069358 6.625 2.5625 C5.81289063 2.66691406 5.00078125 2.77132813 4.1640625 2.87890625 C2 3 2 3 0 2 C0 1.34 0 0.68 0 0 Z " fill="#E2EFCD" transform="translate(257,435)"/>
<path d="M0 0 C2.97 0.495 2.97 0.495 6 1 C4.6875 2.5 4.6875 2.5 3 4 C2.01 4 1.02 4 0 4 C0 2.68 0 1.36 0 0 Z " fill="#9EBC59" transform="translate(337,355)"/>
<path d="M0 0 C0.33 0.66 0.66 1.32 1 2 C1.66 2 2.32 2 3 2 C2.67 4.64 2.34 7.28 2 10 C1.67 10 1.34 10 1 10 C0.67 6.7 0.34 3.4 0 0 Z " fill="#DBE9D3" transform="translate(595,313)"/>
<path d="M0 0 C2.475 0.495 2.475 0.495 5 1 C5 1.99 5 2.98 5 4 C5.66 4 6.32 4 7 4 C6.67 4.66 6.34 5.32 6 6 C3.97945196 4.35830472 1.97956942 2.69088222 0 1 C0 0.67 0 0.34 0 0 Z " fill="#A8C371" transform="translate(379,281)"/>
<path d="M0 0 C-0.33 0.66 -0.66 1.32 -1 2 C-3.31 2 -5.62 2 -8 2 C-6.14210462 -1.71579076 -3.44525918 -1.06921837 0 0 Z " fill="#A7C474" transform="translate(305,134)"/>
<path d="M0 0 C-6.4 3.07692308 -6.4 3.07692308 -9.4375 2.6875 C-9.953125 2.460625 -10.46875 2.23375 -11 2 C-3.57142857 -1.57142857 -3.57142857 -1.57142857 0 0 Z " fill="#DCEAC4" transform="translate(388,41)"/>
</svg>
