<?xml version="1.0" encoding="UTF-8"?>
<svg version="1.1" xmlns="http://www.w3.org/2000/svg" width="2048" height="2048">
<path d="M0 0 C675.84 0 1351.68 0 2048 0 C2048 675.84 2048 1351.68 2048 2048 C1372.16 2048 696.32 2048 0 2048 C0 1372.16 0 696.32 0 0 Z " fill="#2A3944" transform="translate(0,0)"/>
<path d="M0 0 C1.24051243 1.25972223 1.24051243 1.25972223 2.76091099 3.12839508 C8.40861213 9.75927513 14.66370904 15.79806383 20.82542419 21.94567871 C22.24236067 23.36305162 23.65907722 24.7806444 25.07559353 26.19843721 C28.95687384 30.08194829 32.84125645 33.96234322 36.72616184 37.84222746 C40.91943806 42.031179 45.10981754 46.22302652 49.30055237 50.41452026 C57.0301423 58.14466825 64.76194995 65.87259349 72.49482653 73.59945355 C79.63447562 80.73359502 86.77298208 87.86887765 93.91038704 95.00526428 C94.38403646 95.47884496 94.85768588 95.95242565 95.34568832 96.44035726 C97.75123566 98.84556625 100.15676452 101.25079373 102.56228627 103.65602833 C119.58827052 120.67991373 136.61657069 137.70148089 153.64624023 154.72167969 C170.1874555 171.25370648 186.72761703 187.78678637 203.26635742 204.32128906 C203.77640386 204.83120398 204.2864503 205.34111889 204.81195269 205.86648577 C209.93417759 210.98739211 215.05638112 216.10831984 220.178569 221.22926321 C230.61249823 231.66065642 241.04657006 242.091907 251.48072815 252.52307129 C251.96044433 253.00265018 252.44016051 253.48222907 252.93441355 253.97634066 C284.95388651 285.98661728 316.97669339 317.99355864 349 350 C347.43798939 353.74400394 345.12944367 356.11997569 342.27600658 358.97239041 C341.54510691 359.70712434 341.54510691 359.70712434 340.7994416 360.45670137 C339.15534054 362.10695777 337.5041704 363.7499555 335.85297966 365.393116 C334.65983342 366.58774087 333.46712631 367.78280446 332.27482051 368.97826815 C328.97700956 372.28224001 325.67295275 375.5799048 322.36790103 378.87663135 C318.78105018 382.45663367 315.19998578 386.04241601 311.61820138 389.62748599 C305.33327147 395.9165709 299.04461956 402.20191492 292.75355148 408.48485947 C283.39890901 417.8274559 274.04998164 427.17575547 264.70223951 436.52525542 C248.97940778 452.25071807 233.25192273 467.97151987 217.52178574 483.68967438 C201.94128939 499.25833056 186.36286032 514.82905056 170.78720474 530.40254974 C170.06193916 531.12771209 170.06193916 531.12771209 169.32202175 531.86752418 C164.90597667 536.28294288 160.48995708 540.69838708 156.07396809 545.11386189 C145.09573579 556.09081531 134.11718361 567.06744879 123.13841438 578.0438652 C122.6384355 578.54373745 122.13845662 579.0436097 121.62332686 579.55862959 C97.2952238 603.88148812 72.96343628 628.20065991 48.63134766 652.51953125 C40.18632735 660.95996828 31.74132332 669.4004216 23.29638672 677.84094238 C22.77263929 678.36441591 22.24889187 678.88788943 21.70927331 679.42722579 C-2.63305481 703.75686851 -26.97276695 728.08912761 -51.31180355 752.42206306 C-52.89168399 754.00154737 -54.47156555 755.58103055 -56.05144734 757.16051349 C-66.52130139 767.62772801 -76.99111033 778.09498764 -87.46088906 788.5622775 C-108.2936016 809.39003688 -129.12657921 830.21753112 -149.95973889 851.04484323 C-150.95189463 852.03672049 -151.94405017 853.02859792 -152.93620553 854.02047554 C-214.13166456 915.19879973 -275.33290587 976.3713391 -351 1052 C-355.04484802 1050.13174505 -357.82203664 1047.45383928 -360.92703629 1044.31905937 C-361.5192057 1043.72919764 -362.11137512 1043.13933591 -362.72148907 1042.53159958 C-364.71659156 1040.54181641 -366.70444475 1038.5449436 -368.69244385 1036.54806519 C-370.13089957 1035.11048113 -371.56979451 1033.67333646 -373.00909209 1032.23659527 C-376.97231438 1028.27785809 -380.9292516 1024.31288963 -384.88522291 1020.34690833 C-389.14879599 1016.07471979 -393.41812509 1011.80829046 -397.68676758 1007.54116821 C-405.08481998 1000.14416587 -412.47922977 992.74353648 -419.87110138 985.34035873 C-427.6247202 977.57491085 -435.38039913 969.8115301 -443.13884735 962.05090714 C-443.62102107 961.56859593 -444.10319479 961.08628473 -444.59997984 960.58935804 C-447.04865026 958.14001097 -449.49735763 955.69070083 -451.94607922 953.24140491 C-469.29585446 935.88742748 -486.64098693 918.52881645 -503.98339844 901.16748047 C-520.83261409 884.29989975 -537.68392648 867.43441827 -554.53808594 850.57177734 C-555.05749129 850.05210894 -555.57689664 849.53244053 -556.11204155 848.9970246 C-561.32806735 843.77836179 -566.54413585 838.55974166 -571.76023563 833.3411528 C-582.38628264 822.7100332 -593.01204462 812.07862872 -603.63763428 801.447052 C-604.12619526 800.95821644 -604.61475625 800.46938087 -605.11812211 799.96573211 C-637.75018981 767.31525925 -670.3755912 734.65812546 -703 702 C-697.54205293 695.36222076 -691.48897007 689.34850339 -685.41322708 683.28459263 C-684.22135517 682.09137315 -683.02970178 680.89793535 -681.83824652 679.70429984 C-678.55975684 676.42108443 -675.27816324 673.14098683 -671.99605661 669.86138769 C-668.42742749 666.29439194 -664.86168722 662.72451032 -661.29557586 659.15499777 C-655.04396092 652.89822808 -648.79047871 646.64332954 -642.53577232 640.38965034 C-633.23518519 631.0905869 -623.93744087 621.78868493 -614.64023633 612.48623972 C-597.07267669 594.90900437 -579.50168437 577.33520286 -561.92957243 559.76251877 C-559.99197352 557.82485511 -558.05437621 555.88718986 -556.11678028 553.94952321 C-555.63597089 553.46869682 -555.1551615 552.98787042 -554.65978213 552.49247353 C-544.00530047 541.83758342 -533.35170966 531.18180276 -522.69827686 520.52586394 C-518.31183131 516.13839007 -513.92536662 511.75093534 -509.53890586 507.36347669 C-509.05425233 506.87871258 -508.5695988 506.39394846 -508.0702588 505.89449452 C-480.30186666 478.11977932 -452.53237615 450.34616267 -424.76059341 422.57483768 C-423.72146072 421.53572077 -422.68232804 420.49660383 -421.64319539 419.45748687 C-416.95154573 414.7659106 -412.25988868 410.07434172 -407.56822956 405.38277492 C-405.47607127 403.29065776 -403.38391347 401.19854011 -401.29175573 399.1064224 C-400.24459449 398.05928156 -399.19743294 397.01214103 -398.15027108 395.96500082 C-365.01552392 362.83093436 -331.88478287 329.69286714 -298.75732422 296.55151367 C-290.40613331 288.19682189 -282.05492665 279.84214585 -273.70363235 271.48755741 C-273.18944558 270.97316777 -272.67525881 270.45877812 -272.14549062 269.92880091 C-256.30699001 254.08408887 -240.46726811 238.24059856 -224.62629318 222.39836025 C-224.12922908 221.9012562 -223.63216498 221.40415215 -223.12003833 220.89198434 C-212.21038406 209.98147695 -201.30043395 199.07126543 -190.39021066 188.16132705 C-186.48684873 184.2580616 -182.58350902 180.35477393 -178.68018023 176.45147535 C-177.70910138 175.48040441 -176.73802139 174.50933462 -175.76694024 173.53826598 C-160.27470956 158.04621184 -144.78542281 142.55121834 -129.29759286 127.05476478 C-113.27619043 111.02448694 -97.25115792 94.99784467 -81.22191867 78.97540272 C-71.97205679 69.72925134 -62.72500602 60.48030885 -53.481881 51.22742271 C-47.31935389 45.05893493 -41.15324774 38.89404084 -34.98413109 32.7321433 C-31.46164584 29.21357285 -27.9408135 25.69338845 -24.424297 22.16885186 C-21.23235267 18.9696909 -18.03593605 15.77507405 -14.83571471 12.58419343 C-13.67920664 11.42942267 -12.52441224 10.27293279 -11.37144711 9.11462462 C-9.81811086 7.55456677 -8.25886363 6.00067887 -6.69785333 4.44830567 C-5.39945652 3.14977653 -5.39945652 3.14977653 -4.07482947 1.82501448 C-2 0 -2 0 0 0 Z " fill="#63C8A8" transform="translate(1234,671)"/>
<path d="M0 0 C4.47655182 3.83704441 8.75701835 7.61184865 12.89642042 11.77107126 C13.44979804 12.32304656 14.00317567 12.87502187 14.57332231 13.4437237 C16.41970044 15.28663305 18.26251306 17.13306568 20.10535336 18.97951221 C21.45035523 20.32347046 22.79557602 21.66720963 24.14099541 23.01074991 C27.84564587 26.71150073 31.54717075 30.41536411 35.24820175 34.11973419 C39.27203051 38.14609599 43.29875218 42.16956287 47.32510811 46.19339722 C54.38397545 53.24864896 61.44097513 60.30576453 68.49676132 67.3640976 C76.06685103 74.93691242 83.63799894 82.50866632 91.21048546 90.0790844 C91.68887992 90.55734969 92.16727439 91.03561498 92.66016565 91.52837316 C94.60860253 93.47627677 96.55704713 95.42417266 98.50550152 97.37205875 C116.65040803 115.51167674 134.7928495 133.65375828 152.93371391 151.79741859 C153.47117503 152.33496251 154.00863615 152.87250643 154.56238397 153.42633955 C155.10070149 153.96474 155.63901901 154.50314045 156.19364918 155.05785606 C172.58644609 171.45317504 188.98017721 187.84755918 205.37483406 204.2410183 C206.47222281 205.33832956 207.56961139 206.43564099 208.66699981 207.53295258 C213.07676255 211.94240486 217.48652939 216.35185304 221.89630222 220.76129523 C234.22323764 233.08731362 246.54999984 245.41350523 258.87662601 257.73983288 C259.43795343 258.30114665 259.99928084 258.86246042 260.57761818 259.44078369 C278.46497845 277.32773466 296.35157042 295.21545371 314.23763943 313.10369587 C314.81780809 313.68393478 315.39797676 314.2641737 315.99572629 314.86199561 C325.41766002 324.28507433 334.83955652 333.70819027 344.26144987 343.13130936 C381.64636057 380.52107848 419.03381418 417.90830289 456.42358398 455.29321289 C465.84905964 464.71746741 475.27453024 474.14172698 484.69996548 483.56602192 C485.28028216 484.14626815 485.86059884 484.72651439 486.45850088 485.32434384 C504.33328077 503.19696865 522.20744084 521.07021313 540.08092594 538.9441328 C540.64174809 539.50496854 541.20257024 540.06580427 541.78038699 540.64363502 C554.08926242 552.95282288 566.39797728 565.26217128 578.70654723 577.5716646 C583.11018474 581.97563126 587.51383028 586.37958988 591.91747813 590.7835462 C593.01303341 591.87917888 594.10858803 592.97481222 595.20414197 594.07044624 C611.59841482 610.46591409 627.9937951 626.86027383 644.38992699 643.25388257 C644.92796768 643.79184046 645.46600837 644.32979835 646.02035332 644.884058 C646.55740557 645.42102757 647.09445782 645.95799714 647.64778438 646.51123851 C665.7317249 664.59242533 683.81378719 682.67548856 701.8937087 700.76069412 C703.83223918 702.699777 705.77077751 704.63885202 707.70932198 706.57792091 C708.18509195 707.0538211 708.66086193 707.52972128 709.15104917 708.02004268 C717.16620451 716.03729631 725.18334041 724.05256644 733.20098823 732.06732748 C740.15862411 739.02273349 747.11446323 745.9799328 754.06879669 752.93864071 C758.04032329 756.91256306 762.01266271 760.88566406 765.98716872 764.85660676 C769.59404601 768.46028302 773.19866461 772.06620177 776.80140001 775.67401871 C778.10541379 776.97904985 779.41028818 778.28322169 780.71607051 779.58648327 C782.47334891 781.34060662 784.22758607 783.09771327 785.98102373 784.85567456 C786.49705135 785.36931145 787.01307898 785.88294833 787.54474381 786.41214997 C791 789.88584429 791 789.88584429 791 791 C529.97 791 268.94 791 0 791 C0 529.97 0 268.94 0 0 Z " fill="#27343E" transform="translate(0,1257)"/>
<path d="M0 0 C3.97119757 1.60151324 6.64061362 4.36428371 9.5990715 7.35297585 C10.15578507 7.90738173 10.71249865 8.46178761 11.28608233 9.03299367 C13.16057394 10.90216841 15.02781448 12.7784241 16.89520264 14.6546936 C18.24703759 16.00565683 19.59931178 17.35618066 20.95198846 18.70630109 C24.67577786 22.42560637 28.3932821 26.15113954 32.10982013 29.87768888 C36.11572138 33.892207 40.12738002 37.90096437 44.13835144 41.91041565 C51.0895048 48.86051904 58.03697965 55.8142822 64.981987 62.77052689 C75.0233735 72.82815025 85.07026175 82.88026278 95.11851218 92.93102805 C111.41999865 109.23689447 127.71701942 125.54721534 144.01123047 141.86035156 C159.84189117 157.70937783 175.6746489 173.5563044 191.51025391 189.40039062 C191.99828408 189.88868386 192.48631426 190.37697709 192.98913324 190.88006708 C197.89008763 195.7836585 202.79108473 200.68720723 207.69211312 205.59072469 C248.80120053 246.72069805 289.90307778 287.85787133 331 329 C329.73515549 331.76375598 328.44069441 333.8089581 326.29283577 335.95441055 C325.73867766 336.51280703 325.18451954 337.07120351 324.61356875 337.64652109 C324.00361167 338.2509383 323.39365459 338.8553555 322.76521397 339.47808838 C321.79059738 340.45571711 321.79059738 340.45571711 320.79629156 341.45309591 C318.60277773 343.65092456 316.40216099 345.84150237 314.20155334 348.03222656 C312.61761316 349.6163227 311.03411374 351.20085966 309.45101923 352.78580093 C305.08760983 357.15175008 300.7179732 361.51142058 296.34733784 365.87013435 C292.12261557 370.08528589 287.90258871 374.3051314 283.68247481 378.52489555 C275.04721481 387.15913409 266.40737435 395.78877528 257.7650013 404.41589355 C249.203878 412.96196465 240.64503925 421.51031377 232.08917046 430.06164551 C231.55738615 430.59314721 231.02560184 431.12464892 230.47770285 431.67225674 C227.77703796 434.37151711 225.07641927 437.07082371 222.37582188 439.77015162 C203.23814196 458.89873839 184.09620603 478.02306077 164.95141602 497.14453125 C163.7933572 498.3011825 162.63529847 499.45783383 161.47723984 500.61448526 C160.90345208 501.18757542 160.32966433 501.76066557 159.73848906 502.3511221 C156.83556478 505.25051756 153.93264278 508.14991531 151.02972412 511.04931641 C150.1662721 511.91172074 150.1662721 511.91172074 149.28537659 512.79154739 C135.91556357 526.145181 122.5470308 539.50009597 109.17895508 552.85546875 C108.60634985 553.42752786 108.03374462 553.99958697 107.44378772 554.58898121 C94.37433005 567.6459963 81.30546693 580.7036061 68.23777676 593.76239014 C67.68876728 594.31102422 67.1397578 594.85965831 66.57411167 595.42491767 C61.63582664 600.35983646 56.69756554 605.29477919 51.75943082 610.22984838 C39.43547422 622.54615106 27.11003524 634.86096407 14.78095371 647.17213666 C6.18975504 655.75086592 -2.39984225 664.33119544 -10.98772209 672.91324711 C-15.64286774 677.56511364 -20.29892819 682.21605829 -24.95714188 686.86485291 C-29.21717002 691.1162823 -33.474922 695.36997721 -37.73084266 699.62551832 C-39.27503207 701.16873793 -40.82008231 702.71109672 -42.36605524 704.25252962 C-44.45946941 706.34002912 -46.5498045 708.43056353 -48.63937283 710.52191162 C-49.5507967 711.42853743 -49.5507967 711.42853743 -50.48063317 712.35347891 C-53.22085031 715.10223597 -55.78447339 717.79441696 -58 721 C-58.66 720.67 -59.32 720.34 -60 720 C-59.175 719.01 -58.35 718.02 -57.5 717 C-41.13890108 695.17227799 -37.3676714 668.55719951 -40.625 642 C-44.90386265 619.40037331 -58.17721382 601.31113666 -74.18067932 585.47201538 C-75.2862879 584.36653109 -76.39123053 583.26038045 -77.49557251 582.15363085 C-80.50137189 579.14503058 -83.5163507 576.14578514 -86.53302586 573.14809537 C-89.79608041 569.90222466 -93.05032642 566.64754291 -96.3056488 563.3939209 C-101.93689453 557.76790521 -107.57347753 552.14728407 -113.21368599 546.53025436 C-121.36931921 538.40794663 -129.51562027 530.27632998 -137.65952777 522.1422673 C-150.87635378 508.94173455 -164.09913551 495.74718553 -177.32641602 482.55712891 C-178.11683003 481.76893602 -178.90724405 480.98074313 -179.72161 480.1686656 C-182.92505207 476.97424081 -186.12850343 473.77982534 -189.33196831 470.58542343 C-198.17127755 461.77099553 -207.00936772 452.95534577 -215.84692383 444.13916016 C-217.0351883 442.95377415 -217.0351883 442.95377415 -218.24745811 441.74444096 C-231.43617864 428.58738283 -244.62093837 415.42636126 -257.80326694 402.26289904 C-265.93382201 394.14443346 -274.06821927 386.02985253 -282.2075687 377.92020376 C-287.77382283 372.37388146 -293.33666333 366.82415165 -298.89678324 361.27167992 C-302.10837307 358.064784 -305.32164517 354.8596185 -308.53926468 351.65877151 C-311.47977858 348.73354607 -314.41574599 345.80383903 -317.34805071 342.87038524 C-318.41398511 341.80569612 -319.48164597 340.74273233 -320.55112559 339.68160443 C-321.99562355 338.24792171 -323.43348337 336.80755972 -324.87091923 335.36679649 C-326.07566854 334.16562567 -326.07566854 334.16562567 -327.30475622 332.94018877 C-329 331 -329 331 -329 329 C-327.71067852 327.72965175 -327.71067852 327.72965175 -325.81898403 326.18604755 C-319.50953916 320.81272298 -313.746351 314.88444105 -307.89625549 309.02323914 C-306.57033874 307.69847568 -305.24420426 306.37393013 -303.91787189 305.04958278 C-300.28712502 301.42300018 -296.65949112 297.79331779 -293.03237736 294.16310203 C-289.1153758 290.2438349 -285.1954942 286.32745006 -281.27598572 282.41069031 C-273.60506007 274.74420819 -265.93683654 267.07502887 -258.26958276 259.4048747 C-252.04116437 253.17419771 -245.81177035 246.94449772 -239.58167839 240.71549416 C-238.69493544 239.82890443 -237.80819248 238.94231471 -236.89457853 238.02885864 C-235.09323877 236.2278386 -233.29189676 234.42682081 -231.49055254 232.62580524 C-215.08821805 216.2262399 -198.68870464 199.82385605 -182.29037568 183.42028578 C-167.31428049 168.4394403 -152.33559542 153.46118895 -137.35473633 138.48510742 C-120.52097043 121.65669207 -103.68882513 104.82665845 -86.85927147 87.9940303 C-85.06672016 86.20116044 -83.27416677 84.40829267 -81.48161125 82.61542702 C-80.15858924 81.2921736 -80.15858924 81.2921736 -78.80883952 79.94218778 C-72.58145076 73.71393416 -66.3528994 67.48684463 -60.12390327 61.26019859 C-52.54167641 53.68076951 -44.96121992 46.09957523 -37.38306261 38.51607718 C-33.5138572 34.64423519 -29.6438409 30.77321276 -25.7716713 26.90433502 C-22.23239868 23.36802594 -18.69541338 19.8294463 -15.16029667 16.28898285 C-13.87607141 15.0036337 -12.59098839 13.71914092 -11.30499692 12.43555888 C-9.56711661 10.70068702 -7.83229664 8.96281338 -6.09825993 7.22410107 C-5.58978318 6.71796549 -5.08130643 6.2118299 -4.5574213 5.69035688 C-1.95079077 3.09211493 -1.95079077 3.09211493 0 0 Z " fill="#FEFEFE" transform="translate(857,310)"/>
<path d="M0 0 C0.33 0 0.66 0 1 0 C1 22.77 1 45.54 1 69 C-21.77 69 -44.54 69 -68 69 C-68 68.67 -68 68.34 -68 68 C-67.030625 67.8040625 -66.06125 67.608125 -65.0625 67.40625 C-50.2366462 64.1879458 -37.26954444 58.3403013 -26 48 C-25.24460937 47.33613281 -24.48921875 46.67226562 -23.7109375 45.98828125 C-10.42917331 33.64217399 -3.48234653 17.55329143 0 0 Z " fill="#000000" transform="translate(2047,1979)"/>
<path d="M0 0 C0.33 0 0.66 0 1 0 C1.1959375 0.969375 1.391875 1.93875 1.59375 2.9375 C4.8120542 17.7633538 10.6596987 30.73045556 21 42 C21.66386719 42.75539063 22.32773437 43.51078125 23.01171875 44.2890625 C35.35782601 57.57082669 51.44670857 64.51765347 69 68 C69 68.33 69 68.66 69 69 C46.23 69 23.46 69 0 69 C0 46.23 0 23.46 0 0 Z " fill="#000000" transform="translate(0,1979)"/>
<path d="M0 0 C22.77 0 45.54 0 69 0 C69 22.77 69 45.54 69 69 C68.67 69 68.34 69 68 69 C67.70609375 67.5459375 67.70609375 67.5459375 67.40625 66.0625 C64.1879458 51.2366462 58.3403013 38.26954444 48 27 C47.33613281 26.24460937 46.67226562 25.48921875 45.98828125 24.7109375 C33.64217399 11.42917331 17.55329143 4.48234653 0 1 C0 0.67 0 0.34 0 0 Z " fill="#000000" transform="translate(1979,0)"/>
<path d="M0 0 C22.77 0 45.54 0 69 0 C69 0.33 69 0.66 69 1 C68.030625 1.1959375 67.06125 1.391875 66.0625 1.59375 C51.2366462 4.8120542 38.26954444 10.6596987 27 21 C25.86691406 21.99580078 25.86691406 21.99580078 24.7109375 23.01171875 C11.42917331 35.35782601 4.48234653 51.44670857 1 69 C0.67 69 0.34 69 0 69 C0 46.23 0 23.46 0 0 Z " fill="#000000" transform="translate(0,0)"/>
</svg>
