<?xml version="1.0" encoding="UTF-8"?>
<svg version="1.1" xmlns="http://www.w3.org/2000/svg" width="225" height="225">
<path d="M0 0 C1.79296875 2.234375 1.79296875 2.234375 3 4 C2.40832031 4.08636719 1.81664062 4.17273438 1.20703125 4.26171875 C-4.33840956 5.24777593 -7.38908358 6.4042882 -11 11 C-13.86751493 15.91280336 -13.96402829 20.45683732 -13 26 C-11.17754601 30.91475513 -8.58674373 35.49305629 -6.06054688 40.07373047 C3.23557013 56.95825237 5.30050184 69.95197251 -0.1640625 88.80859375 C-0.43895508 89.73397949 -0.71384766 90.65936523 -0.99707031 91.61279297 C-2.01028142 95.03472356 -2.99933965 98.46294806 -3.98548889 101.89274597 C-4.96241194 105.28280845 -5.94876852 108.67007277 -6.93783569 112.05661011 C-7.437675 113.76908621 -7.9357423 115.48208053 -8.43203735 117.19558716 C-9.13798597 119.62505289 -9.85455424 122.05112949 -10.57421875 124.4765625 C-10.78867645 125.22047745 -11.00313416 125.9643924 -11.22409058 126.73085022 C-11.75686986 128.50608447 -12.37103713 130.25652183 -13 132 C-13.66 132.33 -14.32 132.66 -15 133 C-23.01556593 109.59265616 -30.99090212 86.17165979 -38.93667603 62.74053955 C-39.89773016 59.90660979 -40.85950062 57.07292467 -41.8218689 54.23944092 C-42.96765239 50.86574449 -44.11193105 47.49154142 -45.25504494 44.11693954 C-45.88768096 42.25048483 -46.52179257 40.38453049 -47.15592957 38.51858521 C-47.53163589 37.40837006 -47.90734222 36.29815491 -48.29443359 35.15429688 C-48.62526947 34.17875854 -48.95610535 33.20322021 -49.29696655 32.19812012 C-50 30 -50 30 -50 29 C-45.71 28.34 -41.42 27.68 -37 27 C-36.67 25.35 -36.34 23.7 -36 22 C-54.48 22 -72.96 22 -92 22 C-92.33 23.32 -92.66 24.64 -93 26 C-91.9350206 27.28997552 -91.9350206 27.28997552 -89.453125 27.11328125 C-85.97834839 27.32939541 -83.26584161 27.77437227 -80 29 C-78.48706055 31.29101563 -78.48706055 31.29101563 -77.44921875 34.21875 C-77.04912598 35.3013208 -76.6490332 36.3838916 -76.23681641 37.49926758 C-75.82866699 38.65450928 -75.42051758 39.80975098 -75 41 C-74.08735287 43.32789012 -73.1719435 45.65469903 -72.25390625 47.98046875 C-71.35334479 50.38153029 -70.45623355 52.78388859 -69.5625 55.1875 C-69.09134766 56.39341797 -68.62019531 57.59933594 -68.13476562 58.84179688 C-67.69970703 60.02193359 -67.26464844 61.20207031 -66.81640625 62.41796875 C-66.22001343 63.99227661 -66.22001343 63.99227661 -65.61157227 65.59838867 C-64.1104686 73.9476411 -68.4471592 82.79542949 -71.0625 90.62109375 C-71.65043335 92.39275658 -71.65043335 92.39275658 -72.25024414 94.20021057 C-73.28501746 97.31255194 -74.32429018 100.42334875 -75.36486816 103.53375244 C-76.00267394 105.4455149 -76.63634662 107.35859645 -77.26855469 109.2722168 C-78.48533771 112.95310382 -79.71018541 116.63120668 -80.9375 120.30859375 C-81.31463135 121.45122177 -81.6917627 122.59384979 -82.08032227 123.77110291 C-82.43408936 124.82302322 -82.78785645 125.87494354 -83.15234375 126.95874023 C-83.46163818 127.88645737 -83.77093262 128.8141745 -84.08959961 129.77000427 C-85 132 -85 132 -87 134 C-95.6434468 109.56732596 -104.05344875 85.06067782 -112.25657654 60.47703552 C-112.9390266 58.43292746 -113.62264052 56.38921177 -114.30651855 54.34558105 C-115.59257056 50.50127996 -116.87295559 46.65511784 -118.15234375 42.80859375 C-118.54225998 41.64281296 -118.93217621 40.47703217 -119.33390808 39.27592468 C-119.68641129 38.21219131 -120.03891449 37.14845795 -120.40209961 36.05249023 C-120.71215439 35.12073471 -121.02220917 34.18897919 -121.34165955 33.22898865 C-122 31 -122 31 -122 29 C-117.71 28.34 -113.42 27.68 -109 27 C-108.67 26.01 -108.34 25.02 -108 24 C-108.33 23.34 -108.66 22.68 -109 22 C-120.22 22 -131.44 22 -143 22 C-136.05955057 4.64887642 -117.58501617 -7.49317291 -101.22607422 -15.06152344 C-67.96666807 -29.0831463 -27.53199817 -23.95837501 0 0 Z " fill="#207499" transform="translate(175,38)"/>
<path d="M0 0 C0.69899414 0.22494141 1.39798828 0.44988281 2.11816406 0.68164062 C32.32227274 10.68993953 55.78145249 31.95617437 70.09960938 60.16650391 C82.56764874 86.13354721 84.50937615 117.7709052 75 145 C64.97221265 172.81388551 44.7492644 196.79448544 18.07421875 210.015625 C-6.08683913 221.30754515 -36.08250914 225.99550067 -62 218 C-62.99265869 217.70198486 -62.99265869 217.70198486 -64.00537109 217.39794922 C-92.44089037 208.70117528 -116.78072656 190.35548648 -131.2265625 164.04296875 C-140.44526288 146.53252888 -145.59899087 128.82714596 -145.5 108.9375 C-145.49823761 108.2670163 -145.49647522 107.59653259 -145.49465942 106.9057312 C-145.3153371 76.10107662 -133.01972111 49.43445592 -111.6875 27.375 C-82.81517526 -0.82310837 -38.79135339 -12.55957285 0 0 Z M-112.78515625 36.90625 C-134.16489941 61.49130242 -140.36484055 90.08034209 -139 122 C-137.24327277 142.07856692 -127.67980791 161.6463611 -115 177 C-114.22785156 177.93714844 -113.45570312 178.87429687 -112.66015625 179.83984375 C-98.84884595 195.80007753 -81.09510776 206.0539314 -61 212 C-59.85660156 212.34160156 -58.71320313 212.68320313 -57.53515625 213.03515625 C-29.2118234 220.0105475 0.5717452 213.79205977 25.29541016 199.08837891 C29.88318023 196.15909231 33.93180808 192.59514635 38 189 C38.63164062 188.49984375 39.26328125 187.9996875 39.9140625 187.484375 C58.29448399 172.88075245 69.34044741 148.51761383 73.5859375 125.875 C75.19390221 110.8268774 75.32542413 94.58736155 71 80 C70.67128906 78.87464844 70.34257812 77.74929687 70.00390625 76.58984375 C65.28786875 62.11536188 58.11947572 49.32602859 48 38 C47.5359375 37.39414062 47.071875 36.78828125 46.59375 36.1640625 C39.39638236 26.81626184 28.247367 19.55496999 18 14 C16.94425781 13.37738281 16.94425781 13.37738281 15.8671875 12.7421875 C-26.73295108 -10.85858614 -80.7015153 2.57826592 -112.78515625 36.90625 Z " fill="#1F6D90" transform="translate(145,4)"/>
<path d="M0 0 C2.33798268 2.33798268 2.91323535 4.09749146 4.02783203 7.20214844 C4.42229523 8.29219177 4.81675842 9.38223511 5.22317505 10.50531006 C5.64710541 11.69465149 6.07103577 12.88399292 6.5078125 14.109375 C6.95212616 15.34173889 7.39643982 16.57410278 7.85421753 17.84381104 C9.04305657 21.14129625 10.22516246 24.44115618 11.40582275 27.74157715 C12.57667122 31.0113675 13.75329416 34.27907635 14.9296875 37.546875 C16.30778661 41.37609613 17.68532195 45.20551523 19.05987549 49.03601074 C23.00764287 60.03580964 26.994771 71.02101096 31 82 C25.04994441 87.95005559 9.75701244 88.6444716 1.75 89.04296875 C-8.66222213 88.92366204 -18.94778977 87.71340982 -29 85 C-27.39903234 76.67084254 -24.67713064 68.77978046 -21.9140625 60.78125 C-21.41052993 59.31362285 -20.90731091 57.84588808 -20.40438843 56.37805176 C-19.35343579 53.3142671 -18.29908146 50.25168144 -17.2421875 47.18994141 C-15.89576042 43.28872918 -14.5573277 39.38483143 -13.22138405 35.48001862 C-12.18458345 32.4521733 -11.14379778 29.42570944 -10.10181808 26.39964294 C-9.6071465 24.9616986 -9.1136126 23.5233623 -8.62129593 22.08460999 C-6.04788558 14.57202423 -3.37710221 7.19577217 0 0 Z " fill="#207499" transform="translate(114,121)"/>
<path d="M0 0 C2.25263396 2.25263396 2.80225173 3.79316419 3.86914062 6.77368164 C4.23197647 7.77833969 4.59481232 8.78299774 4.96864319 9.81809998 C5.36055344 10.92097855 5.75246368 12.02385712 6.15625 13.16015625 C6.57100082 14.31262344 6.98575165 15.46509064 7.41307068 16.65248108 C8.31076861 19.14860774 9.20645897 21.64535141 10.09884644 24.14337158 C11.50485237 28.07862682 12.91854522 32.01108828 14.33422852 35.94287109 C14.57109532 36.6007449 14.80796213 37.2586187 15.05200672 37.93642807 C15.53339229 39.2733397 16.01481005 40.61023974 16.49625969 41.9471283 C17.22664609 43.97592635 17.95634448 46.00497084 18.68592834 48.03405762 C23.38039335 61.08497139 28.14825688 74.10858334 32.9375 87.125 C33.67057772 89.11987128 34.40365077 91.11474428 35.13671875 93.10961914 C35.82940779 94.99235736 36.5221155 96.87508871 37.21484375 98.7578125 C37.53919403 99.64139938 37.86354431 100.52498627 38.19772339 101.43534851 C39.7236666 105.58228771 41.26995808 109.71899803 42.86767578 113.83886719 C43.29941856 114.95985306 43.29941856 114.95985306 43.73988342 116.10348511 C44.27507575 117.48834354 44.81654336 118.87079988 45.36546326 120.25027466 C45.96787814 121.81251905 46.49217138 123.40449966 47 125 C46.67 125.66 46.34 126.32 46 127 C38.23085005 123.10065478 31.61186855 118.6261796 25 113 C24.32324219 112.46890625 23.64648438 111.9378125 22.94921875 111.390625 C5.60791828 97.35077452 -4.82905284 74.72224968 -8 53 C-9.11043442 34.19460159 -8.53616734 17.07233469 0 0 Z " fill="#207398" transform="translate(24,73)"/>
<path d="M0 0 C13.11914067 17.05600898 14.19142161 42.18617724 11.67041016 62.67919922 C8.52291246 81.60635652 -0.52717935 99.42294089 -14 113 C-14.825 113.86625 -15.65 114.7325 -16.5 115.625 C-31.63157895 130 -31.63157895 130 -36 130 C-34.60668744 123.09056922 -32.62340927 116.5868322 -30.2890625 109.94140625 C-29.92449448 108.89114258 -29.55992645 107.84087891 -29.18431091 106.75878906 C-28.00255378 103.35837679 -26.8137276 99.960481 -25.625 96.5625 C-24.80871925 94.21556785 -23.9928853 91.86848025 -23.17749023 89.52124023 C-19.57247167 79.15652637 -15.94270211 68.80117216 -12.24609375 58.46875 C-11.96822021 57.69007065 -11.69034668 56.9113913 -11.40405273 56.1091156 C-10.15164694 52.60044194 -8.89274776 49.09449584 -7.61767578 45.59399414 C-3.39915114 33.83267325 -0.61281141 22.70619554 -0.3125 10.1875 C-0.27833984 9.19685547 -0.24417969 8.20621094 -0.20898438 7.18554688 C-0.12799172 4.79047828 -0.05838468 2.39570728 0 0 Z " fill="#207499" transform="translate(197,66)"/>
<path d="M0 0 C13.11914067 17.05600898 14.19142161 42.18617724 11.67041016 62.67919922 C9.21017309 77.47358459 2.58992486 90.26851314 -5 103 C-6 100 -6 100 -5.29296875 98.2109375 C-4.92816406 97.60507813 -4.56335938 96.99921875 -4.1875 96.375 C-3.83042969 95.76398438 -3.47335938 95.15296875 -3.10546875 94.5234375 C-2 93 -2 93 0 92 C0 90.68 0 89.36 0 88 C0.66 88 1.32 88 2 88 C2.18175781 87.21496094 2.36351562 86.42992187 2.55078125 85.62109375 C4.68911917 76.68393782 4.68911917 76.68393782 6.5625 72.5625 C11.78250471 59.6259666 11.35480656 42.59567562 9 29 C8.34 28.01 7.68 27.02 7 26 C6.61500109 24.34450469 6.27206865 22.6777567 6 21 C5.54625 21.825 5.0925 22.65 4.625 23.5 C4.08875 24.325 3.5525 25.15 3 26 C2.34 26 1.68 26 1 26 C0.68546875 27.11117187 0.3709375 28.22234375 0.046875 29.3671875 C-5.21541725 47.74698801 -5.21541725 47.74698801 -8 53 C-8.99 53.495 -8.99 53.495 -10 54 C-8.11985476 46.78513373 -5.99852781 39.66771216 -3.71411133 32.57226562 C-2.01054416 27.22784504 -0.91301594 22.30367518 -0.68359375 16.69921875 C-0.64169922 15.72275391 -0.59980469 14.74628906 -0.55664062 13.74023438 C-0.51732422 12.73283203 -0.47800781 11.72542969 -0.4375 10.6875 C-0.39431641 9.66076172 -0.35113281 8.63402344 -0.30664062 7.57617188 C-0.20093175 5.05090431 -0.09883532 2.52554438 0 0 Z " fill="#216784" transform="translate(197,66)"/>
<path d="M0 0 C0.66 0 1.32 0 2 0 C1.31292507 4.83217532 0.12484911 9.35155181 -1.3125 14 C-1.51294922 14.68578125 -1.71339844 15.3715625 -1.91992188 16.078125 C-3.32961727 20.65199736 -5.16931137 24.1372266 -8 28 C-7.505 28.99 -7.505 28.99 -7 30 C-6.32845067 28.71086513 -5.66291141 27.41859796 -5 26.125 C-4.62875 25.40570313 -4.2575 24.68640625 -3.875 23.9453125 C-2.86326254 22.05151023 -2.86326254 22.05151023 -3 20 C-2.34 20 -1.68 20 -1 20 C-0.72285156 18.86820313 -0.44570312 17.73640625 -0.16015625 16.5703125 C0.20560488 15.08851098 0.57149711 13.60674182 0.9375 12.125 C1.11990234 11.37863281 1.30230469 10.63226563 1.49023438 9.86328125 C2.88671875 4.2265625 2.88671875 4.2265625 4 2 C4.66 2 5.32 2 6 2 C3.29585509 22.95712309 -10.75492443 45.77660713 -27.3203125 58.828125 C-27.87460938 59.21484375 -28.42890625 59.6015625 -29 60 C-27.62731009 56.87217921 -26.07187357 54.92390998 -23.5625 52.625 C-20.52087448 49.69109872 -18.63626888 46.94629553 -17 43 C-16.34 43 -15.68 43 -15 43 C-15.33 42.01 -15.66 41.02 -16 40 C-19.4274218 43.80275905 -22.77495082 47.55108461 -25.625 51.8125 C-28.00164764 55.00221131 -29.56950883 56.15924864 -33 58 C-34.40230652 59.17402406 -35.80403577 60.34876933 -37.19921875 61.53125 C-39.41882623 63.34160231 -41.68824094 65.05863805 -44 66.75 C-45.2065625 67.63945312 -45.2065625 67.63945312 -46.4375 68.546875 C-49.32155186 70.18234343 -51.72496027 70.63822236 -55 71 C-52.13008747 68.7730009 -49.17359743 66.8713368 -46.0625 65 C-23.58567027 50.71565961 -6.73447508 27.89571484 -0.41015625 1.87890625 C-0.27480469 1.25886719 -0.13945312 0.63882813 0 0 Z " fill="#226987" transform="translate(216,137)"/>
<path d="M0 0 C3.92858919 -0.05012431 7.85704984 -0.08605502 11.78588867 -0.10986328 C13.76552896 -0.12464917 15.74508063 -0.15008592 17.72460938 -0.17578125 C34.3276097 -0.25984707 34.3276097 -0.25984707 40 2 C41.29223633 4.07763672 41.29223633 4.07763672 42 6 C42.87180908 5.71709106 42.87180908 5.71709106 43.76123047 5.4284668 C47.48740414 4.71533323 50.70171852 6.45604768 54.125 7.8125 C54.85332031 8.08642578 55.58164063 8.36035156 56.33203125 8.64257812 C61.71851504 10.71851504 61.71851504 10.71851504 64 13 C60.12500133 14.48604318 57.57821621 13.44038235 53.75 12.125 C49.54051645 10.75610024 45.68017231 9.66880294 41.25 9.27734375 C26.45346535 7.45346535 26.45346535 7.45346535 24 5 C21.85441173 4.91224395 19.70595579 4.89304781 17.55859375 4.90234375 C16.25341797 4.90556641 14.94824219 4.90878906 13.60351562 4.91210938 C12.2148431 4.92046599 10.82617123 4.92893095 9.4375 4.9375 C8.04492344 4.94251334 6.65234519 4.94707653 5.25976562 4.95117188 C1.8398013 4.96300566 -1.58007844 4.9794912 -5 5 C-4.67 4.01 -4.34 3.02 -4 2 C-2.68 2 -1.36 2 0 2 C0 1.34 0 0.68 0 0 Z " fill="#1F7299" transform="translate(98,0)"/>
<path d="M0 0 C-0.30790262 2.84809926 -0.65478191 4.58286148 -2.5 6.8125 C-6.354818 8.64353855 -9.76103886 8.18701299 -14 8 C-13.01 10.64 -12.02 13.28 -11 16 C-10.34 15.01 -9.68 14.02 -9 13 C-8.34 13.99 -7.68 14.98 -7 16 C-7.45375 16.4125 -7.9075 16.825 -8.375 17.25 C-10.32917823 19.19019186 -10.32917823 19.19019186 -12 23 C-14.475 15.08 -14.475 15.08 -17 7 C-12.71 6.34 -8.42 5.68 -4 5 C-3.67 3.35 -3.34 1.7 -3 0 C-21.81 0 -40.62 0 -60 0 C-60 -0.66 -60 -1.32 -60 -2 C-52.09843222 -2.21890084 -44.19653512 -2.41384158 -36.29394531 -2.59204102 C-33.60490273 -2.65378338 -30.91621857 -2.72317816 -28.22753906 -2.79907227 C-24.3654277 -2.9052447 -20.50330459 -2.9916752 -16.640625 -3.07421875 C-14.83419525 -3.1302552 -14.83419525 -3.1302552 -12.99127197 -3.18742371 C-11.87041199 -3.20767105 -10.749552 -3.2279184 -9.59472656 -3.2487793 C-8.11579926 -3.28541939 -8.11579926 -3.28541939 -6.60699463 -3.32279968 C-3.58161272 -2.94819503 -2.23929148 -2.01421532 0 0 Z " fill="#1B6785" transform="translate(142,60)"/>
<path d="M0 0 C3.23897677 2.58573776 3.79301935 5.22622856 4.6875 9.1875 C4.93886719 10.27417969 5.19023437 11.36085938 5.44921875 12.48046875 C5.63097656 13.31191406 5.81273437 14.14335938 6 15 C6.66 15 7.32 15 8 15 C8.1343042 15.71913574 8.2686084 16.43827148 8.40698242 17.17919922 C9.40260402 21.91506253 10.89832397 26.50002179 12.3125 31.125 C12.60833984 32.10726562 12.90417969 33.08953125 13.20898438 34.1015625 C16.18598848 44.20360369 16.18598848 44.20360369 20 54 C20.66 54.33 21.32 54.66 22 55 C22.12117188 54.35933594 22.24234375 53.71867187 22.3671875 53.05859375 C24.33981842 42.8767834 24.33981842 42.8767834 26 38 C26.99 37.505 26.99 37.505 28 37 C26.85062114 42.55533118 25.49948165 48.02801098 24 53.5 C23.67 54.7065625 23.34 55.913125 23 57.15625 C22 60 22 60 20 61 C18.11515359 55.49086543 16.23125254 49.98140872 14.34814453 44.47167969 C13.71036951 42.60603574 13.07235728 40.74047287 12.43408203 38.875 C10.28231138 32.58573018 8.13742603 26.29415948 6 20 C5.70001099 19.11775757 5.40002197 18.23551514 5.09094238 17.32653809 C4.23680396 14.81000773 3.3871417 12.29201537 2.5390625 9.7734375 C2.15250992 8.63607651 2.15250992 8.63607651 1.75814819 7.47573853 C0 2.23021712 0 2.23021712 0 0 Z " fill="#246682" transform="translate(140,110)"/>
<path d="M0 0 C6.75162582 0.56441036 12.96841298 2.06983139 19.1015625 5.01953125 C19.4315625 5.67953125 19.7615625 6.33953125 20.1015625 7.01953125 C22.67593831 7.93233263 22.67593831 7.93233263 25.6640625 8.64453125 C26.67597656 8.90492188 27.68789062 9.1653125 28.73046875 9.43359375 C29.51292969 9.62695312 30.29539063 9.8203125 31.1015625 10.01953125 C27.88753281 12.16221771 27.02635874 12.2186471 23.3828125 11.5625 C2.72852879 6.64649754 2.72852879 6.64649754 -2.8984375 1.01953125 C-1.8984375 0.01953125 -1.8984375 0.01953125 0 0 Z " fill="#1C7295" transform="translate(61.8984375,208.98046875)"/>
<path d="M0 0 C-0.66 0 -1.32 0 -2 0 C-2 0.99 -2 1.98 -2 3 C-2.66 3 -3.32 3 -4 3 C-4 3.66 -4 4.32 -4 5 C-7.54159657 5.05841253 -11.08306793 5.09373452 -14.625 5.125 C-15.62402344 5.14175781 -16.62304688 5.15851563 -17.65234375 5.17578125 C-22.84088709 5.21014246 -27.14923649 5.10254937 -32 3 C-29.45223801 0.45223801 -28.41636646 0.71599154 -24.87890625 0.62109375 C-23.86119141 0.58693359 -22.84347656 0.55277344 -21.79492188 0.51757812 C-20.72822266 0.49115234 -19.66152344 0.46472656 -18.5625 0.4375 C-16.45952177 0.37756066 -14.35664475 0.31392402 -12.25390625 0.24609375 C-10.85120483 0.21020142 -10.85120483 0.21020142 -9.42016602 0.17358398 C-1.31407735 -0.40781711 -1.31407735 -0.40781711 0 0 Z " fill="#1A749A" transform="translate(132,220)"/>
<path d="M0 0 C12.86848234 12.1827728 23.09419131 31.47434134 26 49 C26.0372867 50.66624953 26.04717873 52.33400122 26 54 C24.10180146 51.15270219 23.60045498 49.72878554 22.875 46.5 C21.39452691 40.83624142 19.3091575 35.51862616 17.0625 30.125 C16.72653809 29.30451172 16.39057617 28.48402344 16.04443359 27.63867188 C14.17176302 23.22109001 12.25899815 19.60166686 9 16 C9.144375 16.5775 9.28875 17.155 9.4375 17.75 C9.95833333 19.83333333 10.47916667 21.91666667 11 24 C10.34 24 9.68 24 9 24 C7.02 20.37 5.04 16.74 3 13 C4.32 13.66 5.64 14.32 7 15 C5.76651507 10.40246525 3.90484956 7.21315956 1.0234375 3.515625 C0 2 0 2 0 0 Z " fill="#226582" transform="translate(197,38)"/>
<path d="M0 0 C0.66 0 1.32 0 2 0 C5.3 9.24 8.6 18.48 12 28 C9.14147116 30.85852884 5.76314388 31.24819675 1.9375 32.125 C1.17123291 32.30385742 0.40496582 32.48271484 -0.38452148 32.66699219 C-5.70193753 33.85076975 -10.54088342 34.39702666 -16 34 C-12.79619983 31.86413322 -11.98060033 31.76867825 -8.3125 31.875 C-7.10013672 31.90207031 -7.10013672 31.90207031 -5.86328125 31.9296875 C-5.24839844 31.95289063 -4.63351563 31.97609375 -4 32 C-3.67 31.34 -3.34 30.68 -3 30 C-0.05859375 29.3671875 -0.05859375 29.3671875 3.5625 28.875 C4.76003906 28.70742187 5.95757812 28.53984375 7.19140625 28.3671875 C8.11824219 28.24601562 9.04507813 28.12484375 10 28 C9.67 27.401875 9.34 26.80375 9 26.1875 C8 24 8 24 8 21 C7.34 21 6.68 21 6 21 C5.896875 20.360625 5.79375 19.72125 5.6875 19.0625 C4.13005355 11.28453924 4.13005355 11.28453924 -0.1875 4.9375 C-0.785625 4.628125 -1.38375 4.31875 -2 4 C-1.34 2.68 -0.68 1.36 0 0 Z " fill="#246781" transform="translate(133,175)"/>
<path d="M0 0 C1.09175537 0.11952026 1.09175537 0.11952026 2.20556641 0.24145508 C4.48191668 0.71096912 6.24655304 1.54715704 8.2734375 2.66796875 C6.69020062 2.69516175 5.10682688 2.71445181 3.5234375 2.73046875 C2.20085937 2.74787109 2.20085937 2.74787109 0.8515625 2.765625 C-1.7265625 2.66796875 -1.7265625 2.66796875 -3.5625 2.16796875 C-6.0807275 1.58614001 -8.3456603 1.55528909 -10.9296875 1.5703125 C-11.909375 1.57353516 -12.8890625 1.57675781 -13.8984375 1.58007812 C-14.91421875 1.58845703 -15.93 1.59683594 -16.9765625 1.60546875 C-18.0078125 1.60998047 -19.0390625 1.61449219 -20.1015625 1.61914062 C-22.64328823 1.63090787 -25.18489569 1.64734864 -27.7265625 1.66796875 C-28.3865625 2.98796875 -29.0465625 4.30796875 -29.7265625 5.66796875 C-30.3865625 4.67796875 -31.0465625 3.68796875 -31.7265625 2.66796875 C-37.3365625 3.98796875 -42.9465625 5.30796875 -48.7265625 6.66796875 C-48.7265625 6.00796875 -48.7265625 5.34796875 -48.7265625 4.66796875 C-31.95330218 -0.17803716 -17.41897822 -1.90758845 0 0 Z " fill="#216988" transform="translate(127.7265625,16.33203125)"/>
<path d="M0 0 C1.9375 1.0625 1.9375 1.0625 3 3 C3.3125 6.5625 3.3125 6.5625 3 10 C1 12 1 12 -0.9375 12.4375 C-3.37972594 13.10356162 -4.36177677 14.11604329 -6 16 C-6.66 15.01 -7.32 14.02 -8 13 C-8.66 13 -9.32 13 -10 13 C-9.34 15.64 -8.68 18.28 -8 21 C-8.66 21 -9.32 21 -10 21 C-10.99 17.37 -11.98 13.74 -13 10 C-8.71 9.34 -4.42 8.68 0 8 C0.33 7.01 0.66 6.02 1 5 C0.67 4.34 0.34 3.68 0 3 C-2.35599235 2.53248212 -2.35599235 2.53248212 -5.0625 2.375 C-5.98160156 2.30023438 -6.90070312 2.22546875 -7.84765625 2.1484375 C-8.55792969 2.09945312 -9.26820312 2.05046875 -10 2 C-6.30513897 -0.46324069 -4.36706908 -0.38991688 0 0 Z " fill="#226986" transform="translate(66,57)"/>
<path d="M0 0 C0.495 0.99 0.495 0.99 1 2 C0.00540771 2.01401855 0.00540771 2.01401855 -1.00927734 2.02832031 C-15.1897053 2.27817411 -28.28830651 3.37576383 -42 7 C-43.66358354 7.34839446 -45.32900023 7.68911632 -47 8 C-47 7.01 -47 6.02 -47 5 C-30.97812499 1.24760008 -16.44944533 -0.15199693 0 0 Z " fill="#186685" transform="translate(122,4)"/>
<path d="M0 0 C0.66 0 1.32 0 2 0 C-0.14120307 8.38717647 -2.81403014 16.52537908 -5.6875 24.6875 C-6.10322266 25.87794922 -6.51894531 27.06839844 -6.94726562 28.29492188 C-7.96152282 31.19779593 -8.97915332 34.09943813 -10 37 C-12.49551158 34.50448842 -13.07575992 32.33923374 -14.1875 29 C-14.73470703 27.39125 -14.73470703 27.39125 -15.29296875 25.75 C-16 23 -16 23 -15 21 C-14.73445313 21.63808594 -14.46890625 22.27617187 -14.1953125 22.93359375 C-13.84210938 23.75988281 -13.48890625 24.58617187 -13.125 25.4375 C-12.77695313 26.26121094 -12.42890625 27.08492187 -12.0703125 27.93359375 C-11.1755063 30.15746715 -11.1755063 30.15746715 -9 31 C-8.89558594 29.84628906 -8.79117188 28.69257813 -8.68359375 27.50390625 C-8.12061445 23.00897662 -6.7536138 19.11864707 -5.0625 14.9375 C-3.10627896 10.0017306 -1.38094652 5.13018298 0 0 Z " fill="#256782" transform="translate(99,135)"/>
<path d="M0 0 C2.84323792 1.15835619 4.31388887 2.3217361 6.5 4.5625 C8.86027002 6.86376327 9.81596775 7.64621864 13 8 C13 7.34 13 6.68 13 6 C16.80133442 7.67923025 19.97082702 10.11462834 23.25 12.625 C23.80429687 13.04523438 24.35859375 13.46546875 24.9296875 13.8984375 C26.28866663 14.92938719 27.64463835 15.96429911 29 17 C28.34 17.33 27.68 17.66 27 18 C23.37 15.36 19.74 12.72 16 10 C16 10.99 16 11.98 16 13 C18.4390706 15.20142332 18.4390706 15.20142332 21 17 C20.67 17.66 20.34 18.32 20 19 C12.91921076 13.40154421 6.06861352 7.71293545 0 1 C0 0.67 0 0.34 0 0 Z " fill="#1F6784" transform="translate(27,186)"/>
<path d="M0 0 C0.33 0 0.66 0 1 0 C1 1.98 1 3.96 1 6 C2.65 5.67 4.3 5.34 6 5 C6.20496094 6.03640625 6.40992188 7.0728125 6.62109375 8.140625 C6.89317769 9.51042689 7.16531596 10.88021799 7.4375 12.25 C7.57220703 12.93191406 7.70691406 13.61382812 7.84570312 14.31640625 C8.49220711 17.56469458 9.15002695 20.79815978 10 24 C9.34 24.33 8.68 24.66 8 25 C6.68 20.38 5.36 15.76 4 11 C3.34 11 2.68 11 2 11 C2.33 12.98 2.66 14.96 3 17 C2.34 17 1.68 17 1 17 C-0.46619907 10.97767819 -1.32528788 6.09632423 0 0 Z " fill="#1D6788" transform="translate(1,121)"/>
<path d="M0 0 C0.66 0.33 1.32 0.66 2 1 C1.01 2.32 0.02 3.64 -1 5 C1.31 4.34 3.62 3.68 6 3 C3.51047079 5.66735273 1.36591866 7.55746343 -2 9 C-2 8.34 -2 7.68 -2 7 C-6.59664549 7.48515578 -8.74144221 9.17623059 -12.0625 12.3125 C-12.89910156 13.09238281 -13.73570313 13.87226563 -14.59765625 14.67578125 C-16.75445956 16.76244461 -18.88779381 18.86828152 -21 21 C-21.66 20.67 -22.32 20.34 -23 20 C-15.805464 12.46645445 -8.68996648 5.8161193 0 0 Z " fill="#216583" transform="translate(50,18)"/>
<path d="M0 0 C3.85926278 0.87710518 5.63385218 1.5369307 8.125 4.6875 C9.053125 6.3271875 9.053125 6.3271875 10 8 C10.38542969 8.6084375 10.77085937 9.216875 11.16796875 9.84375 C12.20217972 11.50978268 13.10988207 13.25273147 14 15 C13.67 15.99 13.34 16.98 13 18 C9.62925682 15.79158206 7.80337439 13.60674878 6 10 C6 9.01 6 8.02 6 7 C5.38125 6.71125 4.7625 6.4225 4.125 6.125 C2 5 2 5 0 3 C0 2.01 0 1.02 0 0 Z " fill="#1E749A" transform="translate(191,36)"/>
<path d="M0 0 C4.9455729 1.50034234 7.96923786 4.39451413 11.625 7.875 C12.48351562 8.66970703 12.48351562 8.66970703 13.359375 9.48046875 C16.20618533 12.14852587 18.79198254 14.75844246 21 18 C16.70761377 16.34908222 14.1206085 13.26245434 11 10 C10.01 10.495 10.01 10.495 9 11 C8.01 11.33 7.02 11.66 6 12 C4.17578125 10.78515625 4.17578125 10.78515625 2.3125 9.0625 C1.68988281 8.49660156 1.06726563 7.93070313 0.42578125 7.34765625 C-0.04472656 6.90292969 -0.51523438 6.45820313 -1 6 C-0.34 5.67 0.32 5.34 1 5 C1.99 5.66 2.98 6.32 4 7 C4.99 7 5.98 7 7 7 C6.4946875 6.57847656 5.989375 6.15695313 5.46875 5.72265625 C4.8190625 5.17480469 4.169375 4.62695312 3.5 4.0625 C2.8503125 3.51722656 2.200625 2.97195312 1.53125 2.41015625 C1.0259375 1.94480469 0.520625 1.47945312 0 1 C0 0.67 0 0.34 0 0 Z " fill="#1D6783" transform="translate(176,20)"/>
<path d="M0 0 C2.13813258 3.20719887 3.27517865 6.16737906 4.6015625 9.78515625 C4.8428891 10.44204941 5.0842157 11.09894257 5.33285522 11.77574158 C5.84069108 13.1610693 6.34655891 14.54711985 6.85058594 15.93383789 C7.62413838 18.06013164 8.40535322 20.18349534 9.1875 22.30664062 C9.68014695 23.65347786 10.17234981 25.00047764 10.6640625 26.34765625 C11.11217285 27.57492432 11.5602832 28.80219238 12.02197266 30.06665039 C13 33 13 33 13 35 C12.34 35 11.68 35 11 35 C7.95749066 27.32251898 5.13531617 19.62545679 2.61254883 11.76342773 C1.76313889 8.62941167 1.76313889 8.62941167 0 6 C-0.04080783 4.00041636 -0.04254356 1.99954746 0 0 Z " fill="#226785" transform="translate(52,149)"/>
<path d="M0 0 C3.6947586 3.21387895 5.3206949 6.44085122 7.1875 10.9375 C7.95126953 12.74541016 7.95126953 12.74541016 8.73046875 14.58984375 C10.75049684 20.01594997 11.11660937 24.52279784 11.0625 30.3125 C11.05347656 31.56675781 11.04445312 32.82101563 11.03515625 34.11328125 C11.02355469 35.06589844 11.01195312 36.01851562 11 37 C10.67 37 10.34 37 10 37 C9.96261719 36.17757812 9.92523438 35.35515625 9.88671875 34.5078125 C9.32607073 24.98778925 7.91018243 16.32596152 3 8 C2.34 7.67 1.68 7.34 1 7 C0.59270772 4.67843403 0.25561323 2.3431213 0 0 Z " fill="#226783" transform="translate(167,77)"/>
<path d="M0 0 C2.35953094 2.35953094 2.49141413 3.77895617 3 7 C1.68 6.34 0.36 5.68 -1 5 C-1.2475 6.216875 -1.495 7.43375 -1.75 8.6875 C-3.55760246 16.7768415 -5.44609846 24.99399763 -10 32 C-11 30 -11 30 -10.21142578 27.12670898 C-9.7936084 25.92860596 -9.37579102 24.73050293 -8.9453125 23.49609375 C-8.72430878 22.85761002 -8.50330505 22.21912628 -8.27560425 21.56129456 C-7.8065769 20.21093453 -7.33391023 18.86183396 -6.85791016 17.51391602 C-6.12763183 15.44495626 -5.4085895 13.37235897 -4.69140625 11.29882812 C-1.15666468 1.15666468 -1.15666468 1.15666468 0 0 Z " fill="#246681" transform="translate(114,121)"/>
<path d="M0 0 C0.66 0 1.32 0 2 0 C1.68872484 1.58357459 1.37592711 3.16684993 1.0625 4.75 C0.88847656 5.63171875 0.71445313 6.5134375 0.53515625 7.421875 C0.07631512 9.63235053 -0.43336074 11.81512068 -1 14 C-1.66 14 -2.32 14 -3 14 C-2.34414811 17.60992379 -2.34414811 17.60992379 -1 21 C-2.98 21.33 -4.96 21.66 -7 22 C-5.0827282 14.49068545 -2.75950985 7.24196241 0 0 Z " fill="#236A89" transform="translate(102,154)"/>
<path d="M0 0 C2.14082246 2.14082246 2.59262865 3.30767976 3.5078125 6.1328125 C3.77207031 6.93847656 4.03632813 7.74414062 4.30859375 8.57421875 C4.57800781 9.41597656 4.84742188 10.25773437 5.125 11.125 C5.40214844 11.97449219 5.67929687 12.82398437 5.96484375 13.69921875 C6.6486468 15.79778673 7.32678277 17.89801696 8 20 C7.34 20 6.68 20 6 20 C4.02 15.05 2.04 10.1 0 5 C-0.99 7.97 -1.98 10.94 -3 14 C-3.66 14 -4.32 14 -5 14 C-4.54857225 12.22739369 -4.08859477 10.4569632 -3.625 8.6875 C-3.36976562 7.70136719 -3.11453125 6.71523437 -2.8515625 5.69921875 C-2 3 -2 3 0 0 Z " fill="#246783" transform="translate(24,73)"/>
<path d="M0 0 C0.33 0.66 0.66 1.32 1 2 C0.67 2.66 0.34 3.32 0 4 C0.50015625 3.83628906 1.0003125 3.67257813 1.515625 3.50390625 C4.9263468 2.8121089 8.28735757 2.89495335 11.75 2.9375 C12.44738281 2.94201172 13.14476563 2.94652344 13.86328125 2.95117188 C15.57555803 2.9628998 17.28779033 2.98083347 19 3 C19.33 3.66 19.66 4.32 20 5 C17.54724859 6.2263757 15.9494219 6.11415314 13.2109375 6.09765625 C12.26992188 6.09443359 11.32890625 6.09121094 10.359375 6.08789062 C9.37453125 6.07951172 8.3896875 6.07113281 7.375 6.0625 C6.38242187 6.05798828 5.38984375 6.05347656 4.3671875 6.04882812 C1.9113984 6.03702145 -0.54427104 6.020554 -3 6 C-1.125 1.125 -1.125 1.125 0 0 Z " fill="#1B698A" transform="translate(35,54)"/>
<path d="M0 0 C0.66 0.33 1.32 0.66 2 1 C2.25306122 8.33877551 2.25306122 8.33877551 1.03125 11.53125 C-0.47651417 16.6028204 -0.46936965 21.60950645 -0.625 26.875 C-0.66367187 27.94492188 -0.70234375 29.01484375 -0.7421875 30.1171875 C-0.83602452 32.74462408 -0.92171557 35.37206171 -1 38 C-1.33 38 -1.66 38 -2 38 C-2.05867342 33.5417231 -2.09382135 29.08354727 -2.125 24.625 C-2.14175781 23.37332031 -2.15851562 22.12164062 -2.17578125 20.83203125 C-2.21348958 13.62974 -1.8081292 6.98586107 0 0 Z " fill="#226784" transform="translate(18,88)"/>
<path d="M0 0 C0.33 0.99 0.66 1.98 1 3 C2.65 2.67 4.3 2.34 6 2 C6 1.34 6 0.68 6 0 C6.66 0 7.32 0 8 0 C6.46203092 3.43453198 4.4264398 6.14389276 2.0625 9.0625 C1.02802734 10.34833984 1.02802734 10.34833984 -0.02734375 11.66015625 C-1.61614692 13.54469703 -3.22058755 15.29868089 -5 17 C-3.9694514 14.22544609 -2.89160379 11.82736901 -1.3125 9.3125 C-0.879375 8.549375 -0.44625 7.78625 0 7 C-0.83333333 4.83333333 -0.83333333 4.83333333 -3 4 C-2.01 2.68 -1.02 1.36 0 0 Z " fill="#226884" transform="translate(26,39)"/>
<path d="M0 0 C0.99 0 1.98 0 3 0 C3.4125 0.86625 3.825 1.7325 4.25 2.625 C5.94675802 6.05400148 5.94675802 6.05400148 8.1875 9.25 C10 12 10 12 10 14 C7 14 7 14 5.44921875 12.75 C3.92420951 10.90847941 2.8711445 9.14162566 1.8125 7 C1.46832031 6.319375 1.12414062 5.63875 0.76953125 4.9375 C0 3 0 3 0 0 Z " fill="#1F749C" transform="translate(16,166)"/>
<path d="M0 0 C0.99 0.33 1.98 0.66 3 1 C2.04956626 2.33897583 1.08940853 3.67105427 0.125 5 C-0.40867187 5.7425 -0.94234375 6.485 -1.4921875 7.25 C-1.98976563 7.8275 -2.48734375 8.405 -3 9 C-3.66 9 -4.32 9 -5 9 C-5 9.66 -5 10.32 -5 11 C-6.65 11.33 -8.3 11.66 -10 12 C-10 9 -10 9 -8.3203125 7.24609375 C-7.59585937 6.64925781 -6.87140625 6.05242188 -6.125 5.4375 C-5.04605469 4.53837891 -5.04605469 4.53837891 -3.9453125 3.62109375 C-3.30335937 3.08613281 -2.66140625 2.55117188 -2 2 C-1.34 1.34 -0.68 0.68 0 0 Z " fill="#1F759B" transform="translate(37,30)"/>
<path d="M0 0 C2.96213105 1.39120312 5.55423485 2.99589924 8.1875 4.9375 C8.88230469 5.44152344 9.57710937 5.94554687 10.29296875 6.46484375 C12 8 12 8 13 11 C9.08557587 10.72690064 7.2973899 10.25007787 4.25 7.6875 C0 2.61111111 0 2.61111111 0 0 Z " fill="#1F759A" transform="translate(41,195)"/>
<path d="M0 0 C0.66 0 1.32 0 2 0 C4.31 6.6 6.62 13.2 9 20 C8.01 20.33 7.02 20.66 6 21 C5.896875 20.360625 5.79375 19.72125 5.6875 19.0625 C4.13005355 11.28453924 4.13005355 11.28453924 -0.1875 4.9375 C-0.785625 4.628125 -1.38375 4.31875 -2 4 C-1.34 2.68 -0.68 1.36 0 0 Z " fill="#1D6989" transform="translate(133,175)"/>
<path d="M0 0 C5.67790946 2.95724451 10.43959069 6.48697157 15 11 C15 11.33 15 11.66 15 12 C11.7 12.66 8.4 13.32 5 14 C5.33 13.01 5.66 12.02 6 11 C7.32 11 8.64 11 10 11 C9.67 10.01 9.34 9.02 9 8 C8.01 7.67 7.02 7.34 6 7 C6 6.34 6 5.68 6 5 C5.38125 4.690625 4.7625 4.38125 4.125 4.0625 C2.75 3.375 1.375 2.6875 0 2 C0 1.34 0 0.68 0 0 Z " fill="#246680" transform="translate(163,30)"/>
<path d="M0 0 C10.14220948 1.30867219 18.83044451 5.70489231 28 10 C24.00343918 11.33218694 21.86321219 9.87595253 18.25 8.1875 C9.94842249 4.32447804 9.94842249 4.32447804 1 3 C0.67 2.01 0.34 1.02 0 0 Z " fill="#23617F" transform="translate(139,3)"/>
<path d="M0 0 C0.66 0 1.32 0 2 0 C2.86343824 2.12124966 3.71550648 4.24713072 4.5625 6.375 C5.27599609 8.15003906 5.27599609 8.15003906 6.00390625 9.9609375 C7 13 7 13 6 15 C4.18387512 14.04855402 2.37218919 13.08863067 0.5625 12.125 C-0.44683594 11.59132812 -1.45617188 11.05765625 -2.49609375 10.5078125 C-5 9 -5 9 -6 7 C-4.88625 7.4640625 -4.88625 7.4640625 -3.75 7.9375 C-0.8356784 9.12849006 -0.8356784 9.12849006 3 10 C2.01 6.7 1.02 3.4 0 0 Z " fill="#236480" transform="translate(64,185)"/>
<path d="M0 0 C1.32 0.33 2.64 0.66 4 1 C4 1.66 4 2.32 4 3 C3.34 3 2.68 3 2 3 C1.71125 3.886875 1.4225 4.77375 1.125 5.6875 C0.16851252 8.50382424 -0.86798946 11.25083156 -2 14 C-2.66 13.67 -3.32 13.34 -4 13 C-4.625 10.9375 -4.625 10.9375 -5 9 C-4.34 8.67 -3.68 8.34 -3 8 C-2.28293018 6.01751285 -1.61709587 4.01584651 -1 2 C-0.67 1.34 -0.34 0.68 0 0 Z " fill="#1F769B" transform="translate(13,61)"/>
<path d="M0 0 C0.66 0.99 1.32 1.98 2 3 C1.67 3.99 1.34 4.98 1 6 C1.66 6.33 2.32 6.66 3 7 C3.33 7.33 3.66 7.66 4 8 C4 7.01 4 6.02 4 5 C4.66 5.33 5.32 5.66 6 6 C5.67 7.98 5.34 9.96 5 12 C4.236875 11.649375 3.47375 11.29875 2.6875 10.9375 C-0.04759379 9.67639116 -0.04759379 9.67639116 -3 11 C-2.01 7.37 -1.02 3.74 0 0 Z " fill="#216D8B" transform="translate(89,191)"/>
<path d="M0 0 C1.37562854 1.28965176 2.70766393 2.62689293 4 4 C4 4.66 4 5.32 4 6 C4.928125 6.4640625 4.928125 6.4640625 5.875 6.9375 C7.25 7.625 8.625 8.3125 10 9 C10 9.66 10 10.32 10 11 C7.14458787 10.91601729 5.43760967 10.39043615 3.296875 8.48046875 C0.16299122 5.00244352 0.16299122 5.00244352 -1 3 C-0.67 2.01 -0.34 1.02 0 0 Z " fill="#1E759B" transform="translate(30,183)"/>
<path d="M0 0 C0.66 0 1.32 0 2 0 C3.17192435 3.12305373 4.33663876 6.24874739 5.5 9.375 C5.83386719 10.26445312 6.16773437 11.15390625 6.51171875 12.0703125 C6.82753906 12.92109375 7.14335938 13.771875 7.46875 14.6484375 C7.76201172 15.43395996 8.05527344 16.21948242 8.35742188 17.02880859 C9 19 9 19 9 21 C8.34 21 7.68 21 7 21 C5.35807198 16.97190556 3.84972108 12.90463541 2.375 8.8125 C1.92898437 7.58144531 1.48296875 6.35039062 1.0234375 5.08203125 C0 2 0 2 0 0 Z " fill="#216684" transform="translate(120,140)"/>
<path d="M0 0 C3.94139078 1.66751148 6.7892812 4.22710649 10 7 C7.39189261 7.9659657 6.10579853 8.02770914 3.375 7.3125 C0.68378955 5.82525212 -0.0910322 4.90869698 -1 2 C-0.67 1.34 -0.34 0.68 0 0 Z " fill="#1E739C" transform="translate(174,20)"/>
<path d="M0 0 C0.66 0 1.32 0 2 0 C2.83739781 2.1234016 3.66980283 4.2487728 4.5 6.375 C4.9640625 7.55835937 5.428125 8.74171875 5.90625 9.9609375 C7 13 7 13 7 15 C6.34 15 5.68 15 5 15 C4.34 14.01 3.68 13.02 3 12 C2.01 11.34 1.02 10.68 0 10 C0.99 9.67 1.98 9.34 3 9 C2.01 6.03 1.02 3.06 0 0 Z " fill="#206885" transform="translate(33,100)"/>
<path d="M0 0 C1.90318884 2.85478326 2.4619099 4.41941308 3.125 7.6875 C3.29257813 8.49574219 3.46015625 9.30398437 3.6328125 10.13671875 C3.75398437 10.75160156 3.87515625 11.36648437 4 12 C2.68 12.33 1.36 12.66 0 13 C0 8.71 0 4.42 0 0 Z " fill="#1B749C" transform="translate(199,72)"/>
<path d="M0 0 C2.10597638 0.61887466 4.20972971 1.24531797 6.3125 1.875 C7.48425781 2.22304687 8.65601563 2.57109375 9.86328125 2.9296875 C13 4 13 4 16 6 C15.67 6.66 15.34 7.32 15 8 C9.72 6.02 4.44 4.04 -1 2 C-0.67 1.34 -0.34 0.68 0 0 Z " fill="#18617D" transform="translate(145,9)"/>
<path d="M0 0 C1.9453125 -0.29296875 1.9453125 -0.29296875 4.125 -0.1875 C5.40375 -0.125625 6.6825 -0.06375 8 0 C8.33 0.66 8.66 1.32 9 2 C1.57142857 4.42857143 1.57142857 4.42857143 -2 3 C-1.34 2.01 -0.68 1.02 0 0 Z " fill="#1C749C" transform="translate(79,5)"/>
<path d="M0 0 C1.35814777 4.0744433 -0.05254238 6.81468116 -1.4375 10.6875 C-1.68048828 11.38939453 -1.92347656 12.09128906 -2.17382812 12.81445312 C-2.7744944 14.54578532 -3.38619719 16.27328137 -4 18 C-4.66 17.67 -5.32 17.34 -6 17 C-5.19462536 13.53521118 -4.1183782 10.18819303 -3 6.8125 C-2.649375 5.74644531 -2.29875 4.68039063 -1.9375 3.58203125 C-1 1 -1 1 0 0 Z " fill="#236684" transform="translate(106,116)"/>
<path d="M0 0 C0.99 0.33 1.98 0.66 3 1 C-2.445 5.455 -2.445 5.455 -8 10 C-8 7 -8 7 -7 4 C-5.35448038 3.28272222 -3.68577711 2.61674772 -2 2 C-1.34 1.34 -0.68 0.68 0 0 Z " fill="#216687" transform="translate(178,181)"/>
<path d="M0 0 C0.66 0.33 1.32 0.66 2 1 C-0.97 8.92 -0.97 8.92 -4 17 C-4.33 17 -4.66 17 -5 17 C-4.72740991 10.22613615 -3.80946641 5.65275661 0 0 Z " fill="#286781" transform="translate(15,64)"/>
<path d="M0 0 C2.475 0.495 2.475 0.495 5 1 C5.66 3.64 6.32 6.28 7 9 C6.34 9 5.68 9 5 9 C5 8.34 5 7.68 5 7 C4.34 7 3.68 7 3 7 C2.67 6.01 2.34 5.02 2 4 C1.34 3.34 0.68 2.68 0 2 C0 1.34 0 0.68 0 0 Z " fill="#1F6A8A" transform="translate(91,67)"/>
<path d="M0 0 C-0.66 0 -1.32 0 -2 0 C-2 0.99 -2 1.98 -2 3 C-2.66 3 -3.32 3 -4 3 C-4 3.66 -4 4.32 -4 5 C-5.65 5 -7.3 5 -9 5 C-5.28508772 -1.58552632 -5.28508772 -1.58552632 0 0 Z " fill="#136B9B" transform="translate(132,220)"/>
<path d="M0 0 C0.433125 0.639375 0.86625 1.27875 1.3125 1.9375 C2.91239177 4.26746003 2.91239177 4.26746003 6 5 C0.25 9 0.25 9 -2 9 C-1.34 6.03 -0.68 3.06 0 0 Z " fill="#236682" transform="translate(163,187)"/>
<path d="M0 0 C0.66 0.66 1.32 1.32 2 2 C1.625 4.125 1.625 4.125 1 6 C1.66 6.33 2.32 6.66 3 7 C2.34 7 1.68 7 1 7 C1 7.66 1 8.32 1 9 C0.34 9 -0.32 9 -1 9 C-1 9.66 -1 10.32 -1 11 C-1.66 11 -2.32 11 -3 11 C-2.01 7.37 -1.02 3.74 0 0 Z " fill="#1E6A87" transform="translate(180,138)"/>
<path d="M0 0 C1.31534494 3.65857532 0.65468309 6.08026481 -0.4375 9.75 C-0.86869141 11.22726563 -0.86869141 11.22726563 -1.30859375 12.734375 C-1.53675781 13.48203125 -1.76492187 14.2296875 -2 15 C-2.66 14.67 -3.32 14.34 -4 14 C-3.21824485 9.15311808 -1.60155722 4.6233633 0 0 Z " fill="#226681" transform="translate(176,115)"/>
<path d="M0 0 C1.89551022 -0.05441656 3.7914792 -0.09298035 5.6875 -0.125 C6.74324219 -0.14820313 7.79898438 -0.17140625 8.88671875 -0.1953125 C12.02251859 0.00141271 14.17645373 0.66942346 17 2 C17 2.66 17 3.32 17 4 C11.39 3.01 5.78 2.02 0 1 C0 0.67 0 0.34 0 0 Z " fill="#1F627F" transform="translate(126,6)"/>
<path d="M0 0 C-0.5625 1.9375 -0.5625 1.9375 -2 4 C-5.625 4.75 -5.625 4.75 -9 5 C-4.5 0 -4.5 0 0 0 Z " fill="#1F749E" transform="translate(69,11)"/>
<path d="M0 0 C3.36720387 1.39332574 4.9859524 2.9789286 7 6 C3.31245243 5.50168276 1.39509338 4.89932357 -1 2 C-0.67 1.34 -0.34 0.68 0 0 Z " fill="#1C769D" transform="translate(185,29)"/>
<path d="M0 0 C1.32 0 2.64 0 4 0 C4.33 1.32 4.66 2.64 5 4 C2.03 4 -0.94 4 -4 4 C-2.66666667 2.66666667 -1.33333333 1.33333333 0 0 Z " fill="#177093" transform="translate(87,54)"/>
<path d="M0 0 C1.32 1.32 2.64 2.64 4 4 C3.34 5.32 2.68 6.64 2 8 C-0.36556709 5.63443291 -0.58244041 4.25696479 -1 1 C-0.67 0.67 -0.34 0.34 0 0 Z " fill="#1B769B" transform="translate(8,147)"/>
<path d="M0 0 C0.66 0.33 1.32 0.66 2 1 C2 3.64 2 6.28 2 9 C0.02 9.99 0.02 9.99 -2 11 C-1.34 7.37 -0.68 3.74 0 0 Z " fill="#1F5C78" transform="translate(18,88)"/>
<path d="M0 0 C0.99 0.99 1.98 1.98 3 3 C2.319375 3.61875 2.319375 3.61875 1.625 4.25 C-0.05950374 6.06408095 -0.99265971 7.75285627 -2 10 C-2.33 7.69 -2.66 5.38 -3 3 C-2.34 3 -1.68 3 -1 3 C-0.67 2.01 -0.34 1.02 0 0 Z " fill="#1F6C89" transform="translate(132,73)"/>
<path d="M0 0 C0.99 0 1.98 0 3 0 C2.67 1.32 2.34 2.64 2 4 C0.35 4.33 -1.3 4.66 -3 5 C-1.125 1.125 -1.125 1.125 0 0 Z " fill="#1C769C" transform="translate(52,18)"/>
<path d="M0 0 C0.66 0.33 1.32 0.66 2 1 C1.04956626 2.33897583 0.08940853 3.67105427 -0.875 5 C-1.40867188 5.7425 -1.94234375 6.485 -2.4921875 7.25 C-3.23855469 8.11625 -3.23855469 8.11625 -4 9 C-4.66 9 -5.32 9 -6 9 C-4.47291037 5.56404834 -2.40072955 2.88087546 0 0 Z " fill="#1C6C8B" transform="translate(192,183)"/>
<path d="M0 0 C2.4294516 3.6441774 2.16179575 5.71241272 2 10 C1.01 10.495 1.01 10.495 0 11 C-0.19491452 9.54263913 -0.38069358 8.08405407 -0.5625 6.625 C-0.66691406 5.81289062 -0.77132813 5.00078125 -0.87890625 4.1640625 C-1 2 -1 2 0 0 Z " fill="#1D6CA2" transform="translate(5,78)"/>
<path d="M0 0 C-5.17578125 3.22265625 -5.17578125 3.22265625 -7 4 C-7.99 3.67 -8.98 3.34 -10 3 C-9.34 3 -8.68 3 -8 3 C-8 2.01 -8 1.02 -8 0 C-4.71303767 -0.79953138 -3.28976808 -1.09658936 0 0 Z " fill="#1E6281" transform="translate(67,16)"/>
<path d="M0 0 C0.66 0 1.32 0 2 0 C2.99 3.3 3.98 6.6 5 10 C4.34 10 3.68 10 3 10 C2.49818809 8.52144705 1.99859924 7.04213942 1.5 5.5625 C1.2215625 4.73878906 0.943125 3.91507813 0.65625 3.06640625 C0 1 0 1 0 0 Z " fill="#226580" transform="translate(116,129)"/>
<path d="M0 0 C0.66 0.33 1.32 0.66 2 1 C1.01 3.97 0.02 6.94 -1 10 C-1.66 10 -2.32 10 -3 10 C-2.01 6.7 -1.02 3.4 0 0 Z " fill="#216680" transform="translate(184,127)"/>
<path d="M0 0 C0.99 0 1.98 0 3 0 C3.33 2.64 3.66 5.28 4 8 C1.84622436 5.37801226 0.59927826 3.35595828 0 0 Z " fill="#1D6381" transform="translate(208,64)"/>
</svg>
